; NON-PLATED HOLES START AT T1
; THROUGH (PLATED) HOLES START AT T100
M48
INCH
T1C0.086614
T2C0.118110
T100C0.038000
T101C0.031496
T102C0.040000
T103C0.100000
T104C0.044000
T105C0.035000
T106C0.031497
T107C0.032000
T108C0.031555
T109C0.030000
T110C0.015748
T111C0.042000
T112C0.118110
%
T1
X001553Y019873
X001553Y010976
X001553Y014361
X001553Y016487
T2
X008561Y018771
X008561Y015857
T100
X002735Y012023
X002735Y018535
X003837Y019007
X002735Y017535
X003837Y018007
X030674Y000815
X002735Y013023
X003837Y012495
X003837Y013495
X031674Y000815
T101
X008561Y018810
X011437Y007826
X008561Y015857
T102
X008483Y010582
X007483Y010582
X009483Y010582
T103
X008499Y013298
X013876Y021566
X006199Y013298
X006002Y021566
X011576Y021566
X014073Y013298
X008302Y021566
X011773Y013298
T104
X036146Y008059
X027146Y002154
X033146Y008059
X035146Y002154
X036146Y002154
X037146Y008059
X034146Y002154
X030146Y008059
X031146Y008059
X033146Y002154
X032146Y008059
X029146Y002154
X038146Y002154
X029146Y008059
X028146Y008059
X035146Y008059
X037146Y002154
X032146Y002154
X030146Y002154
X027146Y008059
X034146Y008059
X038146Y008059
X031146Y002154
X028146Y002154
T105
X034492Y010579
X034002Y017613
X017367Y008217
X014766Y005779
X034002Y019613
X015845Y017810
X036317Y015857
X023365Y015306
X015666Y007193
X026522Y018810
X015845Y019810
X034908Y019598
X010766Y005779
X022144Y016448
X019979Y020787
X031002Y019613
X034317Y015857
X021554Y020976
X016658Y006800
X016042Y014991
X036264Y013138
X015766Y005779
X026185Y006957
X025491Y016448
X023041Y005850
X026522Y019810
X020430Y008335
X027459Y017794
X034492Y013138
X017068Y003414
X031002Y018613
X015845Y018810
X034002Y018613
X027459Y022739
X018798Y015306
X020845Y017440
X036908Y019598
X018430Y008335
X029506Y020818
X033443Y013810
X035136Y018810
X026185Y007902
X020843Y003130
X016042Y015991
X017451Y020976
X013766Y002779
X018845Y019810
X012766Y002779
X023365Y014306
X023522Y017810
X003050Y007779
X027459Y020739
X023554Y020976
X019979Y019794
X018798Y012306
X011766Y005779
X021357Y015661
X027459Y019794
X015766Y002779
X028561Y022739
X023522Y019810
X018845Y017810
X008766Y005779
X009766Y002779
X033443Y011810
X019979Y017794
X023185Y007902
X026522Y017810
X019957Y009398
X008766Y002779
X020845Y019440
X007766Y002779
X025162Y003729
X016042Y013991
X016658Y008800
X019979Y022787
X036264Y010579
X020144Y016448
X023491Y016448
X035136Y016810
X020792Y011752
X031002Y017613
X021357Y013661
X029506Y022818
X010766Y002779
X011766Y002779
X007766Y005779
X021449Y006068
X020792Y009752
X018845Y018810
X013766Y005779
X017957Y009398
X017367Y006217
X023365Y013306
X018483Y001999
X003050Y005779
X014766Y002779
X023185Y006957
X023522Y018810
X009766Y005779
X028561Y020739
X012766Y005779
X013666Y007193
X015451Y020976
T106
X026686Y012607
X031002Y018613
X024825Y011664
X028710Y011562
X030678Y011562
X031002Y019598
X030678Y012546
X028710Y012546
X026686Y011623
X024825Y012648
T107
X005254Y007204
X006254Y007204
X005254Y004204
X004254Y004204
X004254Y007204
X006254Y004204
T108
X009506Y007826
T109
X020009Y013767
X021790Y019440
X021428Y002314
X017932Y015417
X017932Y013417
X021790Y017440
X018120Y016842
X020009Y011767
X016120Y016842
X019428Y002314
T110
X034611Y009004
X026514Y005779
X034689Y007036
X025963Y003023
T111
X027617Y014676
X014100Y018023
X011093Y015267
X014100Y016842
X028483Y018141
X004939Y015243
X016108Y010739
X029585Y018298
X014073Y015267
X028483Y015161
X004939Y009243
X011120Y018023
X011093Y019598
X024637Y014676
X014073Y019598
X019900Y010739
X029585Y015318
X016920Y010739
X013128Y010739
X011120Y016842
T112
X001239Y001448
X001239Y008456
X037931Y022393
X024939Y001291
X022844Y011877
X001239Y022472
X037681Y010107
T00
M30
