G04 MADE WITH FRITZING*
G04 WWW.FRITZING.ORG*
G04 DOUBLE SIDED*
G04 HOLES PLATED*
G04 CONTOUR ON CENTER OF CONTOUR VECTOR*
%ASAXBY*%
%FSLAX23Y23*%
%MOIN*%
%OFA0B0*%
%SFA1.0B1.0*%
%ADD10R,0.001000X0.001000*%
%LNSILK0*%
G90*
G70*
G54D10*
X0Y2362D02*
X3936Y2362D01*
X0Y2361D02*
X3936Y2361D01*
X0Y2360D02*
X3936Y2360D01*
X0Y2359D02*
X3936Y2359D01*
X0Y2358D02*
X3936Y2358D01*
X0Y2357D02*
X3936Y2357D01*
X0Y2356D02*
X3936Y2356D01*
X0Y2355D02*
X3936Y2355D01*
X0Y2354D02*
X7Y2354D01*
X3929Y2354D02*
X3936Y2354D01*
X0Y2353D02*
X7Y2353D01*
X3929Y2353D02*
X3936Y2353D01*
X0Y2352D02*
X7Y2352D01*
X3929Y2352D02*
X3936Y2352D01*
X0Y2351D02*
X7Y2351D01*
X3929Y2351D02*
X3936Y2351D01*
X0Y2350D02*
X7Y2350D01*
X3929Y2350D02*
X3936Y2350D01*
X0Y2349D02*
X7Y2349D01*
X3929Y2349D02*
X3936Y2349D01*
X0Y2348D02*
X7Y2348D01*
X3929Y2348D02*
X3936Y2348D01*
X0Y2347D02*
X7Y2347D01*
X3929Y2347D02*
X3936Y2347D01*
X0Y2346D02*
X7Y2346D01*
X3929Y2346D02*
X3936Y2346D01*
X0Y2345D02*
X7Y2345D01*
X3929Y2345D02*
X3936Y2345D01*
X0Y2344D02*
X7Y2344D01*
X3929Y2344D02*
X3936Y2344D01*
X0Y2343D02*
X7Y2343D01*
X3929Y2343D02*
X3936Y2343D01*
X0Y2342D02*
X7Y2342D01*
X3929Y2342D02*
X3936Y2342D01*
X0Y2341D02*
X7Y2341D01*
X3929Y2341D02*
X3936Y2341D01*
X0Y2340D02*
X7Y2340D01*
X3929Y2340D02*
X3936Y2340D01*
X0Y2339D02*
X7Y2339D01*
X3929Y2339D02*
X3936Y2339D01*
X0Y2338D02*
X7Y2338D01*
X3929Y2338D02*
X3936Y2338D01*
X0Y2337D02*
X7Y2337D01*
X3929Y2337D02*
X3936Y2337D01*
X0Y2336D02*
X7Y2336D01*
X3929Y2336D02*
X3936Y2336D01*
X0Y2335D02*
X7Y2335D01*
X3929Y2335D02*
X3936Y2335D01*
X0Y2334D02*
X7Y2334D01*
X3929Y2334D02*
X3936Y2334D01*
X0Y2333D02*
X7Y2333D01*
X3929Y2333D02*
X3936Y2333D01*
X0Y2332D02*
X7Y2332D01*
X3929Y2332D02*
X3936Y2332D01*
X0Y2331D02*
X7Y2331D01*
X3929Y2331D02*
X3936Y2331D01*
X0Y2330D02*
X7Y2330D01*
X3929Y2330D02*
X3936Y2330D01*
X0Y2329D02*
X7Y2329D01*
X3929Y2329D02*
X3936Y2329D01*
X0Y2328D02*
X7Y2328D01*
X3929Y2328D02*
X3936Y2328D01*
X0Y2327D02*
X7Y2327D01*
X3929Y2327D02*
X3936Y2327D01*
X0Y2326D02*
X7Y2326D01*
X3929Y2326D02*
X3936Y2326D01*
X0Y2325D02*
X7Y2325D01*
X3929Y2325D02*
X3936Y2325D01*
X0Y2324D02*
X7Y2324D01*
X3929Y2324D02*
X3936Y2324D01*
X0Y2323D02*
X7Y2323D01*
X3929Y2323D02*
X3936Y2323D01*
X0Y2322D02*
X7Y2322D01*
X3929Y2322D02*
X3936Y2322D01*
X0Y2321D02*
X7Y2321D01*
X3929Y2321D02*
X3936Y2321D01*
X0Y2320D02*
X7Y2320D01*
X3929Y2320D02*
X3936Y2320D01*
X0Y2319D02*
X7Y2319D01*
X3929Y2319D02*
X3936Y2319D01*
X0Y2318D02*
X7Y2318D01*
X3929Y2318D02*
X3936Y2318D01*
X0Y2317D02*
X7Y2317D01*
X3929Y2317D02*
X3936Y2317D01*
X0Y2316D02*
X7Y2316D01*
X3929Y2316D02*
X3936Y2316D01*
X0Y2315D02*
X7Y2315D01*
X3929Y2315D02*
X3936Y2315D01*
X0Y2314D02*
X7Y2314D01*
X3929Y2314D02*
X3936Y2314D01*
X0Y2313D02*
X7Y2313D01*
X3929Y2313D02*
X3936Y2313D01*
X0Y2312D02*
X7Y2312D01*
X3929Y2312D02*
X3936Y2312D01*
X0Y2311D02*
X7Y2311D01*
X3929Y2311D02*
X3936Y2311D01*
X0Y2310D02*
X7Y2310D01*
X3929Y2310D02*
X3936Y2310D01*
X0Y2309D02*
X7Y2309D01*
X3929Y2309D02*
X3936Y2309D01*
X0Y2308D02*
X7Y2308D01*
X3929Y2308D02*
X3936Y2308D01*
X0Y2307D02*
X7Y2307D01*
X3929Y2307D02*
X3936Y2307D01*
X0Y2306D02*
X7Y2306D01*
X3929Y2306D02*
X3936Y2306D01*
X0Y2305D02*
X7Y2305D01*
X3929Y2305D02*
X3936Y2305D01*
X0Y2304D02*
X7Y2304D01*
X3929Y2304D02*
X3936Y2304D01*
X0Y2303D02*
X7Y2303D01*
X3929Y2303D02*
X3936Y2303D01*
X0Y2302D02*
X7Y2302D01*
X3929Y2302D02*
X3936Y2302D01*
X0Y2301D02*
X7Y2301D01*
X3929Y2301D02*
X3936Y2301D01*
X0Y2300D02*
X7Y2300D01*
X3929Y2300D02*
X3936Y2300D01*
X0Y2299D02*
X7Y2299D01*
X3929Y2299D02*
X3936Y2299D01*
X0Y2298D02*
X7Y2298D01*
X3929Y2298D02*
X3936Y2298D01*
X0Y2297D02*
X7Y2297D01*
X3929Y2297D02*
X3936Y2297D01*
X0Y2296D02*
X7Y2296D01*
X3929Y2296D02*
X3936Y2296D01*
X0Y2295D02*
X7Y2295D01*
X3929Y2295D02*
X3936Y2295D01*
X0Y2294D02*
X7Y2294D01*
X3929Y2294D02*
X3936Y2294D01*
X0Y2293D02*
X7Y2293D01*
X3929Y2293D02*
X3936Y2293D01*
X0Y2292D02*
X7Y2292D01*
X3929Y2292D02*
X3936Y2292D01*
X0Y2291D02*
X7Y2291D01*
X3929Y2291D02*
X3936Y2291D01*
X0Y2290D02*
X7Y2290D01*
X3929Y2290D02*
X3936Y2290D01*
X0Y2289D02*
X7Y2289D01*
X3929Y2289D02*
X3936Y2289D01*
X0Y2288D02*
X7Y2288D01*
X3929Y2288D02*
X3936Y2288D01*
X0Y2287D02*
X7Y2287D01*
X3929Y2287D02*
X3936Y2287D01*
X0Y2286D02*
X7Y2286D01*
X3929Y2286D02*
X3936Y2286D01*
X0Y2285D02*
X7Y2285D01*
X3929Y2285D02*
X3936Y2285D01*
X0Y2284D02*
X7Y2284D01*
X3929Y2284D02*
X3936Y2284D01*
X0Y2283D02*
X7Y2283D01*
X3929Y2283D02*
X3936Y2283D01*
X0Y2282D02*
X7Y2282D01*
X3929Y2282D02*
X3936Y2282D01*
X0Y2281D02*
X7Y2281D01*
X3929Y2281D02*
X3936Y2281D01*
X0Y2280D02*
X7Y2280D01*
X3929Y2280D02*
X3936Y2280D01*
X0Y2279D02*
X7Y2279D01*
X3929Y2279D02*
X3936Y2279D01*
X0Y2278D02*
X7Y2278D01*
X3929Y2278D02*
X3936Y2278D01*
X0Y2277D02*
X7Y2277D01*
X3929Y2277D02*
X3936Y2277D01*
X0Y2276D02*
X7Y2276D01*
X3929Y2276D02*
X3936Y2276D01*
X0Y2275D02*
X7Y2275D01*
X3929Y2275D02*
X3936Y2275D01*
X0Y2274D02*
X7Y2274D01*
X3929Y2274D02*
X3936Y2274D01*
X0Y2273D02*
X7Y2273D01*
X3929Y2273D02*
X3936Y2273D01*
X0Y2272D02*
X7Y2272D01*
X3929Y2272D02*
X3936Y2272D01*
X0Y2271D02*
X7Y2271D01*
X3929Y2271D02*
X3936Y2271D01*
X0Y2270D02*
X7Y2270D01*
X3929Y2270D02*
X3936Y2270D01*
X0Y2269D02*
X7Y2269D01*
X3929Y2269D02*
X3936Y2269D01*
X0Y2268D02*
X7Y2268D01*
X3929Y2268D02*
X3936Y2268D01*
X0Y2267D02*
X7Y2267D01*
X3929Y2267D02*
X3936Y2267D01*
X0Y2266D02*
X7Y2266D01*
X3929Y2266D02*
X3936Y2266D01*
X0Y2265D02*
X7Y2265D01*
X3929Y2265D02*
X3936Y2265D01*
X0Y2264D02*
X7Y2264D01*
X3929Y2264D02*
X3936Y2264D01*
X0Y2263D02*
X7Y2263D01*
X3929Y2263D02*
X3936Y2263D01*
X0Y2262D02*
X7Y2262D01*
X3929Y2262D02*
X3936Y2262D01*
X0Y2261D02*
X7Y2261D01*
X3929Y2261D02*
X3936Y2261D01*
X0Y2260D02*
X7Y2260D01*
X3929Y2260D02*
X3936Y2260D01*
X0Y2259D02*
X7Y2259D01*
X3929Y2259D02*
X3936Y2259D01*
X0Y2258D02*
X7Y2258D01*
X3929Y2258D02*
X3936Y2258D01*
X0Y2257D02*
X7Y2257D01*
X3929Y2257D02*
X3936Y2257D01*
X0Y2256D02*
X7Y2256D01*
X3929Y2256D02*
X3936Y2256D01*
X0Y2255D02*
X7Y2255D01*
X3929Y2255D02*
X3936Y2255D01*
X0Y2254D02*
X7Y2254D01*
X3929Y2254D02*
X3936Y2254D01*
X0Y2253D02*
X7Y2253D01*
X3929Y2253D02*
X3936Y2253D01*
X0Y2252D02*
X7Y2252D01*
X3929Y2252D02*
X3936Y2252D01*
X0Y2251D02*
X7Y2251D01*
X3929Y2251D02*
X3936Y2251D01*
X0Y2250D02*
X7Y2250D01*
X3929Y2250D02*
X3936Y2250D01*
X0Y2249D02*
X7Y2249D01*
X3929Y2249D02*
X3936Y2249D01*
X0Y2248D02*
X7Y2248D01*
X3929Y2248D02*
X3936Y2248D01*
X0Y2247D02*
X7Y2247D01*
X3929Y2247D02*
X3936Y2247D01*
X0Y2246D02*
X7Y2246D01*
X3929Y2246D02*
X3936Y2246D01*
X0Y2245D02*
X7Y2245D01*
X3929Y2245D02*
X3936Y2245D01*
X0Y2244D02*
X7Y2244D01*
X3929Y2244D02*
X3936Y2244D01*
X0Y2243D02*
X7Y2243D01*
X3929Y2243D02*
X3936Y2243D01*
X0Y2242D02*
X7Y2242D01*
X3929Y2242D02*
X3936Y2242D01*
X0Y2241D02*
X7Y2241D01*
X3929Y2241D02*
X3936Y2241D01*
X0Y2240D02*
X7Y2240D01*
X3929Y2240D02*
X3936Y2240D01*
X0Y2239D02*
X7Y2239D01*
X3929Y2239D02*
X3936Y2239D01*
X0Y2238D02*
X7Y2238D01*
X3929Y2238D02*
X3936Y2238D01*
X0Y2237D02*
X7Y2237D01*
X3929Y2237D02*
X3936Y2237D01*
X0Y2236D02*
X7Y2236D01*
X3929Y2236D02*
X3936Y2236D01*
X0Y2235D02*
X7Y2235D01*
X3929Y2235D02*
X3936Y2235D01*
X0Y2234D02*
X7Y2234D01*
X3929Y2234D02*
X3936Y2234D01*
X0Y2233D02*
X7Y2233D01*
X3929Y2233D02*
X3936Y2233D01*
X0Y2232D02*
X7Y2232D01*
X3929Y2232D02*
X3936Y2232D01*
X0Y2231D02*
X7Y2231D01*
X3929Y2231D02*
X3936Y2231D01*
X0Y2230D02*
X7Y2230D01*
X3929Y2230D02*
X3936Y2230D01*
X0Y2229D02*
X7Y2229D01*
X3929Y2229D02*
X3936Y2229D01*
X0Y2228D02*
X7Y2228D01*
X3929Y2228D02*
X3936Y2228D01*
X0Y2227D02*
X7Y2227D01*
X3929Y2227D02*
X3936Y2227D01*
X0Y2226D02*
X7Y2226D01*
X3929Y2226D02*
X3936Y2226D01*
X0Y2225D02*
X7Y2225D01*
X3929Y2225D02*
X3936Y2225D01*
X0Y2224D02*
X7Y2224D01*
X3929Y2224D02*
X3936Y2224D01*
X0Y2223D02*
X7Y2223D01*
X3929Y2223D02*
X3936Y2223D01*
X0Y2222D02*
X7Y2222D01*
X3929Y2222D02*
X3936Y2222D01*
X0Y2221D02*
X7Y2221D01*
X3929Y2221D02*
X3936Y2221D01*
X0Y2220D02*
X7Y2220D01*
X3929Y2220D02*
X3936Y2220D01*
X0Y2219D02*
X7Y2219D01*
X3929Y2219D02*
X3936Y2219D01*
X0Y2218D02*
X7Y2218D01*
X3929Y2218D02*
X3936Y2218D01*
X0Y2217D02*
X7Y2217D01*
X3929Y2217D02*
X3936Y2217D01*
X0Y2216D02*
X7Y2216D01*
X3929Y2216D02*
X3936Y2216D01*
X0Y2215D02*
X7Y2215D01*
X3929Y2215D02*
X3936Y2215D01*
X0Y2214D02*
X7Y2214D01*
X3929Y2214D02*
X3936Y2214D01*
X0Y2213D02*
X7Y2213D01*
X3929Y2213D02*
X3936Y2213D01*
X0Y2212D02*
X7Y2212D01*
X3929Y2212D02*
X3936Y2212D01*
X0Y2211D02*
X7Y2211D01*
X3929Y2211D02*
X3936Y2211D01*
X0Y2210D02*
X7Y2210D01*
X3929Y2210D02*
X3936Y2210D01*
X0Y2209D02*
X7Y2209D01*
X3929Y2209D02*
X3936Y2209D01*
X0Y2208D02*
X7Y2208D01*
X3929Y2208D02*
X3936Y2208D01*
X0Y2207D02*
X7Y2207D01*
X3929Y2207D02*
X3936Y2207D01*
X0Y2206D02*
X7Y2206D01*
X3929Y2206D02*
X3936Y2206D01*
X0Y2205D02*
X7Y2205D01*
X3929Y2205D02*
X3936Y2205D01*
X0Y2204D02*
X7Y2204D01*
X3929Y2204D02*
X3936Y2204D01*
X0Y2203D02*
X7Y2203D01*
X3929Y2203D02*
X3936Y2203D01*
X0Y2202D02*
X7Y2202D01*
X3929Y2202D02*
X3936Y2202D01*
X0Y2201D02*
X7Y2201D01*
X3929Y2201D02*
X3936Y2201D01*
X0Y2200D02*
X7Y2200D01*
X3929Y2200D02*
X3936Y2200D01*
X0Y2199D02*
X7Y2199D01*
X3929Y2199D02*
X3936Y2199D01*
X0Y2198D02*
X7Y2198D01*
X3929Y2198D02*
X3936Y2198D01*
X0Y2197D02*
X7Y2197D01*
X3929Y2197D02*
X3936Y2197D01*
X0Y2196D02*
X7Y2196D01*
X3929Y2196D02*
X3936Y2196D01*
X0Y2195D02*
X7Y2195D01*
X3929Y2195D02*
X3936Y2195D01*
X0Y2194D02*
X7Y2194D01*
X3929Y2194D02*
X3936Y2194D01*
X0Y2193D02*
X7Y2193D01*
X3929Y2193D02*
X3936Y2193D01*
X0Y2192D02*
X7Y2192D01*
X3929Y2192D02*
X3936Y2192D01*
X0Y2191D02*
X7Y2191D01*
X3929Y2191D02*
X3936Y2191D01*
X0Y2190D02*
X7Y2190D01*
X3929Y2190D02*
X3936Y2190D01*
X0Y2189D02*
X7Y2189D01*
X3929Y2189D02*
X3936Y2189D01*
X0Y2188D02*
X7Y2188D01*
X3929Y2188D02*
X3936Y2188D01*
X0Y2187D02*
X7Y2187D01*
X3929Y2187D02*
X3936Y2187D01*
X0Y2186D02*
X7Y2186D01*
X3929Y2186D02*
X3936Y2186D01*
X0Y2185D02*
X7Y2185D01*
X3929Y2185D02*
X3936Y2185D01*
X0Y2184D02*
X7Y2184D01*
X3929Y2184D02*
X3936Y2184D01*
X0Y2183D02*
X7Y2183D01*
X3929Y2183D02*
X3936Y2183D01*
X0Y2182D02*
X7Y2182D01*
X3929Y2182D02*
X3936Y2182D01*
X0Y2181D02*
X7Y2181D01*
X3929Y2181D02*
X3936Y2181D01*
X0Y2180D02*
X7Y2180D01*
X3929Y2180D02*
X3936Y2180D01*
X0Y2179D02*
X7Y2179D01*
X3929Y2179D02*
X3936Y2179D01*
X0Y2178D02*
X7Y2178D01*
X3929Y2178D02*
X3936Y2178D01*
X0Y2177D02*
X7Y2177D01*
X3929Y2177D02*
X3936Y2177D01*
X0Y2176D02*
X7Y2176D01*
X3929Y2176D02*
X3936Y2176D01*
X0Y2175D02*
X7Y2175D01*
X3929Y2175D02*
X3936Y2175D01*
X0Y2174D02*
X7Y2174D01*
X3929Y2174D02*
X3936Y2174D01*
X0Y2173D02*
X7Y2173D01*
X3929Y2173D02*
X3936Y2173D01*
X0Y2172D02*
X7Y2172D01*
X3929Y2172D02*
X3936Y2172D01*
X0Y2171D02*
X7Y2171D01*
X3929Y2171D02*
X3936Y2171D01*
X0Y2170D02*
X7Y2170D01*
X3929Y2170D02*
X3936Y2170D01*
X0Y2169D02*
X7Y2169D01*
X3929Y2169D02*
X3936Y2169D01*
X0Y2168D02*
X7Y2168D01*
X3929Y2168D02*
X3936Y2168D01*
X0Y2167D02*
X7Y2167D01*
X3929Y2167D02*
X3936Y2167D01*
X0Y2166D02*
X7Y2166D01*
X3929Y2166D02*
X3936Y2166D01*
X0Y2165D02*
X7Y2165D01*
X3929Y2165D02*
X3936Y2165D01*
X0Y2164D02*
X7Y2164D01*
X3929Y2164D02*
X3936Y2164D01*
X0Y2163D02*
X7Y2163D01*
X3929Y2163D02*
X3936Y2163D01*
X0Y2162D02*
X7Y2162D01*
X3929Y2162D02*
X3936Y2162D01*
X0Y2161D02*
X7Y2161D01*
X3929Y2161D02*
X3936Y2161D01*
X0Y2160D02*
X7Y2160D01*
X3929Y2160D02*
X3936Y2160D01*
X0Y2159D02*
X7Y2159D01*
X3929Y2159D02*
X3936Y2159D01*
X0Y2158D02*
X7Y2158D01*
X3929Y2158D02*
X3936Y2158D01*
X0Y2157D02*
X7Y2157D01*
X3929Y2157D02*
X3936Y2157D01*
X0Y2156D02*
X7Y2156D01*
X3929Y2156D02*
X3936Y2156D01*
X0Y2155D02*
X7Y2155D01*
X3929Y2155D02*
X3936Y2155D01*
X0Y2154D02*
X7Y2154D01*
X3929Y2154D02*
X3936Y2154D01*
X0Y2153D02*
X7Y2153D01*
X3929Y2153D02*
X3936Y2153D01*
X0Y2152D02*
X7Y2152D01*
X3929Y2152D02*
X3936Y2152D01*
X0Y2151D02*
X7Y2151D01*
X3929Y2151D02*
X3936Y2151D01*
X0Y2150D02*
X7Y2150D01*
X3929Y2150D02*
X3936Y2150D01*
X0Y2149D02*
X7Y2149D01*
X3929Y2149D02*
X3936Y2149D01*
X0Y2148D02*
X7Y2148D01*
X3929Y2148D02*
X3936Y2148D01*
X0Y2147D02*
X7Y2147D01*
X3929Y2147D02*
X3936Y2147D01*
X0Y2146D02*
X7Y2146D01*
X3929Y2146D02*
X3936Y2146D01*
X0Y2145D02*
X7Y2145D01*
X3929Y2145D02*
X3936Y2145D01*
X0Y2144D02*
X7Y2144D01*
X3929Y2144D02*
X3936Y2144D01*
X0Y2143D02*
X7Y2143D01*
X3929Y2143D02*
X3936Y2143D01*
X0Y2142D02*
X7Y2142D01*
X3929Y2142D02*
X3936Y2142D01*
X0Y2141D02*
X7Y2141D01*
X3929Y2141D02*
X3936Y2141D01*
X0Y2140D02*
X7Y2140D01*
X3929Y2140D02*
X3936Y2140D01*
X0Y2139D02*
X7Y2139D01*
X3929Y2139D02*
X3936Y2139D01*
X0Y2138D02*
X7Y2138D01*
X3929Y2138D02*
X3936Y2138D01*
X0Y2137D02*
X7Y2137D01*
X3929Y2137D02*
X3936Y2137D01*
X0Y2136D02*
X7Y2136D01*
X3929Y2136D02*
X3936Y2136D01*
X0Y2135D02*
X7Y2135D01*
X3929Y2135D02*
X3936Y2135D01*
X0Y2134D02*
X7Y2134D01*
X3929Y2134D02*
X3936Y2134D01*
X0Y2133D02*
X7Y2133D01*
X3929Y2133D02*
X3936Y2133D01*
X0Y2132D02*
X7Y2132D01*
X3929Y2132D02*
X3936Y2132D01*
X0Y2131D02*
X7Y2131D01*
X3929Y2131D02*
X3936Y2131D01*
X0Y2130D02*
X7Y2130D01*
X3929Y2130D02*
X3936Y2130D01*
X0Y2129D02*
X7Y2129D01*
X3929Y2129D02*
X3936Y2129D01*
X0Y2128D02*
X7Y2128D01*
X3929Y2128D02*
X3936Y2128D01*
X0Y2127D02*
X7Y2127D01*
X3929Y2127D02*
X3936Y2127D01*
X0Y2126D02*
X7Y2126D01*
X3929Y2126D02*
X3936Y2126D01*
X0Y2125D02*
X7Y2125D01*
X3929Y2125D02*
X3936Y2125D01*
X0Y2124D02*
X7Y2124D01*
X3929Y2124D02*
X3936Y2124D01*
X0Y2123D02*
X7Y2123D01*
X3929Y2123D02*
X3936Y2123D01*
X0Y2122D02*
X7Y2122D01*
X3929Y2122D02*
X3936Y2122D01*
X0Y2121D02*
X7Y2121D01*
X3929Y2121D02*
X3936Y2121D01*
X0Y2120D02*
X7Y2120D01*
X3929Y2120D02*
X3936Y2120D01*
X0Y2119D02*
X7Y2119D01*
X3929Y2119D02*
X3936Y2119D01*
X0Y2118D02*
X7Y2118D01*
X3929Y2118D02*
X3936Y2118D01*
X0Y2117D02*
X7Y2117D01*
X3929Y2117D02*
X3936Y2117D01*
X0Y2116D02*
X7Y2116D01*
X3929Y2116D02*
X3936Y2116D01*
X0Y2115D02*
X7Y2115D01*
X3929Y2115D02*
X3936Y2115D01*
X0Y2114D02*
X7Y2114D01*
X3929Y2114D02*
X3936Y2114D01*
X0Y2113D02*
X7Y2113D01*
X3929Y2113D02*
X3936Y2113D01*
X0Y2112D02*
X7Y2112D01*
X3929Y2112D02*
X3936Y2112D01*
X0Y2111D02*
X7Y2111D01*
X3929Y2111D02*
X3936Y2111D01*
X0Y2110D02*
X7Y2110D01*
X3929Y2110D02*
X3936Y2110D01*
X0Y2109D02*
X7Y2109D01*
X3929Y2109D02*
X3936Y2109D01*
X0Y2108D02*
X7Y2108D01*
X3929Y2108D02*
X3936Y2108D01*
X0Y2107D02*
X7Y2107D01*
X3929Y2107D02*
X3936Y2107D01*
X0Y2106D02*
X7Y2106D01*
X3929Y2106D02*
X3936Y2106D01*
X0Y2105D02*
X7Y2105D01*
X3929Y2105D02*
X3936Y2105D01*
X0Y2104D02*
X7Y2104D01*
X3929Y2104D02*
X3936Y2104D01*
X0Y2103D02*
X7Y2103D01*
X3929Y2103D02*
X3936Y2103D01*
X0Y2102D02*
X7Y2102D01*
X3929Y2102D02*
X3936Y2102D01*
X0Y2101D02*
X7Y2101D01*
X3929Y2101D02*
X3936Y2101D01*
X0Y2100D02*
X7Y2100D01*
X3929Y2100D02*
X3936Y2100D01*
X0Y2099D02*
X7Y2099D01*
X3929Y2099D02*
X3936Y2099D01*
X0Y2098D02*
X7Y2098D01*
X3929Y2098D02*
X3936Y2098D01*
X0Y2097D02*
X7Y2097D01*
X3929Y2097D02*
X3936Y2097D01*
X0Y2096D02*
X7Y2096D01*
X3929Y2096D02*
X3936Y2096D01*
X0Y2095D02*
X7Y2095D01*
X3929Y2095D02*
X3936Y2095D01*
X0Y2094D02*
X7Y2094D01*
X3929Y2094D02*
X3936Y2094D01*
X0Y2093D02*
X7Y2093D01*
X3929Y2093D02*
X3936Y2093D01*
X0Y2092D02*
X7Y2092D01*
X3929Y2092D02*
X3936Y2092D01*
X0Y2091D02*
X7Y2091D01*
X3929Y2091D02*
X3936Y2091D01*
X0Y2090D02*
X7Y2090D01*
X3929Y2090D02*
X3936Y2090D01*
X0Y2089D02*
X7Y2089D01*
X3929Y2089D02*
X3936Y2089D01*
X0Y2088D02*
X7Y2088D01*
X3929Y2088D02*
X3936Y2088D01*
X0Y2087D02*
X7Y2087D01*
X3929Y2087D02*
X3936Y2087D01*
X0Y2086D02*
X7Y2086D01*
X3929Y2086D02*
X3936Y2086D01*
X0Y2085D02*
X7Y2085D01*
X3929Y2085D02*
X3936Y2085D01*
X0Y2084D02*
X7Y2084D01*
X3929Y2084D02*
X3936Y2084D01*
X0Y2083D02*
X7Y2083D01*
X3929Y2083D02*
X3936Y2083D01*
X0Y2082D02*
X7Y2082D01*
X3929Y2082D02*
X3936Y2082D01*
X0Y2081D02*
X7Y2081D01*
X3929Y2081D02*
X3936Y2081D01*
X0Y2080D02*
X7Y2080D01*
X3929Y2080D02*
X3936Y2080D01*
X0Y2079D02*
X7Y2079D01*
X3929Y2079D02*
X3936Y2079D01*
X0Y2078D02*
X7Y2078D01*
X3929Y2078D02*
X3936Y2078D01*
X0Y2077D02*
X7Y2077D01*
X3929Y2077D02*
X3936Y2077D01*
X0Y2076D02*
X7Y2076D01*
X3929Y2076D02*
X3936Y2076D01*
X0Y2075D02*
X7Y2075D01*
X3929Y2075D02*
X3936Y2075D01*
X0Y2074D02*
X7Y2074D01*
X3929Y2074D02*
X3936Y2074D01*
X0Y2073D02*
X7Y2073D01*
X3929Y2073D02*
X3936Y2073D01*
X0Y2072D02*
X7Y2072D01*
X3929Y2072D02*
X3936Y2072D01*
X0Y2071D02*
X7Y2071D01*
X3929Y2071D02*
X3936Y2071D01*
X0Y2070D02*
X7Y2070D01*
X3929Y2070D02*
X3936Y2070D01*
X0Y2069D02*
X7Y2069D01*
X3929Y2069D02*
X3936Y2069D01*
X0Y2068D02*
X7Y2068D01*
X3929Y2068D02*
X3936Y2068D01*
X0Y2067D02*
X7Y2067D01*
X3929Y2067D02*
X3936Y2067D01*
X0Y2066D02*
X7Y2066D01*
X3929Y2066D02*
X3936Y2066D01*
X0Y2065D02*
X7Y2065D01*
X3929Y2065D02*
X3936Y2065D01*
X0Y2064D02*
X7Y2064D01*
X3929Y2064D02*
X3936Y2064D01*
X0Y2063D02*
X7Y2063D01*
X3929Y2063D02*
X3936Y2063D01*
X0Y2062D02*
X7Y2062D01*
X3929Y2062D02*
X3936Y2062D01*
X0Y2061D02*
X7Y2061D01*
X3929Y2061D02*
X3936Y2061D01*
X0Y2060D02*
X7Y2060D01*
X3929Y2060D02*
X3936Y2060D01*
X0Y2059D02*
X7Y2059D01*
X3929Y2059D02*
X3936Y2059D01*
X0Y2058D02*
X7Y2058D01*
X3929Y2058D02*
X3936Y2058D01*
X0Y2057D02*
X7Y2057D01*
X3929Y2057D02*
X3936Y2057D01*
X0Y2056D02*
X7Y2056D01*
X3929Y2056D02*
X3936Y2056D01*
X0Y2055D02*
X7Y2055D01*
X3929Y2055D02*
X3936Y2055D01*
X0Y2054D02*
X7Y2054D01*
X3929Y2054D02*
X3936Y2054D01*
X0Y2053D02*
X7Y2053D01*
X3929Y2053D02*
X3936Y2053D01*
X0Y2052D02*
X7Y2052D01*
X3929Y2052D02*
X3936Y2052D01*
X0Y2051D02*
X7Y2051D01*
X3929Y2051D02*
X3936Y2051D01*
X0Y2050D02*
X7Y2050D01*
X3929Y2050D02*
X3936Y2050D01*
X0Y2049D02*
X7Y2049D01*
X3929Y2049D02*
X3936Y2049D01*
X0Y2048D02*
X7Y2048D01*
X3929Y2048D02*
X3936Y2048D01*
X0Y2047D02*
X7Y2047D01*
X3929Y2047D02*
X3936Y2047D01*
X0Y2046D02*
X7Y2046D01*
X3929Y2046D02*
X3936Y2046D01*
X0Y2045D02*
X7Y2045D01*
X3929Y2045D02*
X3936Y2045D01*
X0Y2044D02*
X7Y2044D01*
X3929Y2044D02*
X3936Y2044D01*
X0Y2043D02*
X7Y2043D01*
X3929Y2043D02*
X3936Y2043D01*
X0Y2042D02*
X7Y2042D01*
X3929Y2042D02*
X3936Y2042D01*
X0Y2041D02*
X7Y2041D01*
X3929Y2041D02*
X3936Y2041D01*
X0Y2040D02*
X7Y2040D01*
X3929Y2040D02*
X3936Y2040D01*
X0Y2039D02*
X7Y2039D01*
X3929Y2039D02*
X3936Y2039D01*
X0Y2038D02*
X7Y2038D01*
X3929Y2038D02*
X3936Y2038D01*
X0Y2037D02*
X7Y2037D01*
X3929Y2037D02*
X3936Y2037D01*
X0Y2036D02*
X7Y2036D01*
X3929Y2036D02*
X3936Y2036D01*
X0Y2035D02*
X7Y2035D01*
X3929Y2035D02*
X3936Y2035D01*
X0Y2034D02*
X7Y2034D01*
X3929Y2034D02*
X3936Y2034D01*
X0Y2033D02*
X7Y2033D01*
X3929Y2033D02*
X3936Y2033D01*
X0Y2032D02*
X7Y2032D01*
X3929Y2032D02*
X3936Y2032D01*
X0Y2031D02*
X7Y2031D01*
X3929Y2031D02*
X3936Y2031D01*
X0Y2030D02*
X7Y2030D01*
X3929Y2030D02*
X3936Y2030D01*
X0Y2029D02*
X7Y2029D01*
X3929Y2029D02*
X3936Y2029D01*
X0Y2028D02*
X7Y2028D01*
X3929Y2028D02*
X3936Y2028D01*
X0Y2027D02*
X7Y2027D01*
X3929Y2027D02*
X3936Y2027D01*
X0Y2026D02*
X7Y2026D01*
X3929Y2026D02*
X3936Y2026D01*
X0Y2025D02*
X7Y2025D01*
X3929Y2025D02*
X3936Y2025D01*
X0Y2024D02*
X7Y2024D01*
X3929Y2024D02*
X3936Y2024D01*
X0Y2023D02*
X7Y2023D01*
X3929Y2023D02*
X3936Y2023D01*
X0Y2022D02*
X7Y2022D01*
X3929Y2022D02*
X3936Y2022D01*
X0Y2021D02*
X7Y2021D01*
X3929Y2021D02*
X3936Y2021D01*
X0Y2020D02*
X7Y2020D01*
X3929Y2020D02*
X3936Y2020D01*
X0Y2019D02*
X7Y2019D01*
X3929Y2019D02*
X3936Y2019D01*
X0Y2018D02*
X7Y2018D01*
X3929Y2018D02*
X3936Y2018D01*
X0Y2017D02*
X7Y2017D01*
X3929Y2017D02*
X3936Y2017D01*
X0Y2016D02*
X7Y2016D01*
X3929Y2016D02*
X3936Y2016D01*
X0Y2015D02*
X7Y2015D01*
X3929Y2015D02*
X3936Y2015D01*
X0Y2014D02*
X7Y2014D01*
X3929Y2014D02*
X3936Y2014D01*
X0Y2013D02*
X7Y2013D01*
X3929Y2013D02*
X3936Y2013D01*
X0Y2012D02*
X7Y2012D01*
X3929Y2012D02*
X3936Y2012D01*
X0Y2011D02*
X7Y2011D01*
X3929Y2011D02*
X3936Y2011D01*
X0Y2010D02*
X7Y2010D01*
X3929Y2010D02*
X3936Y2010D01*
X0Y2009D02*
X7Y2009D01*
X3929Y2009D02*
X3936Y2009D01*
X0Y2008D02*
X7Y2008D01*
X3929Y2008D02*
X3936Y2008D01*
X0Y2007D02*
X7Y2007D01*
X3929Y2007D02*
X3936Y2007D01*
X0Y2006D02*
X7Y2006D01*
X3929Y2006D02*
X3936Y2006D01*
X0Y2005D02*
X7Y2005D01*
X3929Y2005D02*
X3936Y2005D01*
X0Y2004D02*
X7Y2004D01*
X3929Y2004D02*
X3936Y2004D01*
X0Y2003D02*
X7Y2003D01*
X3929Y2003D02*
X3936Y2003D01*
X0Y2002D02*
X7Y2002D01*
X3929Y2002D02*
X3936Y2002D01*
X0Y2001D02*
X7Y2001D01*
X3929Y2001D02*
X3936Y2001D01*
X0Y2000D02*
X7Y2000D01*
X3929Y2000D02*
X3936Y2000D01*
X0Y1999D02*
X7Y1999D01*
X3929Y1999D02*
X3936Y1999D01*
X0Y1998D02*
X7Y1998D01*
X3929Y1998D02*
X3936Y1998D01*
X0Y1997D02*
X7Y1997D01*
X3929Y1997D02*
X3936Y1997D01*
X0Y1996D02*
X7Y1996D01*
X3929Y1996D02*
X3936Y1996D01*
X0Y1995D02*
X7Y1995D01*
X3929Y1995D02*
X3936Y1995D01*
X0Y1994D02*
X7Y1994D01*
X3929Y1994D02*
X3936Y1994D01*
X0Y1993D02*
X7Y1993D01*
X3929Y1993D02*
X3936Y1993D01*
X0Y1992D02*
X7Y1992D01*
X3929Y1992D02*
X3936Y1992D01*
X0Y1991D02*
X7Y1991D01*
X3929Y1991D02*
X3936Y1991D01*
X0Y1990D02*
X7Y1990D01*
X3929Y1990D02*
X3936Y1990D01*
X0Y1989D02*
X7Y1989D01*
X3929Y1989D02*
X3936Y1989D01*
X0Y1988D02*
X7Y1988D01*
X3929Y1988D02*
X3936Y1988D01*
X0Y1987D02*
X7Y1987D01*
X3929Y1987D02*
X3936Y1987D01*
X0Y1986D02*
X7Y1986D01*
X3929Y1986D02*
X3936Y1986D01*
X0Y1985D02*
X7Y1985D01*
X3929Y1985D02*
X3936Y1985D01*
X0Y1984D02*
X7Y1984D01*
X3929Y1984D02*
X3936Y1984D01*
X0Y1983D02*
X7Y1983D01*
X3929Y1983D02*
X3936Y1983D01*
X0Y1982D02*
X7Y1982D01*
X3929Y1982D02*
X3936Y1982D01*
X0Y1981D02*
X7Y1981D01*
X3929Y1981D02*
X3936Y1981D01*
X0Y1980D02*
X7Y1980D01*
X3929Y1980D02*
X3936Y1980D01*
X0Y1979D02*
X7Y1979D01*
X3929Y1979D02*
X3936Y1979D01*
X0Y1978D02*
X7Y1978D01*
X3929Y1978D02*
X3936Y1978D01*
X0Y1977D02*
X7Y1977D01*
X3929Y1977D02*
X3936Y1977D01*
X0Y1976D02*
X7Y1976D01*
X3929Y1976D02*
X3936Y1976D01*
X0Y1975D02*
X7Y1975D01*
X3929Y1975D02*
X3936Y1975D01*
X0Y1974D02*
X7Y1974D01*
X3929Y1974D02*
X3936Y1974D01*
X0Y1973D02*
X7Y1973D01*
X3929Y1973D02*
X3936Y1973D01*
X0Y1972D02*
X7Y1972D01*
X3929Y1972D02*
X3936Y1972D01*
X0Y1971D02*
X7Y1971D01*
X3929Y1971D02*
X3936Y1971D01*
X0Y1970D02*
X7Y1970D01*
X3929Y1970D02*
X3936Y1970D01*
X0Y1969D02*
X7Y1969D01*
X3929Y1969D02*
X3936Y1969D01*
X0Y1968D02*
X7Y1968D01*
X3929Y1968D02*
X3936Y1968D01*
X0Y1967D02*
X7Y1967D01*
X3929Y1967D02*
X3936Y1967D01*
X0Y1966D02*
X7Y1966D01*
X3929Y1966D02*
X3936Y1966D01*
X0Y1965D02*
X7Y1965D01*
X3929Y1965D02*
X3936Y1965D01*
X0Y1964D02*
X7Y1964D01*
X3929Y1964D02*
X3936Y1964D01*
X0Y1963D02*
X7Y1963D01*
X3929Y1963D02*
X3936Y1963D01*
X0Y1962D02*
X7Y1962D01*
X3929Y1962D02*
X3936Y1962D01*
X0Y1961D02*
X7Y1961D01*
X3929Y1961D02*
X3936Y1961D01*
X0Y1960D02*
X7Y1960D01*
X3929Y1960D02*
X3936Y1960D01*
X0Y1959D02*
X7Y1959D01*
X3929Y1959D02*
X3936Y1959D01*
X0Y1958D02*
X7Y1958D01*
X3929Y1958D02*
X3936Y1958D01*
X0Y1957D02*
X7Y1957D01*
X3929Y1957D02*
X3936Y1957D01*
X0Y1956D02*
X7Y1956D01*
X3929Y1956D02*
X3936Y1956D01*
X0Y1955D02*
X7Y1955D01*
X3929Y1955D02*
X3936Y1955D01*
X0Y1954D02*
X7Y1954D01*
X3929Y1954D02*
X3936Y1954D01*
X0Y1953D02*
X7Y1953D01*
X3929Y1953D02*
X3936Y1953D01*
X0Y1952D02*
X7Y1952D01*
X3929Y1952D02*
X3936Y1952D01*
X0Y1951D02*
X7Y1951D01*
X3929Y1951D02*
X3936Y1951D01*
X0Y1950D02*
X7Y1950D01*
X3929Y1950D02*
X3936Y1950D01*
X0Y1949D02*
X7Y1949D01*
X3929Y1949D02*
X3936Y1949D01*
X0Y1948D02*
X7Y1948D01*
X3929Y1948D02*
X3936Y1948D01*
X0Y1947D02*
X7Y1947D01*
X3929Y1947D02*
X3936Y1947D01*
X0Y1946D02*
X7Y1946D01*
X3929Y1946D02*
X3936Y1946D01*
X0Y1945D02*
X7Y1945D01*
X3929Y1945D02*
X3936Y1945D01*
X0Y1944D02*
X7Y1944D01*
X3929Y1944D02*
X3936Y1944D01*
X0Y1943D02*
X7Y1943D01*
X3929Y1943D02*
X3936Y1943D01*
X0Y1942D02*
X7Y1942D01*
X3929Y1942D02*
X3936Y1942D01*
X0Y1941D02*
X7Y1941D01*
X3929Y1941D02*
X3936Y1941D01*
X0Y1940D02*
X7Y1940D01*
X3929Y1940D02*
X3936Y1940D01*
X0Y1939D02*
X7Y1939D01*
X3929Y1939D02*
X3936Y1939D01*
X0Y1938D02*
X7Y1938D01*
X3929Y1938D02*
X3936Y1938D01*
X0Y1937D02*
X7Y1937D01*
X3929Y1937D02*
X3936Y1937D01*
X0Y1936D02*
X7Y1936D01*
X3929Y1936D02*
X3936Y1936D01*
X0Y1935D02*
X7Y1935D01*
X3929Y1935D02*
X3936Y1935D01*
X0Y1934D02*
X7Y1934D01*
X3929Y1934D02*
X3936Y1934D01*
X0Y1933D02*
X7Y1933D01*
X804Y1933D02*
X824Y1933D01*
X888Y1933D02*
X907Y1933D01*
X3929Y1933D02*
X3936Y1933D01*
X0Y1932D02*
X7Y1932D01*
X804Y1932D02*
X822Y1932D01*
X890Y1932D02*
X908Y1932D01*
X3929Y1932D02*
X3936Y1932D01*
X0Y1931D02*
X7Y1931D01*
X804Y1931D02*
X820Y1931D01*
X891Y1931D02*
X908Y1931D01*
X3929Y1931D02*
X3936Y1931D01*
X0Y1930D02*
X7Y1930D01*
X804Y1930D02*
X819Y1930D01*
X893Y1930D02*
X908Y1930D01*
X3929Y1930D02*
X3936Y1930D01*
X0Y1929D02*
X7Y1929D01*
X804Y1929D02*
X817Y1929D01*
X894Y1929D02*
X908Y1929D01*
X3929Y1929D02*
X3936Y1929D01*
X0Y1928D02*
X7Y1928D01*
X804Y1928D02*
X808Y1928D01*
X904Y1928D02*
X908Y1928D01*
X3929Y1928D02*
X3936Y1928D01*
X0Y1927D02*
X7Y1927D01*
X804Y1927D02*
X808Y1927D01*
X904Y1927D02*
X908Y1927D01*
X3929Y1927D02*
X3936Y1927D01*
X0Y1926D02*
X7Y1926D01*
X804Y1926D02*
X808Y1926D01*
X904Y1926D02*
X908Y1926D01*
X3929Y1926D02*
X3936Y1926D01*
X0Y1925D02*
X7Y1925D01*
X804Y1925D02*
X808Y1925D01*
X904Y1925D02*
X908Y1925D01*
X3929Y1925D02*
X3936Y1925D01*
X0Y1924D02*
X7Y1924D01*
X804Y1924D02*
X808Y1924D01*
X904Y1924D02*
X908Y1924D01*
X3929Y1924D02*
X3936Y1924D01*
X0Y1923D02*
X7Y1923D01*
X804Y1923D02*
X808Y1923D01*
X904Y1923D02*
X908Y1923D01*
X3929Y1923D02*
X3936Y1923D01*
X0Y1922D02*
X7Y1922D01*
X804Y1922D02*
X808Y1922D01*
X904Y1922D02*
X908Y1922D01*
X3929Y1922D02*
X3936Y1922D01*
X0Y1921D02*
X7Y1921D01*
X804Y1921D02*
X808Y1921D01*
X904Y1921D02*
X908Y1921D01*
X3929Y1921D02*
X3936Y1921D01*
X0Y1920D02*
X7Y1920D01*
X804Y1920D02*
X807Y1920D01*
X904Y1920D02*
X908Y1920D01*
X3929Y1920D02*
X3936Y1920D01*
X0Y1919D02*
X7Y1919D01*
X804Y1919D02*
X806Y1919D01*
X905Y1919D02*
X908Y1919D01*
X3929Y1919D02*
X3936Y1919D01*
X0Y1918D02*
X7Y1918D01*
X804Y1918D02*
X806Y1918D01*
X906Y1918D02*
X908Y1918D01*
X3929Y1918D02*
X3936Y1918D01*
X0Y1917D02*
X7Y1917D01*
X804Y1917D02*
X805Y1917D01*
X906Y1917D02*
X908Y1917D01*
X3929Y1917D02*
X3936Y1917D01*
X0Y1916D02*
X7Y1916D01*
X804Y1916D02*
X804Y1916D01*
X907Y1916D02*
X908Y1916D01*
X3929Y1916D02*
X3936Y1916D01*
X0Y1915D02*
X7Y1915D01*
X908Y1915D02*
X908Y1915D01*
X3929Y1915D02*
X3936Y1915D01*
X0Y1914D02*
X7Y1914D01*
X3929Y1914D02*
X3936Y1914D01*
X0Y1913D02*
X7Y1913D01*
X3929Y1913D02*
X3936Y1913D01*
X0Y1912D02*
X7Y1912D01*
X3929Y1912D02*
X3936Y1912D01*
X0Y1911D02*
X7Y1911D01*
X3929Y1911D02*
X3936Y1911D01*
X0Y1910D02*
X7Y1910D01*
X3929Y1910D02*
X3936Y1910D01*
X0Y1909D02*
X7Y1909D01*
X3929Y1909D02*
X3936Y1909D01*
X0Y1908D02*
X7Y1908D01*
X3929Y1908D02*
X3936Y1908D01*
X0Y1907D02*
X7Y1907D01*
X3929Y1907D02*
X3936Y1907D01*
X0Y1906D02*
X7Y1906D01*
X3929Y1906D02*
X3936Y1906D01*
X0Y1905D02*
X7Y1905D01*
X3929Y1905D02*
X3936Y1905D01*
X0Y1904D02*
X7Y1904D01*
X3929Y1904D02*
X3936Y1904D01*
X0Y1903D02*
X7Y1903D01*
X3929Y1903D02*
X3936Y1903D01*
X0Y1902D02*
X7Y1902D01*
X3929Y1902D02*
X3936Y1902D01*
X0Y1901D02*
X7Y1901D01*
X3929Y1901D02*
X3936Y1901D01*
X0Y1900D02*
X7Y1900D01*
X3929Y1900D02*
X3936Y1900D01*
X0Y1899D02*
X7Y1899D01*
X3929Y1899D02*
X3936Y1899D01*
X0Y1898D02*
X7Y1898D01*
X3929Y1898D02*
X3936Y1898D01*
X0Y1897D02*
X7Y1897D01*
X3929Y1897D02*
X3936Y1897D01*
X0Y1896D02*
X7Y1896D01*
X3929Y1896D02*
X3936Y1896D01*
X0Y1895D02*
X7Y1895D01*
X3929Y1895D02*
X3936Y1895D01*
X0Y1894D02*
X7Y1894D01*
X3929Y1894D02*
X3936Y1894D01*
X0Y1893D02*
X7Y1893D01*
X3929Y1893D02*
X3936Y1893D01*
X0Y1892D02*
X7Y1892D01*
X3929Y1892D02*
X3936Y1892D01*
X0Y1891D02*
X7Y1891D01*
X3929Y1891D02*
X3936Y1891D01*
X0Y1890D02*
X7Y1890D01*
X3929Y1890D02*
X3936Y1890D01*
X0Y1889D02*
X7Y1889D01*
X3929Y1889D02*
X3936Y1889D01*
X0Y1888D02*
X7Y1888D01*
X3929Y1888D02*
X3936Y1888D01*
X0Y1887D02*
X7Y1887D01*
X3929Y1887D02*
X3936Y1887D01*
X0Y1886D02*
X7Y1886D01*
X3929Y1886D02*
X3936Y1886D01*
X0Y1885D02*
X7Y1885D01*
X3929Y1885D02*
X3936Y1885D01*
X0Y1884D02*
X7Y1884D01*
X3929Y1884D02*
X3936Y1884D01*
X0Y1883D02*
X7Y1883D01*
X3929Y1883D02*
X3936Y1883D01*
X0Y1882D02*
X7Y1882D01*
X3929Y1882D02*
X3936Y1882D01*
X0Y1881D02*
X7Y1881D01*
X3929Y1881D02*
X3936Y1881D01*
X0Y1880D02*
X7Y1880D01*
X3929Y1880D02*
X3936Y1880D01*
X0Y1879D02*
X7Y1879D01*
X3929Y1879D02*
X3936Y1879D01*
X0Y1878D02*
X7Y1878D01*
X3929Y1878D02*
X3936Y1878D01*
X0Y1877D02*
X7Y1877D01*
X3929Y1877D02*
X3936Y1877D01*
X0Y1876D02*
X7Y1876D01*
X3929Y1876D02*
X3936Y1876D01*
X0Y1875D02*
X7Y1875D01*
X3929Y1875D02*
X3936Y1875D01*
X0Y1874D02*
X7Y1874D01*
X3929Y1874D02*
X3936Y1874D01*
X0Y1873D02*
X7Y1873D01*
X3929Y1873D02*
X3936Y1873D01*
X0Y1872D02*
X7Y1872D01*
X3929Y1872D02*
X3936Y1872D01*
X0Y1871D02*
X7Y1871D01*
X3929Y1871D02*
X3936Y1871D01*
X0Y1870D02*
X7Y1870D01*
X3929Y1870D02*
X3936Y1870D01*
X0Y1869D02*
X7Y1869D01*
X3929Y1869D02*
X3936Y1869D01*
X0Y1868D02*
X7Y1868D01*
X3929Y1868D02*
X3936Y1868D01*
X0Y1867D02*
X7Y1867D01*
X3929Y1867D02*
X3936Y1867D01*
X0Y1866D02*
X7Y1866D01*
X3929Y1866D02*
X3936Y1866D01*
X0Y1865D02*
X7Y1865D01*
X3929Y1865D02*
X3936Y1865D01*
X0Y1864D02*
X7Y1864D01*
X3929Y1864D02*
X3936Y1864D01*
X0Y1863D02*
X7Y1863D01*
X575Y1863D02*
X593Y1863D01*
X613Y1863D02*
X616Y1863D01*
X640Y1863D02*
X643Y1863D01*
X3929Y1863D02*
X3936Y1863D01*
X0Y1862D02*
X7Y1862D01*
X575Y1862D02*
X594Y1862D01*
X612Y1862D02*
X617Y1862D01*
X639Y1862D02*
X644Y1862D01*
X3929Y1862D02*
X3936Y1862D01*
X0Y1861D02*
X7Y1861D01*
X575Y1861D02*
X595Y1861D01*
X611Y1861D02*
X617Y1861D01*
X639Y1861D02*
X645Y1861D01*
X3929Y1861D02*
X3936Y1861D01*
X0Y1860D02*
X7Y1860D01*
X575Y1860D02*
X595Y1860D01*
X611Y1860D02*
X617Y1860D01*
X639Y1860D02*
X645Y1860D01*
X3929Y1860D02*
X3936Y1860D01*
X0Y1859D02*
X7Y1859D01*
X575Y1859D02*
X595Y1859D01*
X611Y1859D02*
X617Y1859D01*
X639Y1859D02*
X645Y1859D01*
X3929Y1859D02*
X3936Y1859D01*
X0Y1858D02*
X7Y1858D01*
X575Y1858D02*
X594Y1858D01*
X611Y1858D02*
X617Y1858D01*
X639Y1858D02*
X645Y1858D01*
X3929Y1858D02*
X3936Y1858D01*
X0Y1857D02*
X7Y1857D01*
X575Y1857D02*
X592Y1857D01*
X611Y1857D02*
X617Y1857D01*
X639Y1857D02*
X645Y1857D01*
X3929Y1857D02*
X3936Y1857D01*
X0Y1856D02*
X7Y1856D01*
X575Y1856D02*
X581Y1856D01*
X611Y1856D02*
X617Y1856D01*
X639Y1856D02*
X645Y1856D01*
X3929Y1856D02*
X3936Y1856D01*
X0Y1855D02*
X7Y1855D01*
X575Y1855D02*
X581Y1855D01*
X611Y1855D02*
X617Y1855D01*
X639Y1855D02*
X645Y1855D01*
X3929Y1855D02*
X3936Y1855D01*
X0Y1854D02*
X7Y1854D01*
X575Y1854D02*
X581Y1854D01*
X611Y1854D02*
X617Y1854D01*
X639Y1854D02*
X645Y1854D01*
X3929Y1854D02*
X3936Y1854D01*
X0Y1853D02*
X7Y1853D01*
X575Y1853D02*
X581Y1853D01*
X611Y1853D02*
X617Y1853D01*
X639Y1853D02*
X645Y1853D01*
X3929Y1853D02*
X3936Y1853D01*
X0Y1852D02*
X7Y1852D01*
X575Y1852D02*
X581Y1852D01*
X611Y1852D02*
X617Y1852D01*
X639Y1852D02*
X645Y1852D01*
X3929Y1852D02*
X3936Y1852D01*
X0Y1851D02*
X7Y1851D01*
X575Y1851D02*
X581Y1851D01*
X611Y1851D02*
X617Y1851D01*
X639Y1851D02*
X645Y1851D01*
X3929Y1851D02*
X3936Y1851D01*
X0Y1850D02*
X7Y1850D01*
X575Y1850D02*
X581Y1850D01*
X611Y1850D02*
X617Y1850D01*
X639Y1850D02*
X645Y1850D01*
X3929Y1850D02*
X3936Y1850D01*
X0Y1849D02*
X7Y1849D01*
X575Y1849D02*
X581Y1849D01*
X611Y1849D02*
X617Y1849D01*
X639Y1849D02*
X645Y1849D01*
X3929Y1849D02*
X3936Y1849D01*
X0Y1848D02*
X7Y1848D01*
X575Y1848D02*
X581Y1848D01*
X611Y1848D02*
X617Y1848D01*
X639Y1848D02*
X645Y1848D01*
X3929Y1848D02*
X3936Y1848D01*
X0Y1847D02*
X7Y1847D01*
X575Y1847D02*
X581Y1847D01*
X611Y1847D02*
X617Y1847D01*
X639Y1847D02*
X645Y1847D01*
X3929Y1847D02*
X3936Y1847D01*
X0Y1846D02*
X7Y1846D01*
X575Y1846D02*
X581Y1846D01*
X611Y1846D02*
X617Y1846D01*
X639Y1846D02*
X645Y1846D01*
X3929Y1846D02*
X3936Y1846D01*
X0Y1845D02*
X7Y1845D01*
X575Y1845D02*
X581Y1845D01*
X611Y1845D02*
X617Y1845D01*
X639Y1845D02*
X645Y1845D01*
X3929Y1845D02*
X3936Y1845D01*
X0Y1844D02*
X7Y1844D01*
X575Y1844D02*
X581Y1844D01*
X611Y1844D02*
X617Y1844D01*
X639Y1844D02*
X645Y1844D01*
X3929Y1844D02*
X3936Y1844D01*
X0Y1843D02*
X7Y1843D01*
X575Y1843D02*
X581Y1843D01*
X611Y1843D02*
X617Y1843D01*
X639Y1843D02*
X645Y1843D01*
X3929Y1843D02*
X3936Y1843D01*
X0Y1842D02*
X7Y1842D01*
X575Y1842D02*
X581Y1842D01*
X611Y1842D02*
X617Y1842D01*
X639Y1842D02*
X645Y1842D01*
X3929Y1842D02*
X3936Y1842D01*
X0Y1841D02*
X7Y1841D01*
X575Y1841D02*
X581Y1841D01*
X611Y1841D02*
X617Y1841D01*
X639Y1841D02*
X645Y1841D01*
X3929Y1841D02*
X3936Y1841D01*
X0Y1840D02*
X7Y1840D01*
X575Y1840D02*
X581Y1840D01*
X611Y1840D02*
X617Y1840D01*
X639Y1840D02*
X645Y1840D01*
X908Y1840D02*
X908Y1840D01*
X3929Y1840D02*
X3936Y1840D01*
X0Y1839D02*
X7Y1839D01*
X575Y1839D02*
X581Y1839D01*
X611Y1839D02*
X617Y1839D01*
X639Y1839D02*
X645Y1839D01*
X804Y1839D02*
X804Y1839D01*
X907Y1839D02*
X908Y1839D01*
X3929Y1839D02*
X3936Y1839D01*
X0Y1838D02*
X7Y1838D01*
X575Y1838D02*
X581Y1838D01*
X611Y1838D02*
X617Y1838D01*
X639Y1838D02*
X645Y1838D01*
X804Y1838D02*
X805Y1838D01*
X907Y1838D02*
X908Y1838D01*
X3929Y1838D02*
X3936Y1838D01*
X0Y1837D02*
X7Y1837D01*
X575Y1837D02*
X581Y1837D01*
X611Y1837D02*
X617Y1837D01*
X639Y1837D02*
X645Y1837D01*
X804Y1837D02*
X806Y1837D01*
X906Y1837D02*
X908Y1837D01*
X3929Y1837D02*
X3936Y1837D01*
X0Y1836D02*
X7Y1836D01*
X575Y1836D02*
X581Y1836D01*
X611Y1836D02*
X617Y1836D01*
X639Y1836D02*
X645Y1836D01*
X804Y1836D02*
X806Y1836D01*
X905Y1836D02*
X908Y1836D01*
X3929Y1836D02*
X3936Y1836D01*
X0Y1835D02*
X7Y1835D01*
X575Y1835D02*
X581Y1835D01*
X611Y1835D02*
X617Y1835D01*
X639Y1835D02*
X645Y1835D01*
X804Y1835D02*
X807Y1835D01*
X904Y1835D02*
X908Y1835D01*
X3929Y1835D02*
X3936Y1835D01*
X0Y1834D02*
X7Y1834D01*
X563Y1834D02*
X565Y1834D01*
X575Y1834D02*
X581Y1834D01*
X611Y1834D02*
X617Y1834D01*
X639Y1834D02*
X645Y1834D01*
X804Y1834D02*
X808Y1834D01*
X904Y1834D02*
X908Y1834D01*
X3929Y1834D02*
X3936Y1834D01*
X0Y1833D02*
X7Y1833D01*
X562Y1833D02*
X566Y1833D01*
X575Y1833D02*
X581Y1833D01*
X611Y1833D02*
X617Y1833D01*
X639Y1833D02*
X645Y1833D01*
X804Y1833D02*
X808Y1833D01*
X904Y1833D02*
X908Y1833D01*
X3929Y1833D02*
X3936Y1833D01*
X0Y1832D02*
X7Y1832D01*
X562Y1832D02*
X567Y1832D01*
X575Y1832D02*
X581Y1832D01*
X611Y1832D02*
X617Y1832D01*
X639Y1832D02*
X645Y1832D01*
X804Y1832D02*
X808Y1832D01*
X904Y1832D02*
X908Y1832D01*
X3929Y1832D02*
X3936Y1832D01*
X0Y1831D02*
X7Y1831D01*
X561Y1831D02*
X567Y1831D01*
X575Y1831D02*
X581Y1831D01*
X611Y1831D02*
X617Y1831D01*
X639Y1831D02*
X645Y1831D01*
X804Y1831D02*
X808Y1831D01*
X904Y1831D02*
X908Y1831D01*
X3929Y1831D02*
X3936Y1831D01*
X0Y1830D02*
X7Y1830D01*
X561Y1830D02*
X567Y1830D01*
X575Y1830D02*
X581Y1830D01*
X611Y1830D02*
X617Y1830D01*
X639Y1830D02*
X645Y1830D01*
X804Y1830D02*
X808Y1830D01*
X904Y1830D02*
X908Y1830D01*
X3929Y1830D02*
X3936Y1830D01*
X0Y1829D02*
X7Y1829D01*
X561Y1829D02*
X567Y1829D01*
X575Y1829D02*
X581Y1829D01*
X611Y1829D02*
X617Y1829D01*
X639Y1829D02*
X645Y1829D01*
X804Y1829D02*
X808Y1829D01*
X904Y1829D02*
X908Y1829D01*
X3929Y1829D02*
X3936Y1829D01*
X0Y1828D02*
X7Y1828D01*
X561Y1828D02*
X567Y1828D01*
X575Y1828D02*
X581Y1828D01*
X611Y1828D02*
X617Y1828D01*
X639Y1828D02*
X645Y1828D01*
X804Y1828D02*
X808Y1828D01*
X904Y1828D02*
X908Y1828D01*
X3929Y1828D02*
X3936Y1828D01*
X0Y1827D02*
X7Y1827D01*
X561Y1827D02*
X567Y1827D01*
X575Y1827D02*
X581Y1827D01*
X611Y1827D02*
X617Y1827D01*
X639Y1827D02*
X645Y1827D01*
X804Y1827D02*
X808Y1827D01*
X904Y1827D02*
X908Y1827D01*
X3929Y1827D02*
X3936Y1827D01*
X0Y1826D02*
X7Y1826D01*
X561Y1826D02*
X567Y1826D01*
X575Y1826D02*
X581Y1826D01*
X611Y1826D02*
X617Y1826D01*
X639Y1826D02*
X645Y1826D01*
X804Y1826D02*
X808Y1826D01*
X904Y1826D02*
X908Y1826D01*
X3929Y1826D02*
X3936Y1826D01*
X0Y1825D02*
X7Y1825D01*
X561Y1825D02*
X567Y1825D01*
X575Y1825D02*
X581Y1825D01*
X611Y1825D02*
X617Y1825D01*
X639Y1825D02*
X645Y1825D01*
X804Y1825D02*
X808Y1825D01*
X904Y1825D02*
X908Y1825D01*
X3929Y1825D02*
X3936Y1825D01*
X0Y1824D02*
X7Y1824D01*
X561Y1824D02*
X567Y1824D01*
X575Y1824D02*
X581Y1824D01*
X611Y1824D02*
X617Y1824D01*
X639Y1824D02*
X645Y1824D01*
X804Y1824D02*
X808Y1824D01*
X904Y1824D02*
X908Y1824D01*
X3929Y1824D02*
X3936Y1824D01*
X0Y1823D02*
X7Y1823D01*
X561Y1823D02*
X567Y1823D01*
X575Y1823D02*
X581Y1823D01*
X611Y1823D02*
X617Y1823D01*
X639Y1823D02*
X645Y1823D01*
X804Y1823D02*
X808Y1823D01*
X904Y1823D02*
X908Y1823D01*
X3929Y1823D02*
X3936Y1823D01*
X0Y1822D02*
X7Y1822D01*
X561Y1822D02*
X567Y1822D01*
X575Y1822D02*
X581Y1822D01*
X611Y1822D02*
X617Y1822D01*
X639Y1822D02*
X645Y1822D01*
X804Y1822D02*
X808Y1822D01*
X904Y1822D02*
X908Y1822D01*
X3929Y1822D02*
X3936Y1822D01*
X0Y1821D02*
X7Y1821D01*
X561Y1821D02*
X567Y1821D01*
X575Y1821D02*
X581Y1821D01*
X611Y1821D02*
X617Y1821D01*
X639Y1821D02*
X645Y1821D01*
X804Y1821D02*
X808Y1821D01*
X904Y1821D02*
X908Y1821D01*
X3929Y1821D02*
X3936Y1821D01*
X0Y1820D02*
X7Y1820D01*
X561Y1820D02*
X567Y1820D01*
X575Y1820D02*
X581Y1820D01*
X611Y1820D02*
X617Y1820D01*
X639Y1820D02*
X645Y1820D01*
X804Y1820D02*
X808Y1820D01*
X904Y1820D02*
X908Y1820D01*
X3929Y1820D02*
X3936Y1820D01*
X0Y1819D02*
X7Y1819D01*
X561Y1819D02*
X567Y1819D01*
X575Y1819D02*
X581Y1819D01*
X611Y1819D02*
X618Y1819D01*
X639Y1819D02*
X645Y1819D01*
X804Y1819D02*
X808Y1819D01*
X904Y1819D02*
X908Y1819D01*
X3929Y1819D02*
X3936Y1819D01*
X0Y1818D02*
X7Y1818D01*
X561Y1818D02*
X567Y1818D01*
X575Y1818D02*
X581Y1818D01*
X611Y1818D02*
X618Y1818D01*
X638Y1818D02*
X645Y1818D01*
X804Y1818D02*
X808Y1818D01*
X904Y1818D02*
X908Y1818D01*
X3929Y1818D02*
X3936Y1818D01*
X0Y1817D02*
X7Y1817D01*
X561Y1817D02*
X567Y1817D01*
X575Y1817D02*
X581Y1817D01*
X612Y1817D02*
X619Y1817D01*
X637Y1817D02*
X644Y1817D01*
X804Y1817D02*
X808Y1817D01*
X904Y1817D02*
X908Y1817D01*
X3929Y1817D02*
X3936Y1817D01*
X0Y1816D02*
X7Y1816D01*
X561Y1816D02*
X593Y1816D01*
X612Y1816D02*
X644Y1816D01*
X804Y1816D02*
X808Y1816D01*
X904Y1816D02*
X908Y1816D01*
X3929Y1816D02*
X3936Y1816D01*
X0Y1815D02*
X7Y1815D01*
X561Y1815D02*
X594Y1815D01*
X613Y1815D02*
X643Y1815D01*
X804Y1815D02*
X808Y1815D01*
X904Y1815D02*
X908Y1815D01*
X3929Y1815D02*
X3936Y1815D01*
X0Y1814D02*
X7Y1814D01*
X561Y1814D02*
X595Y1814D01*
X613Y1814D02*
X643Y1814D01*
X804Y1814D02*
X808Y1814D01*
X904Y1814D02*
X908Y1814D01*
X3929Y1814D02*
X3936Y1814D01*
X0Y1813D02*
X7Y1813D01*
X561Y1813D02*
X595Y1813D01*
X614Y1813D02*
X642Y1813D01*
X804Y1813D02*
X808Y1813D01*
X904Y1813D02*
X908Y1813D01*
X3929Y1813D02*
X3936Y1813D01*
X0Y1812D02*
X7Y1812D01*
X561Y1812D02*
X595Y1812D01*
X615Y1812D02*
X641Y1812D01*
X804Y1812D02*
X808Y1812D01*
X904Y1812D02*
X908Y1812D01*
X3929Y1812D02*
X3936Y1812D01*
X0Y1811D02*
X7Y1811D01*
X562Y1811D02*
X594Y1811D01*
X617Y1811D02*
X639Y1811D01*
X804Y1811D02*
X808Y1811D01*
X904Y1811D02*
X908Y1811D01*
X3929Y1811D02*
X3936Y1811D01*
X0Y1810D02*
X7Y1810D01*
X563Y1810D02*
X593Y1810D01*
X619Y1810D02*
X637Y1810D01*
X804Y1810D02*
X808Y1810D01*
X904Y1810D02*
X908Y1810D01*
X3929Y1810D02*
X3936Y1810D01*
X0Y1809D02*
X7Y1809D01*
X804Y1809D02*
X808Y1809D01*
X904Y1809D02*
X908Y1809D01*
X3929Y1809D02*
X3936Y1809D01*
X0Y1808D02*
X7Y1808D01*
X804Y1808D02*
X808Y1808D01*
X904Y1808D02*
X908Y1808D01*
X3929Y1808D02*
X3936Y1808D01*
X0Y1807D02*
X7Y1807D01*
X804Y1807D02*
X808Y1807D01*
X904Y1807D02*
X908Y1807D01*
X3929Y1807D02*
X3936Y1807D01*
X0Y1806D02*
X7Y1806D01*
X804Y1806D02*
X808Y1806D01*
X904Y1806D02*
X908Y1806D01*
X3929Y1806D02*
X3936Y1806D01*
X0Y1805D02*
X7Y1805D01*
X804Y1805D02*
X808Y1805D01*
X904Y1805D02*
X908Y1805D01*
X3929Y1805D02*
X3936Y1805D01*
X0Y1804D02*
X7Y1804D01*
X804Y1804D02*
X808Y1804D01*
X904Y1804D02*
X908Y1804D01*
X3929Y1804D02*
X3936Y1804D01*
X0Y1803D02*
X7Y1803D01*
X804Y1803D02*
X808Y1803D01*
X904Y1803D02*
X908Y1803D01*
X3929Y1803D02*
X3936Y1803D01*
X0Y1802D02*
X7Y1802D01*
X804Y1802D02*
X808Y1802D01*
X904Y1802D02*
X908Y1802D01*
X3929Y1802D02*
X3936Y1802D01*
X0Y1801D02*
X7Y1801D01*
X804Y1801D02*
X808Y1801D01*
X904Y1801D02*
X908Y1801D01*
X3929Y1801D02*
X3936Y1801D01*
X0Y1800D02*
X7Y1800D01*
X804Y1800D02*
X808Y1800D01*
X904Y1800D02*
X908Y1800D01*
X3929Y1800D02*
X3936Y1800D01*
X0Y1799D02*
X7Y1799D01*
X804Y1799D02*
X808Y1799D01*
X904Y1799D02*
X908Y1799D01*
X3929Y1799D02*
X3936Y1799D01*
X0Y1798D02*
X7Y1798D01*
X804Y1798D02*
X808Y1798D01*
X904Y1798D02*
X908Y1798D01*
X3929Y1798D02*
X3936Y1798D01*
X0Y1797D02*
X7Y1797D01*
X804Y1797D02*
X808Y1797D01*
X904Y1797D02*
X908Y1797D01*
X3929Y1797D02*
X3936Y1797D01*
X0Y1796D02*
X7Y1796D01*
X804Y1796D02*
X808Y1796D01*
X904Y1796D02*
X908Y1796D01*
X3929Y1796D02*
X3936Y1796D01*
X0Y1795D02*
X7Y1795D01*
X804Y1795D02*
X808Y1795D01*
X904Y1795D02*
X908Y1795D01*
X3929Y1795D02*
X3936Y1795D01*
X0Y1794D02*
X7Y1794D01*
X804Y1794D02*
X808Y1794D01*
X904Y1794D02*
X908Y1794D01*
X3929Y1794D02*
X3936Y1794D01*
X0Y1793D02*
X7Y1793D01*
X804Y1793D02*
X808Y1793D01*
X904Y1793D02*
X908Y1793D01*
X3929Y1793D02*
X3936Y1793D01*
X0Y1792D02*
X7Y1792D01*
X804Y1792D02*
X808Y1792D01*
X904Y1792D02*
X908Y1792D01*
X3929Y1792D02*
X3936Y1792D01*
X0Y1791D02*
X7Y1791D01*
X804Y1791D02*
X808Y1791D01*
X904Y1791D02*
X908Y1791D01*
X3929Y1791D02*
X3936Y1791D01*
X0Y1790D02*
X7Y1790D01*
X804Y1790D02*
X808Y1790D01*
X904Y1790D02*
X908Y1790D01*
X3929Y1790D02*
X3936Y1790D01*
X0Y1789D02*
X7Y1789D01*
X804Y1789D02*
X808Y1789D01*
X904Y1789D02*
X908Y1789D01*
X3929Y1789D02*
X3936Y1789D01*
X0Y1788D02*
X7Y1788D01*
X804Y1788D02*
X808Y1788D01*
X904Y1788D02*
X908Y1788D01*
X3929Y1788D02*
X3936Y1788D01*
X0Y1787D02*
X7Y1787D01*
X804Y1787D02*
X808Y1787D01*
X904Y1787D02*
X908Y1787D01*
X3929Y1787D02*
X3936Y1787D01*
X0Y1786D02*
X7Y1786D01*
X804Y1786D02*
X808Y1786D01*
X904Y1786D02*
X908Y1786D01*
X3929Y1786D02*
X3936Y1786D01*
X0Y1785D02*
X7Y1785D01*
X804Y1785D02*
X808Y1785D01*
X904Y1785D02*
X908Y1785D01*
X3929Y1785D02*
X3936Y1785D01*
X0Y1784D02*
X7Y1784D01*
X804Y1784D02*
X808Y1784D01*
X904Y1784D02*
X908Y1784D01*
X3929Y1784D02*
X3936Y1784D01*
X0Y1783D02*
X7Y1783D01*
X804Y1783D02*
X808Y1783D01*
X904Y1783D02*
X908Y1783D01*
X3929Y1783D02*
X3936Y1783D01*
X0Y1782D02*
X7Y1782D01*
X804Y1782D02*
X808Y1782D01*
X904Y1782D02*
X908Y1782D01*
X3929Y1782D02*
X3936Y1782D01*
X0Y1781D02*
X7Y1781D01*
X804Y1781D02*
X808Y1781D01*
X904Y1781D02*
X908Y1781D01*
X3929Y1781D02*
X3936Y1781D01*
X0Y1780D02*
X7Y1780D01*
X804Y1780D02*
X808Y1780D01*
X904Y1780D02*
X908Y1780D01*
X3929Y1780D02*
X3936Y1780D01*
X0Y1779D02*
X7Y1779D01*
X804Y1779D02*
X808Y1779D01*
X904Y1779D02*
X908Y1779D01*
X3929Y1779D02*
X3936Y1779D01*
X0Y1778D02*
X7Y1778D01*
X804Y1778D02*
X808Y1778D01*
X904Y1778D02*
X908Y1778D01*
X3929Y1778D02*
X3936Y1778D01*
X0Y1777D02*
X7Y1777D01*
X804Y1777D02*
X808Y1777D01*
X904Y1777D02*
X908Y1777D01*
X3929Y1777D02*
X3936Y1777D01*
X0Y1776D02*
X7Y1776D01*
X804Y1776D02*
X808Y1776D01*
X904Y1776D02*
X908Y1776D01*
X3929Y1776D02*
X3936Y1776D01*
X0Y1775D02*
X7Y1775D01*
X804Y1775D02*
X808Y1775D01*
X904Y1775D02*
X908Y1775D01*
X3929Y1775D02*
X3936Y1775D01*
X0Y1774D02*
X7Y1774D01*
X804Y1774D02*
X808Y1774D01*
X904Y1774D02*
X908Y1774D01*
X3929Y1774D02*
X3936Y1774D01*
X0Y1773D02*
X7Y1773D01*
X804Y1773D02*
X808Y1773D01*
X904Y1773D02*
X908Y1773D01*
X3929Y1773D02*
X3936Y1773D01*
X0Y1772D02*
X7Y1772D01*
X804Y1772D02*
X808Y1772D01*
X904Y1772D02*
X908Y1772D01*
X3929Y1772D02*
X3936Y1772D01*
X0Y1771D02*
X7Y1771D01*
X804Y1771D02*
X808Y1771D01*
X904Y1771D02*
X908Y1771D01*
X3929Y1771D02*
X3936Y1771D01*
X0Y1770D02*
X7Y1770D01*
X804Y1770D02*
X808Y1770D01*
X904Y1770D02*
X908Y1770D01*
X3929Y1770D02*
X3936Y1770D01*
X0Y1769D02*
X7Y1769D01*
X804Y1769D02*
X808Y1769D01*
X904Y1769D02*
X908Y1769D01*
X3929Y1769D02*
X3936Y1769D01*
X0Y1768D02*
X7Y1768D01*
X804Y1768D02*
X808Y1768D01*
X904Y1768D02*
X908Y1768D01*
X3929Y1768D02*
X3936Y1768D01*
X0Y1767D02*
X7Y1767D01*
X804Y1767D02*
X808Y1767D01*
X904Y1767D02*
X908Y1767D01*
X3929Y1767D02*
X3936Y1767D01*
X0Y1766D02*
X7Y1766D01*
X804Y1766D02*
X808Y1766D01*
X904Y1766D02*
X908Y1766D01*
X3929Y1766D02*
X3936Y1766D01*
X0Y1765D02*
X7Y1765D01*
X804Y1765D02*
X808Y1765D01*
X904Y1765D02*
X908Y1765D01*
X3929Y1765D02*
X3936Y1765D01*
X0Y1764D02*
X7Y1764D01*
X804Y1764D02*
X808Y1764D01*
X904Y1764D02*
X908Y1764D01*
X3929Y1764D02*
X3936Y1764D01*
X0Y1763D02*
X7Y1763D01*
X804Y1763D02*
X808Y1763D01*
X904Y1763D02*
X908Y1763D01*
X3929Y1763D02*
X3936Y1763D01*
X0Y1762D02*
X7Y1762D01*
X804Y1762D02*
X808Y1762D01*
X904Y1762D02*
X908Y1762D01*
X3929Y1762D02*
X3936Y1762D01*
X0Y1761D02*
X7Y1761D01*
X804Y1761D02*
X808Y1761D01*
X904Y1761D02*
X908Y1761D01*
X3929Y1761D02*
X3936Y1761D01*
X0Y1760D02*
X7Y1760D01*
X804Y1760D02*
X808Y1760D01*
X904Y1760D02*
X908Y1760D01*
X3929Y1760D02*
X3936Y1760D01*
X0Y1759D02*
X7Y1759D01*
X804Y1759D02*
X808Y1759D01*
X904Y1759D02*
X908Y1759D01*
X3929Y1759D02*
X3936Y1759D01*
X0Y1758D02*
X7Y1758D01*
X804Y1758D02*
X808Y1758D01*
X904Y1758D02*
X908Y1758D01*
X3929Y1758D02*
X3936Y1758D01*
X0Y1757D02*
X7Y1757D01*
X804Y1757D02*
X808Y1757D01*
X904Y1757D02*
X908Y1757D01*
X3929Y1757D02*
X3936Y1757D01*
X0Y1756D02*
X7Y1756D01*
X804Y1756D02*
X808Y1756D01*
X904Y1756D02*
X908Y1756D01*
X3929Y1756D02*
X3936Y1756D01*
X0Y1755D02*
X7Y1755D01*
X804Y1755D02*
X808Y1755D01*
X904Y1755D02*
X908Y1755D01*
X3929Y1755D02*
X3936Y1755D01*
X0Y1754D02*
X7Y1754D01*
X804Y1754D02*
X808Y1754D01*
X904Y1754D02*
X908Y1754D01*
X3929Y1754D02*
X3936Y1754D01*
X0Y1753D02*
X7Y1753D01*
X804Y1753D02*
X808Y1753D01*
X904Y1753D02*
X908Y1753D01*
X3929Y1753D02*
X3936Y1753D01*
X0Y1752D02*
X7Y1752D01*
X804Y1752D02*
X808Y1752D01*
X904Y1752D02*
X908Y1752D01*
X3929Y1752D02*
X3936Y1752D01*
X0Y1751D02*
X7Y1751D01*
X804Y1751D02*
X808Y1751D01*
X904Y1751D02*
X908Y1751D01*
X3929Y1751D02*
X3936Y1751D01*
X0Y1750D02*
X7Y1750D01*
X804Y1750D02*
X808Y1750D01*
X904Y1750D02*
X908Y1750D01*
X3929Y1750D02*
X3936Y1750D01*
X0Y1749D02*
X7Y1749D01*
X804Y1749D02*
X808Y1749D01*
X904Y1749D02*
X908Y1749D01*
X3929Y1749D02*
X3936Y1749D01*
X0Y1748D02*
X7Y1748D01*
X804Y1748D02*
X808Y1748D01*
X904Y1748D02*
X908Y1748D01*
X3929Y1748D02*
X3936Y1748D01*
X0Y1747D02*
X7Y1747D01*
X804Y1747D02*
X808Y1747D01*
X904Y1747D02*
X908Y1747D01*
X3929Y1747D02*
X3936Y1747D01*
X0Y1746D02*
X7Y1746D01*
X804Y1746D02*
X808Y1746D01*
X904Y1746D02*
X908Y1746D01*
X3929Y1746D02*
X3936Y1746D01*
X0Y1745D02*
X7Y1745D01*
X804Y1745D02*
X808Y1745D01*
X904Y1745D02*
X908Y1745D01*
X3929Y1745D02*
X3936Y1745D01*
X0Y1744D02*
X7Y1744D01*
X804Y1744D02*
X808Y1744D01*
X904Y1744D02*
X908Y1744D01*
X3929Y1744D02*
X3936Y1744D01*
X0Y1743D02*
X7Y1743D01*
X804Y1743D02*
X808Y1743D01*
X904Y1743D02*
X908Y1743D01*
X3929Y1743D02*
X3936Y1743D01*
X0Y1742D02*
X7Y1742D01*
X804Y1742D02*
X808Y1742D01*
X904Y1742D02*
X908Y1742D01*
X3929Y1742D02*
X3936Y1742D01*
X0Y1741D02*
X7Y1741D01*
X804Y1741D02*
X808Y1741D01*
X904Y1741D02*
X908Y1741D01*
X3929Y1741D02*
X3936Y1741D01*
X0Y1740D02*
X7Y1740D01*
X804Y1740D02*
X808Y1740D01*
X904Y1740D02*
X908Y1740D01*
X3929Y1740D02*
X3936Y1740D01*
X0Y1739D02*
X7Y1739D01*
X804Y1739D02*
X808Y1739D01*
X904Y1739D02*
X908Y1739D01*
X3929Y1739D02*
X3936Y1739D01*
X0Y1738D02*
X7Y1738D01*
X804Y1738D02*
X808Y1738D01*
X904Y1738D02*
X908Y1738D01*
X3929Y1738D02*
X3936Y1738D01*
X0Y1737D02*
X7Y1737D01*
X804Y1737D02*
X808Y1737D01*
X904Y1737D02*
X908Y1737D01*
X3929Y1737D02*
X3936Y1737D01*
X0Y1736D02*
X7Y1736D01*
X804Y1736D02*
X808Y1736D01*
X904Y1736D02*
X908Y1736D01*
X3929Y1736D02*
X3936Y1736D01*
X0Y1735D02*
X7Y1735D01*
X804Y1735D02*
X808Y1735D01*
X904Y1735D02*
X908Y1735D01*
X3929Y1735D02*
X3936Y1735D01*
X0Y1734D02*
X7Y1734D01*
X804Y1734D02*
X808Y1734D01*
X904Y1734D02*
X908Y1734D01*
X3929Y1734D02*
X3936Y1734D01*
X0Y1733D02*
X7Y1733D01*
X804Y1733D02*
X808Y1733D01*
X904Y1733D02*
X908Y1733D01*
X3929Y1733D02*
X3936Y1733D01*
X0Y1732D02*
X7Y1732D01*
X804Y1732D02*
X808Y1732D01*
X904Y1732D02*
X908Y1732D01*
X3929Y1732D02*
X3936Y1732D01*
X0Y1731D02*
X7Y1731D01*
X804Y1731D02*
X808Y1731D01*
X904Y1731D02*
X908Y1731D01*
X3929Y1731D02*
X3936Y1731D01*
X0Y1730D02*
X7Y1730D01*
X804Y1730D02*
X808Y1730D01*
X904Y1730D02*
X908Y1730D01*
X3929Y1730D02*
X3936Y1730D01*
X0Y1729D02*
X7Y1729D01*
X804Y1729D02*
X808Y1729D01*
X904Y1729D02*
X908Y1729D01*
X3929Y1729D02*
X3936Y1729D01*
X0Y1728D02*
X7Y1728D01*
X804Y1728D02*
X808Y1728D01*
X904Y1728D02*
X908Y1728D01*
X3929Y1728D02*
X3936Y1728D01*
X0Y1727D02*
X7Y1727D01*
X804Y1727D02*
X808Y1727D01*
X904Y1727D02*
X908Y1727D01*
X3929Y1727D02*
X3936Y1727D01*
X0Y1726D02*
X7Y1726D01*
X804Y1726D02*
X808Y1726D01*
X904Y1726D02*
X908Y1726D01*
X3929Y1726D02*
X3936Y1726D01*
X0Y1725D02*
X7Y1725D01*
X804Y1725D02*
X808Y1725D01*
X904Y1725D02*
X908Y1725D01*
X3929Y1725D02*
X3936Y1725D01*
X0Y1724D02*
X7Y1724D01*
X804Y1724D02*
X808Y1724D01*
X904Y1724D02*
X908Y1724D01*
X3929Y1724D02*
X3936Y1724D01*
X0Y1723D02*
X7Y1723D01*
X804Y1723D02*
X808Y1723D01*
X904Y1723D02*
X908Y1723D01*
X3929Y1723D02*
X3936Y1723D01*
X0Y1722D02*
X7Y1722D01*
X804Y1722D02*
X808Y1722D01*
X904Y1722D02*
X908Y1722D01*
X3929Y1722D02*
X3936Y1722D01*
X0Y1721D02*
X7Y1721D01*
X804Y1721D02*
X808Y1721D01*
X904Y1721D02*
X908Y1721D01*
X3929Y1721D02*
X3936Y1721D01*
X0Y1720D02*
X7Y1720D01*
X804Y1720D02*
X808Y1720D01*
X904Y1720D02*
X908Y1720D01*
X3929Y1720D02*
X3936Y1720D01*
X0Y1719D02*
X7Y1719D01*
X804Y1719D02*
X808Y1719D01*
X904Y1719D02*
X908Y1719D01*
X3929Y1719D02*
X3936Y1719D01*
X0Y1718D02*
X7Y1718D01*
X804Y1718D02*
X808Y1718D01*
X904Y1718D02*
X908Y1718D01*
X3929Y1718D02*
X3936Y1718D01*
X0Y1717D02*
X7Y1717D01*
X804Y1717D02*
X808Y1717D01*
X904Y1717D02*
X908Y1717D01*
X3929Y1717D02*
X3936Y1717D01*
X0Y1716D02*
X7Y1716D01*
X804Y1716D02*
X808Y1716D01*
X904Y1716D02*
X908Y1716D01*
X3929Y1716D02*
X3936Y1716D01*
X0Y1715D02*
X7Y1715D01*
X804Y1715D02*
X808Y1715D01*
X904Y1715D02*
X908Y1715D01*
X3929Y1715D02*
X3936Y1715D01*
X0Y1714D02*
X7Y1714D01*
X804Y1714D02*
X808Y1714D01*
X904Y1714D02*
X908Y1714D01*
X3929Y1714D02*
X3936Y1714D01*
X0Y1713D02*
X7Y1713D01*
X804Y1713D02*
X808Y1713D01*
X904Y1713D02*
X908Y1713D01*
X3929Y1713D02*
X3936Y1713D01*
X0Y1712D02*
X7Y1712D01*
X804Y1712D02*
X808Y1712D01*
X904Y1712D02*
X908Y1712D01*
X3929Y1712D02*
X3936Y1712D01*
X0Y1711D02*
X7Y1711D01*
X804Y1711D02*
X808Y1711D01*
X904Y1711D02*
X908Y1711D01*
X3929Y1711D02*
X3936Y1711D01*
X0Y1710D02*
X7Y1710D01*
X804Y1710D02*
X808Y1710D01*
X904Y1710D02*
X908Y1710D01*
X3929Y1710D02*
X3936Y1710D01*
X0Y1709D02*
X7Y1709D01*
X804Y1709D02*
X808Y1709D01*
X904Y1709D02*
X908Y1709D01*
X3929Y1709D02*
X3936Y1709D01*
X0Y1708D02*
X7Y1708D01*
X804Y1708D02*
X808Y1708D01*
X904Y1708D02*
X908Y1708D01*
X3929Y1708D02*
X3936Y1708D01*
X0Y1707D02*
X7Y1707D01*
X804Y1707D02*
X808Y1707D01*
X904Y1707D02*
X908Y1707D01*
X3929Y1707D02*
X3936Y1707D01*
X0Y1706D02*
X7Y1706D01*
X804Y1706D02*
X808Y1706D01*
X904Y1706D02*
X908Y1706D01*
X3929Y1706D02*
X3936Y1706D01*
X0Y1705D02*
X7Y1705D01*
X804Y1705D02*
X808Y1705D01*
X904Y1705D02*
X908Y1705D01*
X3929Y1705D02*
X3936Y1705D01*
X0Y1704D02*
X7Y1704D01*
X804Y1704D02*
X808Y1704D01*
X904Y1704D02*
X908Y1704D01*
X3929Y1704D02*
X3936Y1704D01*
X0Y1703D02*
X7Y1703D01*
X804Y1703D02*
X808Y1703D01*
X904Y1703D02*
X908Y1703D01*
X3929Y1703D02*
X3936Y1703D01*
X0Y1702D02*
X7Y1702D01*
X804Y1702D02*
X808Y1702D01*
X904Y1702D02*
X908Y1702D01*
X3929Y1702D02*
X3936Y1702D01*
X0Y1701D02*
X7Y1701D01*
X804Y1701D02*
X808Y1701D01*
X904Y1701D02*
X908Y1701D01*
X3929Y1701D02*
X3936Y1701D01*
X0Y1700D02*
X7Y1700D01*
X804Y1700D02*
X808Y1700D01*
X904Y1700D02*
X908Y1700D01*
X3929Y1700D02*
X3936Y1700D01*
X0Y1699D02*
X7Y1699D01*
X804Y1699D02*
X808Y1699D01*
X904Y1699D02*
X908Y1699D01*
X3929Y1699D02*
X3936Y1699D01*
X0Y1698D02*
X7Y1698D01*
X804Y1698D02*
X808Y1698D01*
X904Y1698D02*
X908Y1698D01*
X3929Y1698D02*
X3936Y1698D01*
X0Y1697D02*
X7Y1697D01*
X804Y1697D02*
X808Y1697D01*
X904Y1697D02*
X908Y1697D01*
X3929Y1697D02*
X3936Y1697D01*
X0Y1696D02*
X7Y1696D01*
X804Y1696D02*
X808Y1696D01*
X904Y1696D02*
X908Y1696D01*
X3929Y1696D02*
X3936Y1696D01*
X0Y1695D02*
X7Y1695D01*
X804Y1695D02*
X808Y1695D01*
X904Y1695D02*
X908Y1695D01*
X3929Y1695D02*
X3936Y1695D01*
X0Y1694D02*
X7Y1694D01*
X804Y1694D02*
X808Y1694D01*
X904Y1694D02*
X908Y1694D01*
X3929Y1694D02*
X3936Y1694D01*
X0Y1693D02*
X7Y1693D01*
X804Y1693D02*
X808Y1693D01*
X904Y1693D02*
X908Y1693D01*
X3929Y1693D02*
X3936Y1693D01*
X0Y1692D02*
X7Y1692D01*
X804Y1692D02*
X808Y1692D01*
X904Y1692D02*
X908Y1692D01*
X3929Y1692D02*
X3936Y1692D01*
X0Y1691D02*
X7Y1691D01*
X804Y1691D02*
X808Y1691D01*
X904Y1691D02*
X908Y1691D01*
X3929Y1691D02*
X3936Y1691D01*
X0Y1690D02*
X7Y1690D01*
X804Y1690D02*
X808Y1690D01*
X904Y1690D02*
X908Y1690D01*
X3929Y1690D02*
X3936Y1690D01*
X0Y1689D02*
X7Y1689D01*
X804Y1689D02*
X808Y1689D01*
X904Y1689D02*
X908Y1689D01*
X3929Y1689D02*
X3936Y1689D01*
X0Y1688D02*
X7Y1688D01*
X804Y1688D02*
X808Y1688D01*
X904Y1688D02*
X908Y1688D01*
X3929Y1688D02*
X3936Y1688D01*
X0Y1687D02*
X7Y1687D01*
X804Y1687D02*
X808Y1687D01*
X904Y1687D02*
X908Y1687D01*
X3929Y1687D02*
X3936Y1687D01*
X0Y1686D02*
X7Y1686D01*
X804Y1686D02*
X808Y1686D01*
X904Y1686D02*
X908Y1686D01*
X3929Y1686D02*
X3936Y1686D01*
X0Y1685D02*
X7Y1685D01*
X804Y1685D02*
X808Y1685D01*
X904Y1685D02*
X908Y1685D01*
X3929Y1685D02*
X3936Y1685D01*
X0Y1684D02*
X7Y1684D01*
X804Y1684D02*
X808Y1684D01*
X904Y1684D02*
X908Y1684D01*
X3929Y1684D02*
X3936Y1684D01*
X0Y1683D02*
X7Y1683D01*
X804Y1683D02*
X808Y1683D01*
X904Y1683D02*
X908Y1683D01*
X3929Y1683D02*
X3936Y1683D01*
X0Y1682D02*
X7Y1682D01*
X804Y1682D02*
X808Y1682D01*
X904Y1682D02*
X908Y1682D01*
X3929Y1682D02*
X3936Y1682D01*
X0Y1681D02*
X7Y1681D01*
X804Y1681D02*
X808Y1681D01*
X904Y1681D02*
X908Y1681D01*
X3929Y1681D02*
X3936Y1681D01*
X0Y1680D02*
X7Y1680D01*
X804Y1680D02*
X808Y1680D01*
X904Y1680D02*
X908Y1680D01*
X3929Y1680D02*
X3936Y1680D01*
X0Y1679D02*
X7Y1679D01*
X804Y1679D02*
X808Y1679D01*
X904Y1679D02*
X908Y1679D01*
X3929Y1679D02*
X3936Y1679D01*
X0Y1678D02*
X7Y1678D01*
X804Y1678D02*
X808Y1678D01*
X904Y1678D02*
X908Y1678D01*
X3929Y1678D02*
X3936Y1678D01*
X0Y1677D02*
X7Y1677D01*
X804Y1677D02*
X808Y1677D01*
X904Y1677D02*
X908Y1677D01*
X3929Y1677D02*
X3936Y1677D01*
X0Y1676D02*
X7Y1676D01*
X804Y1676D02*
X808Y1676D01*
X904Y1676D02*
X908Y1676D01*
X3929Y1676D02*
X3936Y1676D01*
X0Y1675D02*
X7Y1675D01*
X804Y1675D02*
X808Y1675D01*
X904Y1675D02*
X908Y1675D01*
X3929Y1675D02*
X3936Y1675D01*
X0Y1674D02*
X7Y1674D01*
X804Y1674D02*
X808Y1674D01*
X904Y1674D02*
X908Y1674D01*
X3929Y1674D02*
X3936Y1674D01*
X0Y1673D02*
X7Y1673D01*
X804Y1673D02*
X808Y1673D01*
X904Y1673D02*
X908Y1673D01*
X3929Y1673D02*
X3936Y1673D01*
X0Y1672D02*
X7Y1672D01*
X804Y1672D02*
X808Y1672D01*
X904Y1672D02*
X908Y1672D01*
X3929Y1672D02*
X3936Y1672D01*
X0Y1671D02*
X7Y1671D01*
X804Y1671D02*
X808Y1671D01*
X904Y1671D02*
X908Y1671D01*
X3929Y1671D02*
X3936Y1671D01*
X0Y1670D02*
X7Y1670D01*
X804Y1670D02*
X808Y1670D01*
X904Y1670D02*
X908Y1670D01*
X3929Y1670D02*
X3936Y1670D01*
X0Y1669D02*
X7Y1669D01*
X804Y1669D02*
X808Y1669D01*
X904Y1669D02*
X908Y1669D01*
X3929Y1669D02*
X3936Y1669D01*
X0Y1668D02*
X7Y1668D01*
X804Y1668D02*
X808Y1668D01*
X904Y1668D02*
X908Y1668D01*
X3929Y1668D02*
X3936Y1668D01*
X0Y1667D02*
X7Y1667D01*
X804Y1667D02*
X808Y1667D01*
X904Y1667D02*
X908Y1667D01*
X3929Y1667D02*
X3936Y1667D01*
X0Y1666D02*
X7Y1666D01*
X804Y1666D02*
X808Y1666D01*
X904Y1666D02*
X908Y1666D01*
X3929Y1666D02*
X3936Y1666D01*
X0Y1665D02*
X7Y1665D01*
X804Y1665D02*
X808Y1665D01*
X904Y1665D02*
X908Y1665D01*
X3929Y1665D02*
X3936Y1665D01*
X0Y1664D02*
X7Y1664D01*
X804Y1664D02*
X808Y1664D01*
X904Y1664D02*
X908Y1664D01*
X3929Y1664D02*
X3936Y1664D01*
X0Y1663D02*
X7Y1663D01*
X804Y1663D02*
X808Y1663D01*
X904Y1663D02*
X908Y1663D01*
X3929Y1663D02*
X3936Y1663D01*
X0Y1662D02*
X7Y1662D01*
X804Y1662D02*
X808Y1662D01*
X904Y1662D02*
X908Y1662D01*
X3929Y1662D02*
X3936Y1662D01*
X0Y1661D02*
X7Y1661D01*
X804Y1661D02*
X808Y1661D01*
X904Y1661D02*
X908Y1661D01*
X3929Y1661D02*
X3936Y1661D01*
X0Y1660D02*
X7Y1660D01*
X804Y1660D02*
X808Y1660D01*
X904Y1660D02*
X908Y1660D01*
X3929Y1660D02*
X3936Y1660D01*
X0Y1659D02*
X7Y1659D01*
X804Y1659D02*
X808Y1659D01*
X904Y1659D02*
X908Y1659D01*
X3929Y1659D02*
X3936Y1659D01*
X0Y1658D02*
X7Y1658D01*
X804Y1658D02*
X808Y1658D01*
X904Y1658D02*
X908Y1658D01*
X3929Y1658D02*
X3936Y1658D01*
X0Y1657D02*
X7Y1657D01*
X804Y1657D02*
X808Y1657D01*
X904Y1657D02*
X908Y1657D01*
X3929Y1657D02*
X3936Y1657D01*
X0Y1656D02*
X7Y1656D01*
X804Y1656D02*
X808Y1656D01*
X904Y1656D02*
X908Y1656D01*
X3929Y1656D02*
X3936Y1656D01*
X0Y1655D02*
X7Y1655D01*
X804Y1655D02*
X808Y1655D01*
X904Y1655D02*
X908Y1655D01*
X3929Y1655D02*
X3936Y1655D01*
X0Y1654D02*
X7Y1654D01*
X804Y1654D02*
X808Y1654D01*
X904Y1654D02*
X908Y1654D01*
X3929Y1654D02*
X3936Y1654D01*
X0Y1653D02*
X7Y1653D01*
X804Y1653D02*
X808Y1653D01*
X904Y1653D02*
X908Y1653D01*
X3929Y1653D02*
X3936Y1653D01*
X0Y1652D02*
X7Y1652D01*
X804Y1652D02*
X808Y1652D01*
X904Y1652D02*
X908Y1652D01*
X3929Y1652D02*
X3936Y1652D01*
X0Y1651D02*
X7Y1651D01*
X804Y1651D02*
X808Y1651D01*
X904Y1651D02*
X908Y1651D01*
X3929Y1651D02*
X3936Y1651D01*
X0Y1650D02*
X7Y1650D01*
X804Y1650D02*
X808Y1650D01*
X904Y1650D02*
X908Y1650D01*
X3929Y1650D02*
X3936Y1650D01*
X0Y1649D02*
X7Y1649D01*
X804Y1649D02*
X808Y1649D01*
X904Y1649D02*
X908Y1649D01*
X3929Y1649D02*
X3936Y1649D01*
X0Y1648D02*
X7Y1648D01*
X804Y1648D02*
X808Y1648D01*
X904Y1648D02*
X908Y1648D01*
X3929Y1648D02*
X3936Y1648D01*
X0Y1647D02*
X7Y1647D01*
X804Y1647D02*
X808Y1647D01*
X904Y1647D02*
X908Y1647D01*
X3929Y1647D02*
X3936Y1647D01*
X0Y1646D02*
X7Y1646D01*
X804Y1646D02*
X808Y1646D01*
X904Y1646D02*
X908Y1646D01*
X3929Y1646D02*
X3936Y1646D01*
X0Y1645D02*
X7Y1645D01*
X804Y1645D02*
X808Y1645D01*
X904Y1645D02*
X908Y1645D01*
X3929Y1645D02*
X3936Y1645D01*
X0Y1644D02*
X7Y1644D01*
X804Y1644D02*
X808Y1644D01*
X904Y1644D02*
X908Y1644D01*
X3929Y1644D02*
X3936Y1644D01*
X0Y1643D02*
X7Y1643D01*
X804Y1643D02*
X808Y1643D01*
X904Y1643D02*
X908Y1643D01*
X3929Y1643D02*
X3936Y1643D01*
X0Y1642D02*
X7Y1642D01*
X804Y1642D02*
X808Y1642D01*
X904Y1642D02*
X908Y1642D01*
X3929Y1642D02*
X3936Y1642D01*
X0Y1641D02*
X7Y1641D01*
X804Y1641D02*
X808Y1641D01*
X904Y1641D02*
X908Y1641D01*
X3929Y1641D02*
X3936Y1641D01*
X0Y1640D02*
X7Y1640D01*
X804Y1640D02*
X808Y1640D01*
X904Y1640D02*
X908Y1640D01*
X3929Y1640D02*
X3936Y1640D01*
X0Y1639D02*
X7Y1639D01*
X804Y1639D02*
X808Y1639D01*
X904Y1639D02*
X908Y1639D01*
X3929Y1639D02*
X3936Y1639D01*
X0Y1638D02*
X7Y1638D01*
X804Y1638D02*
X808Y1638D01*
X904Y1638D02*
X908Y1638D01*
X3929Y1638D02*
X3936Y1638D01*
X0Y1637D02*
X7Y1637D01*
X804Y1637D02*
X808Y1637D01*
X904Y1637D02*
X908Y1637D01*
X3929Y1637D02*
X3936Y1637D01*
X0Y1636D02*
X7Y1636D01*
X804Y1636D02*
X808Y1636D01*
X904Y1636D02*
X908Y1636D01*
X3929Y1636D02*
X3936Y1636D01*
X0Y1635D02*
X7Y1635D01*
X804Y1635D02*
X808Y1635D01*
X904Y1635D02*
X908Y1635D01*
X3929Y1635D02*
X3936Y1635D01*
X0Y1634D02*
X7Y1634D01*
X804Y1634D02*
X808Y1634D01*
X904Y1634D02*
X908Y1634D01*
X3929Y1634D02*
X3936Y1634D01*
X0Y1633D02*
X7Y1633D01*
X804Y1633D02*
X808Y1633D01*
X904Y1633D02*
X908Y1633D01*
X3929Y1633D02*
X3936Y1633D01*
X0Y1632D02*
X7Y1632D01*
X804Y1632D02*
X808Y1632D01*
X904Y1632D02*
X908Y1632D01*
X3929Y1632D02*
X3936Y1632D01*
X0Y1631D02*
X7Y1631D01*
X804Y1631D02*
X808Y1631D01*
X904Y1631D02*
X908Y1631D01*
X3929Y1631D02*
X3936Y1631D01*
X0Y1630D02*
X7Y1630D01*
X804Y1630D02*
X808Y1630D01*
X904Y1630D02*
X908Y1630D01*
X3929Y1630D02*
X3936Y1630D01*
X0Y1629D02*
X7Y1629D01*
X804Y1629D02*
X808Y1629D01*
X904Y1629D02*
X908Y1629D01*
X3929Y1629D02*
X3936Y1629D01*
X0Y1628D02*
X7Y1628D01*
X804Y1628D02*
X807Y1628D01*
X905Y1628D02*
X908Y1628D01*
X3929Y1628D02*
X3936Y1628D01*
X0Y1627D02*
X7Y1627D01*
X804Y1627D02*
X806Y1627D01*
X905Y1627D02*
X908Y1627D01*
X3929Y1627D02*
X3936Y1627D01*
X0Y1626D02*
X7Y1626D01*
X804Y1626D02*
X805Y1626D01*
X906Y1626D02*
X908Y1626D01*
X3929Y1626D02*
X3936Y1626D01*
X0Y1625D02*
X7Y1625D01*
X804Y1625D02*
X804Y1625D01*
X907Y1625D02*
X908Y1625D01*
X3929Y1625D02*
X3936Y1625D01*
X0Y1624D02*
X7Y1624D01*
X804Y1624D02*
X804Y1624D01*
X908Y1624D02*
X908Y1624D01*
X3929Y1624D02*
X3936Y1624D01*
X0Y1623D02*
X7Y1623D01*
X908Y1623D02*
X908Y1623D01*
X3929Y1623D02*
X3936Y1623D01*
X0Y1622D02*
X7Y1622D01*
X3929Y1622D02*
X3936Y1622D01*
X0Y1621D02*
X7Y1621D01*
X3929Y1621D02*
X3936Y1621D01*
X0Y1620D02*
X7Y1620D01*
X3929Y1620D02*
X3936Y1620D01*
X0Y1619D02*
X7Y1619D01*
X3929Y1619D02*
X3936Y1619D01*
X0Y1618D02*
X7Y1618D01*
X3929Y1618D02*
X3936Y1618D01*
X0Y1617D02*
X7Y1617D01*
X3929Y1617D02*
X3936Y1617D01*
X0Y1616D02*
X7Y1616D01*
X3929Y1616D02*
X3936Y1616D01*
X0Y1615D02*
X7Y1615D01*
X3929Y1615D02*
X3936Y1615D01*
X0Y1614D02*
X7Y1614D01*
X3929Y1614D02*
X3936Y1614D01*
X0Y1613D02*
X7Y1613D01*
X3929Y1613D02*
X3936Y1613D01*
X0Y1612D02*
X7Y1612D01*
X3929Y1612D02*
X3936Y1612D01*
X0Y1611D02*
X7Y1611D01*
X3929Y1611D02*
X3936Y1611D01*
X0Y1610D02*
X7Y1610D01*
X3929Y1610D02*
X3936Y1610D01*
X0Y1609D02*
X7Y1609D01*
X3929Y1609D02*
X3936Y1609D01*
X0Y1608D02*
X7Y1608D01*
X3929Y1608D02*
X3936Y1608D01*
X0Y1607D02*
X7Y1607D01*
X3929Y1607D02*
X3936Y1607D01*
X0Y1606D02*
X7Y1606D01*
X3929Y1606D02*
X3936Y1606D01*
X0Y1605D02*
X7Y1605D01*
X3929Y1605D02*
X3936Y1605D01*
X0Y1604D02*
X7Y1604D01*
X3929Y1604D02*
X3936Y1604D01*
X0Y1603D02*
X7Y1603D01*
X3929Y1603D02*
X3936Y1603D01*
X0Y1602D02*
X7Y1602D01*
X3929Y1602D02*
X3936Y1602D01*
X0Y1601D02*
X7Y1601D01*
X3929Y1601D02*
X3936Y1601D01*
X0Y1600D02*
X7Y1600D01*
X3929Y1600D02*
X3936Y1600D01*
X0Y1599D02*
X7Y1599D01*
X3929Y1599D02*
X3936Y1599D01*
X0Y1598D02*
X7Y1598D01*
X3929Y1598D02*
X3936Y1598D01*
X0Y1597D02*
X7Y1597D01*
X3929Y1597D02*
X3936Y1597D01*
X0Y1596D02*
X7Y1596D01*
X3929Y1596D02*
X3936Y1596D01*
X0Y1595D02*
X7Y1595D01*
X3929Y1595D02*
X3936Y1595D01*
X0Y1594D02*
X7Y1594D01*
X3929Y1594D02*
X3936Y1594D01*
X0Y1593D02*
X7Y1593D01*
X3929Y1593D02*
X3936Y1593D01*
X0Y1592D02*
X7Y1592D01*
X3929Y1592D02*
X3936Y1592D01*
X0Y1591D02*
X7Y1591D01*
X3929Y1591D02*
X3936Y1591D01*
X0Y1590D02*
X7Y1590D01*
X3929Y1590D02*
X3936Y1590D01*
X0Y1589D02*
X7Y1589D01*
X3929Y1589D02*
X3936Y1589D01*
X0Y1588D02*
X7Y1588D01*
X3929Y1588D02*
X3936Y1588D01*
X0Y1587D02*
X7Y1587D01*
X3929Y1587D02*
X3936Y1587D01*
X0Y1586D02*
X7Y1586D01*
X3929Y1586D02*
X3936Y1586D01*
X0Y1585D02*
X7Y1585D01*
X3929Y1585D02*
X3936Y1585D01*
X0Y1584D02*
X7Y1584D01*
X3929Y1584D02*
X3936Y1584D01*
X0Y1583D02*
X7Y1583D01*
X3929Y1583D02*
X3936Y1583D01*
X0Y1582D02*
X7Y1582D01*
X3929Y1582D02*
X3936Y1582D01*
X0Y1581D02*
X7Y1581D01*
X3929Y1581D02*
X3936Y1581D01*
X0Y1580D02*
X7Y1580D01*
X3929Y1580D02*
X3936Y1580D01*
X0Y1579D02*
X7Y1579D01*
X3929Y1579D02*
X3936Y1579D01*
X0Y1578D02*
X7Y1578D01*
X3929Y1578D02*
X3936Y1578D01*
X0Y1577D02*
X7Y1577D01*
X3929Y1577D02*
X3936Y1577D01*
X0Y1576D02*
X7Y1576D01*
X3929Y1576D02*
X3936Y1576D01*
X0Y1575D02*
X7Y1575D01*
X3929Y1575D02*
X3936Y1575D01*
X0Y1574D02*
X7Y1574D01*
X3929Y1574D02*
X3936Y1574D01*
X0Y1573D02*
X7Y1573D01*
X3929Y1573D02*
X3936Y1573D01*
X0Y1572D02*
X7Y1572D01*
X3929Y1572D02*
X3936Y1572D01*
X0Y1571D02*
X7Y1571D01*
X3929Y1571D02*
X3936Y1571D01*
X0Y1570D02*
X7Y1570D01*
X3929Y1570D02*
X3936Y1570D01*
X0Y1569D02*
X7Y1569D01*
X3929Y1569D02*
X3936Y1569D01*
X0Y1568D02*
X7Y1568D01*
X3929Y1568D02*
X3936Y1568D01*
X0Y1567D02*
X7Y1567D01*
X3929Y1567D02*
X3936Y1567D01*
X0Y1566D02*
X7Y1566D01*
X3929Y1566D02*
X3936Y1566D01*
X0Y1565D02*
X7Y1565D01*
X3929Y1565D02*
X3936Y1565D01*
X0Y1564D02*
X7Y1564D01*
X3929Y1564D02*
X3936Y1564D01*
X0Y1563D02*
X7Y1563D01*
X3929Y1563D02*
X3936Y1563D01*
X0Y1562D02*
X7Y1562D01*
X3929Y1562D02*
X3936Y1562D01*
X0Y1561D02*
X7Y1561D01*
X3929Y1561D02*
X3936Y1561D01*
X0Y1560D02*
X7Y1560D01*
X3929Y1560D02*
X3936Y1560D01*
X0Y1559D02*
X7Y1559D01*
X3929Y1559D02*
X3936Y1559D01*
X0Y1558D02*
X7Y1558D01*
X3929Y1558D02*
X3936Y1558D01*
X0Y1557D02*
X7Y1557D01*
X3929Y1557D02*
X3936Y1557D01*
X0Y1556D02*
X7Y1556D01*
X3929Y1556D02*
X3936Y1556D01*
X0Y1555D02*
X7Y1555D01*
X3929Y1555D02*
X3936Y1555D01*
X0Y1554D02*
X7Y1554D01*
X3929Y1554D02*
X3936Y1554D01*
X0Y1553D02*
X7Y1553D01*
X3929Y1553D02*
X3936Y1553D01*
X0Y1552D02*
X7Y1552D01*
X3929Y1552D02*
X3936Y1552D01*
X0Y1551D02*
X7Y1551D01*
X3929Y1551D02*
X3936Y1551D01*
X0Y1550D02*
X7Y1550D01*
X3929Y1550D02*
X3936Y1550D01*
X0Y1549D02*
X7Y1549D01*
X908Y1549D02*
X908Y1549D01*
X3929Y1549D02*
X3936Y1549D01*
X0Y1548D02*
X7Y1548D01*
X804Y1548D02*
X804Y1548D01*
X907Y1548D02*
X908Y1548D01*
X3929Y1548D02*
X3936Y1548D01*
X0Y1547D02*
X7Y1547D01*
X804Y1547D02*
X805Y1547D01*
X907Y1547D02*
X908Y1547D01*
X3929Y1547D02*
X3936Y1547D01*
X0Y1546D02*
X7Y1546D01*
X804Y1546D02*
X805Y1546D01*
X906Y1546D02*
X908Y1546D01*
X3929Y1546D02*
X3936Y1546D01*
X0Y1545D02*
X7Y1545D01*
X804Y1545D02*
X806Y1545D01*
X905Y1545D02*
X908Y1545D01*
X3929Y1545D02*
X3936Y1545D01*
X0Y1544D02*
X7Y1544D01*
X804Y1544D02*
X807Y1544D01*
X904Y1544D02*
X908Y1544D01*
X3929Y1544D02*
X3936Y1544D01*
X0Y1543D02*
X7Y1543D01*
X804Y1543D02*
X808Y1543D01*
X904Y1543D02*
X908Y1543D01*
X3929Y1543D02*
X3936Y1543D01*
X0Y1542D02*
X7Y1542D01*
X804Y1542D02*
X808Y1542D01*
X904Y1542D02*
X908Y1542D01*
X3929Y1542D02*
X3936Y1542D01*
X0Y1541D02*
X7Y1541D01*
X804Y1541D02*
X808Y1541D01*
X904Y1541D02*
X908Y1541D01*
X3929Y1541D02*
X3936Y1541D01*
X0Y1540D02*
X7Y1540D01*
X804Y1540D02*
X808Y1540D01*
X904Y1540D02*
X908Y1540D01*
X3929Y1540D02*
X3936Y1540D01*
X0Y1539D02*
X7Y1539D01*
X804Y1539D02*
X808Y1539D01*
X904Y1539D02*
X908Y1539D01*
X3929Y1539D02*
X3936Y1539D01*
X0Y1538D02*
X7Y1538D01*
X804Y1538D02*
X808Y1538D01*
X904Y1538D02*
X908Y1538D01*
X3929Y1538D02*
X3936Y1538D01*
X0Y1537D02*
X7Y1537D01*
X804Y1537D02*
X808Y1537D01*
X904Y1537D02*
X908Y1537D01*
X3929Y1537D02*
X3936Y1537D01*
X0Y1536D02*
X7Y1536D01*
X804Y1536D02*
X808Y1536D01*
X904Y1536D02*
X908Y1536D01*
X3929Y1536D02*
X3936Y1536D01*
X0Y1535D02*
X7Y1535D01*
X804Y1535D02*
X808Y1535D01*
X904Y1535D02*
X908Y1535D01*
X3929Y1535D02*
X3936Y1535D01*
X0Y1534D02*
X7Y1534D01*
X804Y1534D02*
X808Y1534D01*
X904Y1534D02*
X908Y1534D01*
X3929Y1534D02*
X3936Y1534D01*
X0Y1533D02*
X7Y1533D01*
X804Y1533D02*
X820Y1533D01*
X892Y1533D02*
X908Y1533D01*
X3929Y1533D02*
X3936Y1533D01*
X0Y1532D02*
X7Y1532D01*
X804Y1532D02*
X821Y1532D01*
X890Y1532D02*
X908Y1532D01*
X3929Y1532D02*
X3936Y1532D01*
X0Y1531D02*
X7Y1531D01*
X804Y1531D02*
X823Y1531D01*
X888Y1531D02*
X908Y1531D01*
X3929Y1531D02*
X3936Y1531D01*
X0Y1530D02*
X7Y1530D01*
X804Y1530D02*
X825Y1530D01*
X887Y1530D02*
X907Y1530D01*
X3929Y1530D02*
X3936Y1530D01*
X0Y1529D02*
X7Y1529D01*
X806Y1529D02*
X827Y1529D01*
X885Y1529D02*
X905Y1529D01*
X3929Y1529D02*
X3936Y1529D01*
X0Y1528D02*
X7Y1528D01*
X3929Y1528D02*
X3936Y1528D01*
X0Y1527D02*
X7Y1527D01*
X3929Y1527D02*
X3936Y1527D01*
X0Y1526D02*
X7Y1526D01*
X3929Y1526D02*
X3936Y1526D01*
X0Y1525D02*
X7Y1525D01*
X3929Y1525D02*
X3936Y1525D01*
X0Y1524D02*
X7Y1524D01*
X3929Y1524D02*
X3936Y1524D01*
X0Y1523D02*
X7Y1523D01*
X3929Y1523D02*
X3936Y1523D01*
X0Y1522D02*
X7Y1522D01*
X3929Y1522D02*
X3936Y1522D01*
X0Y1521D02*
X7Y1521D01*
X3929Y1521D02*
X3936Y1521D01*
X0Y1520D02*
X7Y1520D01*
X3929Y1520D02*
X3936Y1520D01*
X0Y1519D02*
X7Y1519D01*
X3929Y1519D02*
X3936Y1519D01*
X0Y1518D02*
X7Y1518D01*
X3929Y1518D02*
X3936Y1518D01*
X0Y1517D02*
X7Y1517D01*
X3929Y1517D02*
X3936Y1517D01*
X0Y1516D02*
X7Y1516D01*
X3929Y1516D02*
X3936Y1516D01*
X0Y1515D02*
X7Y1515D01*
X3929Y1515D02*
X3936Y1515D01*
X0Y1514D02*
X7Y1514D01*
X3929Y1514D02*
X3936Y1514D01*
X0Y1513D02*
X7Y1513D01*
X3929Y1513D02*
X3936Y1513D01*
X0Y1512D02*
X7Y1512D01*
X3929Y1512D02*
X3936Y1512D01*
X0Y1511D02*
X7Y1511D01*
X3929Y1511D02*
X3936Y1511D01*
X0Y1510D02*
X7Y1510D01*
X3929Y1510D02*
X3936Y1510D01*
X0Y1509D02*
X7Y1509D01*
X3929Y1509D02*
X3936Y1509D01*
X0Y1508D02*
X7Y1508D01*
X3929Y1508D02*
X3936Y1508D01*
X0Y1507D02*
X7Y1507D01*
X3929Y1507D02*
X3936Y1507D01*
X0Y1506D02*
X7Y1506D01*
X3929Y1506D02*
X3936Y1506D01*
X0Y1505D02*
X7Y1505D01*
X3929Y1505D02*
X3936Y1505D01*
X0Y1504D02*
X7Y1504D01*
X3929Y1504D02*
X3936Y1504D01*
X0Y1503D02*
X7Y1503D01*
X3929Y1503D02*
X3936Y1503D01*
X0Y1502D02*
X7Y1502D01*
X3929Y1502D02*
X3936Y1502D01*
X0Y1501D02*
X7Y1501D01*
X3929Y1501D02*
X3936Y1501D01*
X0Y1500D02*
X7Y1500D01*
X3929Y1500D02*
X3936Y1500D01*
X0Y1499D02*
X7Y1499D01*
X3929Y1499D02*
X3936Y1499D01*
X0Y1498D02*
X7Y1498D01*
X3929Y1498D02*
X3936Y1498D01*
X0Y1497D02*
X7Y1497D01*
X3929Y1497D02*
X3936Y1497D01*
X0Y1496D02*
X7Y1496D01*
X3929Y1496D02*
X3936Y1496D01*
X0Y1495D02*
X7Y1495D01*
X3929Y1495D02*
X3936Y1495D01*
X0Y1494D02*
X7Y1494D01*
X3929Y1494D02*
X3936Y1494D01*
X0Y1493D02*
X7Y1493D01*
X3929Y1493D02*
X3936Y1493D01*
X0Y1492D02*
X7Y1492D01*
X3929Y1492D02*
X3936Y1492D01*
X0Y1491D02*
X7Y1491D01*
X3929Y1491D02*
X3936Y1491D01*
X0Y1490D02*
X7Y1490D01*
X3929Y1490D02*
X3936Y1490D01*
X0Y1489D02*
X7Y1489D01*
X3929Y1489D02*
X3936Y1489D01*
X0Y1488D02*
X7Y1488D01*
X3929Y1488D02*
X3936Y1488D01*
X0Y1487D02*
X7Y1487D01*
X3929Y1487D02*
X3936Y1487D01*
X0Y1486D02*
X7Y1486D01*
X3929Y1486D02*
X3936Y1486D01*
X0Y1485D02*
X7Y1485D01*
X3929Y1485D02*
X3936Y1485D01*
X0Y1484D02*
X7Y1484D01*
X3929Y1484D02*
X3936Y1484D01*
X0Y1483D02*
X7Y1483D01*
X3929Y1483D02*
X3936Y1483D01*
X0Y1482D02*
X7Y1482D01*
X3929Y1482D02*
X3936Y1482D01*
X0Y1481D02*
X7Y1481D01*
X3929Y1481D02*
X3936Y1481D01*
X0Y1480D02*
X7Y1480D01*
X3929Y1480D02*
X3936Y1480D01*
X0Y1479D02*
X7Y1479D01*
X3929Y1479D02*
X3936Y1479D01*
X0Y1478D02*
X7Y1478D01*
X3929Y1478D02*
X3936Y1478D01*
X0Y1477D02*
X7Y1477D01*
X3929Y1477D02*
X3936Y1477D01*
X0Y1476D02*
X7Y1476D01*
X3929Y1476D02*
X3936Y1476D01*
X0Y1475D02*
X7Y1475D01*
X3929Y1475D02*
X3936Y1475D01*
X0Y1474D02*
X7Y1474D01*
X3929Y1474D02*
X3936Y1474D01*
X0Y1473D02*
X7Y1473D01*
X3929Y1473D02*
X3936Y1473D01*
X0Y1472D02*
X7Y1472D01*
X3929Y1472D02*
X3936Y1472D01*
X0Y1471D02*
X7Y1471D01*
X3929Y1471D02*
X3936Y1471D01*
X0Y1470D02*
X7Y1470D01*
X3929Y1470D02*
X3936Y1470D01*
X0Y1469D02*
X7Y1469D01*
X3929Y1469D02*
X3936Y1469D01*
X0Y1468D02*
X7Y1468D01*
X3929Y1468D02*
X3936Y1468D01*
X0Y1467D02*
X7Y1467D01*
X3929Y1467D02*
X3936Y1467D01*
X0Y1466D02*
X7Y1466D01*
X3929Y1466D02*
X3936Y1466D01*
X0Y1465D02*
X7Y1465D01*
X3929Y1465D02*
X3936Y1465D01*
X0Y1464D02*
X7Y1464D01*
X3929Y1464D02*
X3936Y1464D01*
X0Y1463D02*
X7Y1463D01*
X3929Y1463D02*
X3936Y1463D01*
X0Y1462D02*
X7Y1462D01*
X3929Y1462D02*
X3936Y1462D01*
X0Y1461D02*
X7Y1461D01*
X3929Y1461D02*
X3936Y1461D01*
X0Y1460D02*
X7Y1460D01*
X3929Y1460D02*
X3936Y1460D01*
X0Y1459D02*
X7Y1459D01*
X3929Y1459D02*
X3936Y1459D01*
X0Y1458D02*
X7Y1458D01*
X3929Y1458D02*
X3936Y1458D01*
X0Y1457D02*
X7Y1457D01*
X3929Y1457D02*
X3936Y1457D01*
X0Y1456D02*
X7Y1456D01*
X3929Y1456D02*
X3936Y1456D01*
X0Y1455D02*
X7Y1455D01*
X3929Y1455D02*
X3936Y1455D01*
X0Y1454D02*
X7Y1454D01*
X3929Y1454D02*
X3936Y1454D01*
X0Y1453D02*
X7Y1453D01*
X3929Y1453D02*
X3936Y1453D01*
X0Y1452D02*
X7Y1452D01*
X3929Y1452D02*
X3936Y1452D01*
X0Y1451D02*
X7Y1451D01*
X3929Y1451D02*
X3936Y1451D01*
X0Y1450D02*
X7Y1450D01*
X3929Y1450D02*
X3936Y1450D01*
X0Y1449D02*
X7Y1449D01*
X3929Y1449D02*
X3936Y1449D01*
X0Y1448D02*
X7Y1448D01*
X3929Y1448D02*
X3936Y1448D01*
X0Y1447D02*
X7Y1447D01*
X3929Y1447D02*
X3936Y1447D01*
X0Y1446D02*
X7Y1446D01*
X3929Y1446D02*
X3936Y1446D01*
X0Y1445D02*
X7Y1445D01*
X3929Y1445D02*
X3936Y1445D01*
X0Y1444D02*
X7Y1444D01*
X3929Y1444D02*
X3936Y1444D01*
X0Y1443D02*
X7Y1443D01*
X3929Y1443D02*
X3936Y1443D01*
X0Y1442D02*
X7Y1442D01*
X3929Y1442D02*
X3936Y1442D01*
X0Y1441D02*
X7Y1441D01*
X3929Y1441D02*
X3936Y1441D01*
X0Y1440D02*
X7Y1440D01*
X3929Y1440D02*
X3936Y1440D01*
X0Y1439D02*
X7Y1439D01*
X3929Y1439D02*
X3936Y1439D01*
X0Y1438D02*
X7Y1438D01*
X3929Y1438D02*
X3936Y1438D01*
X0Y1437D02*
X7Y1437D01*
X3929Y1437D02*
X3936Y1437D01*
X0Y1436D02*
X7Y1436D01*
X3929Y1436D02*
X3936Y1436D01*
X0Y1435D02*
X7Y1435D01*
X3929Y1435D02*
X3936Y1435D01*
X0Y1434D02*
X7Y1434D01*
X3929Y1434D02*
X3936Y1434D01*
X0Y1433D02*
X7Y1433D01*
X3929Y1433D02*
X3936Y1433D01*
X0Y1432D02*
X7Y1432D01*
X3929Y1432D02*
X3936Y1432D01*
X0Y1431D02*
X7Y1431D01*
X3929Y1431D02*
X3936Y1431D01*
X0Y1430D02*
X7Y1430D01*
X3929Y1430D02*
X3936Y1430D01*
X0Y1429D02*
X7Y1429D01*
X3929Y1429D02*
X3936Y1429D01*
X0Y1428D02*
X7Y1428D01*
X3929Y1428D02*
X3936Y1428D01*
X0Y1427D02*
X7Y1427D01*
X3929Y1427D02*
X3936Y1427D01*
X0Y1426D02*
X7Y1426D01*
X3929Y1426D02*
X3936Y1426D01*
X0Y1425D02*
X7Y1425D01*
X3929Y1425D02*
X3936Y1425D01*
X0Y1424D02*
X7Y1424D01*
X3929Y1424D02*
X3936Y1424D01*
X0Y1423D02*
X7Y1423D01*
X3929Y1423D02*
X3936Y1423D01*
X0Y1422D02*
X7Y1422D01*
X3929Y1422D02*
X3936Y1422D01*
X0Y1421D02*
X7Y1421D01*
X3929Y1421D02*
X3936Y1421D01*
X0Y1420D02*
X7Y1420D01*
X3929Y1420D02*
X3936Y1420D01*
X0Y1419D02*
X7Y1419D01*
X3929Y1419D02*
X3936Y1419D01*
X0Y1418D02*
X7Y1418D01*
X3929Y1418D02*
X3936Y1418D01*
X0Y1417D02*
X7Y1417D01*
X3929Y1417D02*
X3936Y1417D01*
X0Y1416D02*
X7Y1416D01*
X3929Y1416D02*
X3936Y1416D01*
X0Y1415D02*
X7Y1415D01*
X3929Y1415D02*
X3936Y1415D01*
X0Y1414D02*
X7Y1414D01*
X3929Y1414D02*
X3936Y1414D01*
X0Y1413D02*
X7Y1413D01*
X3929Y1413D02*
X3936Y1413D01*
X0Y1412D02*
X7Y1412D01*
X3929Y1412D02*
X3936Y1412D01*
X0Y1411D02*
X7Y1411D01*
X3929Y1411D02*
X3936Y1411D01*
X0Y1410D02*
X7Y1410D01*
X3929Y1410D02*
X3936Y1410D01*
X0Y1409D02*
X7Y1409D01*
X3929Y1409D02*
X3936Y1409D01*
X0Y1408D02*
X7Y1408D01*
X3929Y1408D02*
X3936Y1408D01*
X0Y1407D02*
X7Y1407D01*
X3929Y1407D02*
X3936Y1407D01*
X0Y1406D02*
X7Y1406D01*
X3929Y1406D02*
X3936Y1406D01*
X0Y1405D02*
X7Y1405D01*
X3929Y1405D02*
X3936Y1405D01*
X0Y1404D02*
X7Y1404D01*
X3929Y1404D02*
X3936Y1404D01*
X0Y1403D02*
X7Y1403D01*
X3929Y1403D02*
X3936Y1403D01*
X0Y1402D02*
X7Y1402D01*
X3929Y1402D02*
X3936Y1402D01*
X0Y1401D02*
X7Y1401D01*
X3929Y1401D02*
X3936Y1401D01*
X0Y1400D02*
X7Y1400D01*
X3929Y1400D02*
X3936Y1400D01*
X0Y1399D02*
X7Y1399D01*
X3929Y1399D02*
X3936Y1399D01*
X0Y1398D02*
X7Y1398D01*
X3929Y1398D02*
X3936Y1398D01*
X0Y1397D02*
X7Y1397D01*
X3929Y1397D02*
X3936Y1397D01*
X0Y1396D02*
X7Y1396D01*
X3929Y1396D02*
X3936Y1396D01*
X0Y1395D02*
X7Y1395D01*
X3929Y1395D02*
X3936Y1395D01*
X0Y1394D02*
X7Y1394D01*
X3929Y1394D02*
X3936Y1394D01*
X0Y1393D02*
X7Y1393D01*
X3929Y1393D02*
X3936Y1393D01*
X0Y1392D02*
X7Y1392D01*
X3929Y1392D02*
X3936Y1392D01*
X0Y1391D02*
X7Y1391D01*
X3929Y1391D02*
X3936Y1391D01*
X0Y1390D02*
X7Y1390D01*
X3929Y1390D02*
X3936Y1390D01*
X0Y1389D02*
X7Y1389D01*
X3929Y1389D02*
X3936Y1389D01*
X0Y1388D02*
X7Y1388D01*
X3929Y1388D02*
X3936Y1388D01*
X0Y1387D02*
X7Y1387D01*
X3929Y1387D02*
X3936Y1387D01*
X0Y1386D02*
X7Y1386D01*
X3929Y1386D02*
X3936Y1386D01*
X0Y1385D02*
X7Y1385D01*
X3929Y1385D02*
X3936Y1385D01*
X0Y1384D02*
X7Y1384D01*
X3929Y1384D02*
X3936Y1384D01*
X0Y1383D02*
X7Y1383D01*
X3929Y1383D02*
X3936Y1383D01*
X0Y1382D02*
X7Y1382D01*
X3929Y1382D02*
X3936Y1382D01*
X0Y1381D02*
X7Y1381D01*
X3929Y1381D02*
X3936Y1381D01*
X0Y1380D02*
X7Y1380D01*
X3929Y1380D02*
X3936Y1380D01*
X0Y1379D02*
X7Y1379D01*
X3929Y1379D02*
X3936Y1379D01*
X0Y1378D02*
X7Y1378D01*
X3929Y1378D02*
X3936Y1378D01*
X0Y1377D02*
X7Y1377D01*
X3929Y1377D02*
X3936Y1377D01*
X0Y1376D02*
X7Y1376D01*
X3929Y1376D02*
X3936Y1376D01*
X0Y1375D02*
X7Y1375D01*
X3929Y1375D02*
X3936Y1375D01*
X0Y1374D02*
X7Y1374D01*
X3929Y1374D02*
X3936Y1374D01*
X0Y1373D02*
X7Y1373D01*
X3929Y1373D02*
X3936Y1373D01*
X0Y1372D02*
X7Y1372D01*
X3929Y1372D02*
X3936Y1372D01*
X0Y1371D02*
X7Y1371D01*
X3929Y1371D02*
X3936Y1371D01*
X0Y1370D02*
X7Y1370D01*
X3929Y1370D02*
X3936Y1370D01*
X0Y1369D02*
X7Y1369D01*
X3929Y1369D02*
X3936Y1369D01*
X0Y1368D02*
X7Y1368D01*
X3929Y1368D02*
X3936Y1368D01*
X0Y1367D02*
X7Y1367D01*
X3929Y1367D02*
X3936Y1367D01*
X0Y1366D02*
X7Y1366D01*
X3929Y1366D02*
X3936Y1366D01*
X0Y1365D02*
X7Y1365D01*
X3929Y1365D02*
X3936Y1365D01*
X0Y1364D02*
X7Y1364D01*
X3929Y1364D02*
X3936Y1364D01*
X0Y1363D02*
X7Y1363D01*
X3929Y1363D02*
X3936Y1363D01*
X0Y1362D02*
X7Y1362D01*
X3929Y1362D02*
X3936Y1362D01*
X0Y1361D02*
X7Y1361D01*
X3929Y1361D02*
X3936Y1361D01*
X0Y1360D02*
X7Y1360D01*
X3929Y1360D02*
X3936Y1360D01*
X0Y1359D02*
X7Y1359D01*
X3929Y1359D02*
X3936Y1359D01*
X0Y1358D02*
X7Y1358D01*
X3929Y1358D02*
X3936Y1358D01*
X0Y1357D02*
X7Y1357D01*
X3929Y1357D02*
X3936Y1357D01*
X0Y1356D02*
X7Y1356D01*
X3929Y1356D02*
X3936Y1356D01*
X0Y1355D02*
X7Y1355D01*
X3929Y1355D02*
X3936Y1355D01*
X0Y1354D02*
X7Y1354D01*
X3929Y1354D02*
X3936Y1354D01*
X0Y1353D02*
X7Y1353D01*
X3929Y1353D02*
X3936Y1353D01*
X0Y1352D02*
X7Y1352D01*
X3929Y1352D02*
X3936Y1352D01*
X0Y1351D02*
X7Y1351D01*
X3929Y1351D02*
X3936Y1351D01*
X0Y1350D02*
X7Y1350D01*
X3929Y1350D02*
X3936Y1350D01*
X0Y1349D02*
X7Y1349D01*
X3929Y1349D02*
X3936Y1349D01*
X0Y1348D02*
X7Y1348D01*
X3929Y1348D02*
X3936Y1348D01*
X0Y1347D02*
X7Y1347D01*
X3929Y1347D02*
X3936Y1347D01*
X0Y1346D02*
X7Y1346D01*
X3929Y1346D02*
X3936Y1346D01*
X0Y1345D02*
X7Y1345D01*
X3929Y1345D02*
X3936Y1345D01*
X0Y1344D02*
X7Y1344D01*
X3929Y1344D02*
X3936Y1344D01*
X0Y1343D02*
X7Y1343D01*
X3929Y1343D02*
X3936Y1343D01*
X0Y1342D02*
X7Y1342D01*
X3929Y1342D02*
X3936Y1342D01*
X0Y1341D02*
X7Y1341D01*
X3929Y1341D02*
X3936Y1341D01*
X0Y1340D02*
X7Y1340D01*
X3929Y1340D02*
X3936Y1340D01*
X0Y1339D02*
X7Y1339D01*
X3929Y1339D02*
X3936Y1339D01*
X0Y1338D02*
X7Y1338D01*
X3929Y1338D02*
X3936Y1338D01*
X0Y1337D02*
X7Y1337D01*
X3929Y1337D02*
X3936Y1337D01*
X0Y1336D02*
X7Y1336D01*
X3929Y1336D02*
X3936Y1336D01*
X0Y1335D02*
X7Y1335D01*
X3929Y1335D02*
X3936Y1335D01*
X0Y1334D02*
X7Y1334D01*
X3929Y1334D02*
X3936Y1334D01*
X0Y1333D02*
X7Y1333D01*
X3929Y1333D02*
X3936Y1333D01*
X0Y1332D02*
X7Y1332D01*
X3929Y1332D02*
X3936Y1332D01*
X0Y1331D02*
X7Y1331D01*
X3929Y1331D02*
X3936Y1331D01*
X0Y1330D02*
X7Y1330D01*
X3929Y1330D02*
X3936Y1330D01*
X0Y1329D02*
X7Y1329D01*
X3929Y1329D02*
X3936Y1329D01*
X0Y1328D02*
X7Y1328D01*
X3929Y1328D02*
X3936Y1328D01*
X0Y1327D02*
X7Y1327D01*
X3929Y1327D02*
X3936Y1327D01*
X0Y1326D02*
X7Y1326D01*
X3929Y1326D02*
X3936Y1326D01*
X0Y1325D02*
X7Y1325D01*
X3929Y1325D02*
X3936Y1325D01*
X0Y1324D02*
X7Y1324D01*
X3929Y1324D02*
X3936Y1324D01*
X0Y1323D02*
X7Y1323D01*
X3929Y1323D02*
X3936Y1323D01*
X0Y1322D02*
X7Y1322D01*
X3929Y1322D02*
X3936Y1322D01*
X0Y1321D02*
X7Y1321D01*
X3929Y1321D02*
X3936Y1321D01*
X0Y1320D02*
X7Y1320D01*
X3929Y1320D02*
X3936Y1320D01*
X0Y1319D02*
X7Y1319D01*
X3929Y1319D02*
X3936Y1319D01*
X0Y1318D02*
X7Y1318D01*
X3929Y1318D02*
X3936Y1318D01*
X0Y1317D02*
X7Y1317D01*
X3929Y1317D02*
X3936Y1317D01*
X0Y1316D02*
X7Y1316D01*
X3929Y1316D02*
X3936Y1316D01*
X0Y1315D02*
X7Y1315D01*
X3929Y1315D02*
X3936Y1315D01*
X0Y1314D02*
X7Y1314D01*
X3929Y1314D02*
X3936Y1314D01*
X0Y1313D02*
X7Y1313D01*
X3929Y1313D02*
X3936Y1313D01*
X0Y1312D02*
X7Y1312D01*
X3929Y1312D02*
X3936Y1312D01*
X0Y1311D02*
X7Y1311D01*
X3929Y1311D02*
X3936Y1311D01*
X0Y1310D02*
X7Y1310D01*
X3929Y1310D02*
X3936Y1310D01*
X0Y1309D02*
X7Y1309D01*
X3929Y1309D02*
X3936Y1309D01*
X0Y1308D02*
X7Y1308D01*
X3929Y1308D02*
X3936Y1308D01*
X0Y1307D02*
X7Y1307D01*
X3929Y1307D02*
X3936Y1307D01*
X0Y1306D02*
X7Y1306D01*
X3929Y1306D02*
X3936Y1306D01*
X0Y1305D02*
X7Y1305D01*
X3929Y1305D02*
X3936Y1305D01*
X0Y1304D02*
X7Y1304D01*
X3929Y1304D02*
X3936Y1304D01*
X0Y1303D02*
X7Y1303D01*
X3929Y1303D02*
X3936Y1303D01*
X0Y1302D02*
X7Y1302D01*
X3929Y1302D02*
X3936Y1302D01*
X0Y1301D02*
X7Y1301D01*
X3929Y1301D02*
X3936Y1301D01*
X0Y1300D02*
X7Y1300D01*
X3929Y1300D02*
X3936Y1300D01*
X0Y1299D02*
X7Y1299D01*
X3929Y1299D02*
X3936Y1299D01*
X0Y1298D02*
X7Y1298D01*
X3929Y1298D02*
X3936Y1298D01*
X0Y1297D02*
X7Y1297D01*
X3929Y1297D02*
X3936Y1297D01*
X0Y1296D02*
X7Y1296D01*
X3929Y1296D02*
X3936Y1296D01*
X0Y1295D02*
X7Y1295D01*
X3929Y1295D02*
X3936Y1295D01*
X0Y1294D02*
X7Y1294D01*
X3929Y1294D02*
X3936Y1294D01*
X0Y1293D02*
X7Y1293D01*
X3929Y1293D02*
X3936Y1293D01*
X0Y1292D02*
X7Y1292D01*
X3929Y1292D02*
X3936Y1292D01*
X0Y1291D02*
X7Y1291D01*
X3929Y1291D02*
X3936Y1291D01*
X0Y1290D02*
X7Y1290D01*
X3929Y1290D02*
X3936Y1290D01*
X0Y1289D02*
X7Y1289D01*
X3929Y1289D02*
X3936Y1289D01*
X0Y1288D02*
X7Y1288D01*
X3929Y1288D02*
X3936Y1288D01*
X0Y1287D02*
X7Y1287D01*
X3929Y1287D02*
X3936Y1287D01*
X0Y1286D02*
X7Y1286D01*
X3929Y1286D02*
X3936Y1286D01*
X0Y1285D02*
X7Y1285D01*
X3929Y1285D02*
X3936Y1285D01*
X0Y1284D02*
X7Y1284D01*
X3929Y1284D02*
X3936Y1284D01*
X0Y1283D02*
X7Y1283D01*
X3929Y1283D02*
X3936Y1283D01*
X0Y1282D02*
X7Y1282D01*
X3929Y1282D02*
X3936Y1282D01*
X0Y1281D02*
X7Y1281D01*
X3929Y1281D02*
X3936Y1281D01*
X0Y1280D02*
X7Y1280D01*
X3929Y1280D02*
X3936Y1280D01*
X0Y1279D02*
X7Y1279D01*
X3929Y1279D02*
X3936Y1279D01*
X0Y1278D02*
X7Y1278D01*
X3929Y1278D02*
X3936Y1278D01*
X0Y1277D02*
X7Y1277D01*
X3929Y1277D02*
X3936Y1277D01*
X0Y1276D02*
X7Y1276D01*
X3929Y1276D02*
X3936Y1276D01*
X0Y1275D02*
X7Y1275D01*
X3929Y1275D02*
X3936Y1275D01*
X0Y1274D02*
X7Y1274D01*
X3929Y1274D02*
X3936Y1274D01*
X0Y1273D02*
X7Y1273D01*
X3929Y1273D02*
X3936Y1273D01*
X0Y1272D02*
X7Y1272D01*
X3929Y1272D02*
X3936Y1272D01*
X0Y1271D02*
X7Y1271D01*
X3929Y1271D02*
X3936Y1271D01*
X0Y1270D02*
X7Y1270D01*
X3929Y1270D02*
X3936Y1270D01*
X0Y1269D02*
X7Y1269D01*
X3929Y1269D02*
X3936Y1269D01*
X0Y1268D02*
X7Y1268D01*
X3929Y1268D02*
X3936Y1268D01*
X0Y1267D02*
X7Y1267D01*
X3929Y1267D02*
X3936Y1267D01*
X0Y1266D02*
X7Y1266D01*
X3929Y1266D02*
X3936Y1266D01*
X0Y1265D02*
X7Y1265D01*
X3929Y1265D02*
X3936Y1265D01*
X0Y1264D02*
X7Y1264D01*
X3929Y1264D02*
X3936Y1264D01*
X0Y1263D02*
X7Y1263D01*
X3929Y1263D02*
X3936Y1263D01*
X0Y1262D02*
X7Y1262D01*
X3929Y1262D02*
X3936Y1262D01*
X0Y1261D02*
X7Y1261D01*
X3929Y1261D02*
X3936Y1261D01*
X0Y1260D02*
X7Y1260D01*
X3929Y1260D02*
X3936Y1260D01*
X0Y1259D02*
X7Y1259D01*
X3929Y1259D02*
X3936Y1259D01*
X0Y1258D02*
X7Y1258D01*
X3929Y1258D02*
X3936Y1258D01*
X0Y1257D02*
X7Y1257D01*
X3929Y1257D02*
X3936Y1257D01*
X0Y1256D02*
X7Y1256D01*
X3929Y1256D02*
X3936Y1256D01*
X0Y1255D02*
X7Y1255D01*
X3929Y1255D02*
X3936Y1255D01*
X0Y1254D02*
X7Y1254D01*
X3929Y1254D02*
X3936Y1254D01*
X0Y1253D02*
X7Y1253D01*
X3929Y1253D02*
X3936Y1253D01*
X0Y1252D02*
X7Y1252D01*
X3929Y1252D02*
X3936Y1252D01*
X0Y1251D02*
X7Y1251D01*
X3929Y1251D02*
X3936Y1251D01*
X0Y1250D02*
X7Y1250D01*
X3929Y1250D02*
X3936Y1250D01*
X0Y1249D02*
X7Y1249D01*
X3929Y1249D02*
X3936Y1249D01*
X0Y1248D02*
X7Y1248D01*
X3929Y1248D02*
X3936Y1248D01*
X0Y1247D02*
X7Y1247D01*
X3929Y1247D02*
X3936Y1247D01*
X0Y1246D02*
X7Y1246D01*
X3929Y1246D02*
X3936Y1246D01*
X0Y1245D02*
X7Y1245D01*
X3929Y1245D02*
X3936Y1245D01*
X0Y1244D02*
X7Y1244D01*
X3929Y1244D02*
X3936Y1244D01*
X0Y1243D02*
X7Y1243D01*
X3929Y1243D02*
X3936Y1243D01*
X0Y1242D02*
X7Y1242D01*
X3929Y1242D02*
X3936Y1242D01*
X0Y1241D02*
X7Y1241D01*
X3929Y1241D02*
X3936Y1241D01*
X0Y1240D02*
X7Y1240D01*
X3929Y1240D02*
X3936Y1240D01*
X0Y1239D02*
X7Y1239D01*
X3929Y1239D02*
X3936Y1239D01*
X0Y1238D02*
X7Y1238D01*
X3929Y1238D02*
X3936Y1238D01*
X0Y1237D02*
X7Y1237D01*
X3929Y1237D02*
X3936Y1237D01*
X0Y1236D02*
X7Y1236D01*
X3929Y1236D02*
X3936Y1236D01*
X0Y1235D02*
X7Y1235D01*
X3929Y1235D02*
X3936Y1235D01*
X0Y1234D02*
X7Y1234D01*
X3929Y1234D02*
X3936Y1234D01*
X0Y1233D02*
X7Y1233D01*
X3929Y1233D02*
X3936Y1233D01*
X0Y1232D02*
X7Y1232D01*
X3929Y1232D02*
X3936Y1232D01*
X0Y1231D02*
X7Y1231D01*
X3929Y1231D02*
X3936Y1231D01*
X0Y1230D02*
X7Y1230D01*
X3929Y1230D02*
X3936Y1230D01*
X0Y1229D02*
X7Y1229D01*
X3929Y1229D02*
X3936Y1229D01*
X0Y1228D02*
X7Y1228D01*
X3929Y1228D02*
X3936Y1228D01*
X0Y1227D02*
X7Y1227D01*
X3929Y1227D02*
X3936Y1227D01*
X0Y1226D02*
X7Y1226D01*
X3929Y1226D02*
X3936Y1226D01*
X0Y1225D02*
X7Y1225D01*
X3929Y1225D02*
X3936Y1225D01*
X0Y1224D02*
X7Y1224D01*
X3929Y1224D02*
X3936Y1224D01*
X0Y1223D02*
X7Y1223D01*
X3929Y1223D02*
X3936Y1223D01*
X0Y1222D02*
X7Y1222D01*
X3929Y1222D02*
X3936Y1222D01*
X0Y1221D02*
X7Y1221D01*
X3929Y1221D02*
X3936Y1221D01*
X0Y1220D02*
X7Y1220D01*
X3929Y1220D02*
X3936Y1220D01*
X0Y1219D02*
X7Y1219D01*
X3929Y1219D02*
X3936Y1219D01*
X0Y1218D02*
X7Y1218D01*
X3929Y1218D02*
X3936Y1218D01*
X0Y1217D02*
X7Y1217D01*
X3929Y1217D02*
X3936Y1217D01*
X0Y1216D02*
X7Y1216D01*
X3929Y1216D02*
X3936Y1216D01*
X0Y1215D02*
X7Y1215D01*
X3929Y1215D02*
X3936Y1215D01*
X0Y1214D02*
X7Y1214D01*
X3929Y1214D02*
X3936Y1214D01*
X0Y1213D02*
X7Y1213D01*
X3929Y1213D02*
X3936Y1213D01*
X0Y1212D02*
X7Y1212D01*
X3929Y1212D02*
X3936Y1212D01*
X0Y1211D02*
X7Y1211D01*
X3929Y1211D02*
X3936Y1211D01*
X0Y1210D02*
X7Y1210D01*
X3929Y1210D02*
X3936Y1210D01*
X0Y1209D02*
X7Y1209D01*
X3929Y1209D02*
X3936Y1209D01*
X0Y1208D02*
X7Y1208D01*
X3929Y1208D02*
X3936Y1208D01*
X0Y1207D02*
X7Y1207D01*
X3929Y1207D02*
X3936Y1207D01*
X0Y1206D02*
X7Y1206D01*
X3929Y1206D02*
X3936Y1206D01*
X0Y1205D02*
X7Y1205D01*
X3929Y1205D02*
X3936Y1205D01*
X0Y1204D02*
X7Y1204D01*
X3929Y1204D02*
X3936Y1204D01*
X0Y1203D02*
X7Y1203D01*
X3929Y1203D02*
X3936Y1203D01*
X0Y1202D02*
X7Y1202D01*
X3929Y1202D02*
X3936Y1202D01*
X0Y1201D02*
X7Y1201D01*
X3929Y1201D02*
X3936Y1201D01*
X0Y1200D02*
X7Y1200D01*
X3929Y1200D02*
X3936Y1200D01*
X0Y1199D02*
X7Y1199D01*
X3929Y1199D02*
X3936Y1199D01*
X0Y1198D02*
X7Y1198D01*
X3929Y1198D02*
X3936Y1198D01*
X0Y1197D02*
X7Y1197D01*
X3929Y1197D02*
X3936Y1197D01*
X0Y1196D02*
X7Y1196D01*
X3929Y1196D02*
X3936Y1196D01*
X0Y1195D02*
X7Y1195D01*
X3929Y1195D02*
X3936Y1195D01*
X0Y1194D02*
X7Y1194D01*
X3929Y1194D02*
X3936Y1194D01*
X0Y1193D02*
X7Y1193D01*
X3929Y1193D02*
X3936Y1193D01*
X0Y1192D02*
X7Y1192D01*
X3929Y1192D02*
X3936Y1192D01*
X0Y1191D02*
X7Y1191D01*
X3929Y1191D02*
X3936Y1191D01*
X0Y1190D02*
X7Y1190D01*
X3929Y1190D02*
X3936Y1190D01*
X0Y1189D02*
X7Y1189D01*
X3929Y1189D02*
X3936Y1189D01*
X0Y1188D02*
X7Y1188D01*
X3929Y1188D02*
X3936Y1188D01*
X0Y1187D02*
X7Y1187D01*
X3929Y1187D02*
X3936Y1187D01*
X0Y1186D02*
X7Y1186D01*
X3929Y1186D02*
X3936Y1186D01*
X0Y1185D02*
X7Y1185D01*
X3929Y1185D02*
X3936Y1185D01*
X0Y1184D02*
X7Y1184D01*
X3929Y1184D02*
X3936Y1184D01*
X0Y1183D02*
X7Y1183D01*
X3929Y1183D02*
X3936Y1183D01*
X0Y1182D02*
X7Y1182D01*
X3929Y1182D02*
X3936Y1182D01*
X0Y1181D02*
X7Y1181D01*
X3929Y1181D02*
X3936Y1181D01*
X0Y1180D02*
X7Y1180D01*
X3929Y1180D02*
X3936Y1180D01*
X0Y1179D02*
X7Y1179D01*
X3929Y1179D02*
X3936Y1179D01*
X0Y1178D02*
X7Y1178D01*
X3929Y1178D02*
X3936Y1178D01*
X0Y1177D02*
X7Y1177D01*
X3929Y1177D02*
X3936Y1177D01*
X0Y1176D02*
X7Y1176D01*
X3929Y1176D02*
X3936Y1176D01*
X0Y1175D02*
X7Y1175D01*
X3929Y1175D02*
X3936Y1175D01*
X0Y1174D02*
X7Y1174D01*
X3929Y1174D02*
X3936Y1174D01*
X0Y1173D02*
X7Y1173D01*
X3929Y1173D02*
X3936Y1173D01*
X0Y1172D02*
X7Y1172D01*
X3929Y1172D02*
X3936Y1172D01*
X0Y1171D02*
X7Y1171D01*
X3929Y1171D02*
X3936Y1171D01*
X0Y1170D02*
X7Y1170D01*
X3929Y1170D02*
X3936Y1170D01*
X0Y1169D02*
X7Y1169D01*
X3929Y1169D02*
X3936Y1169D01*
X0Y1168D02*
X7Y1168D01*
X3929Y1168D02*
X3936Y1168D01*
X0Y1167D02*
X7Y1167D01*
X3929Y1167D02*
X3936Y1167D01*
X0Y1166D02*
X7Y1166D01*
X3929Y1166D02*
X3936Y1166D01*
X0Y1165D02*
X7Y1165D01*
X3929Y1165D02*
X3936Y1165D01*
X0Y1164D02*
X7Y1164D01*
X3929Y1164D02*
X3936Y1164D01*
X0Y1163D02*
X7Y1163D01*
X3929Y1163D02*
X3936Y1163D01*
X0Y1162D02*
X7Y1162D01*
X3929Y1162D02*
X3936Y1162D01*
X0Y1161D02*
X7Y1161D01*
X3929Y1161D02*
X3936Y1161D01*
X0Y1160D02*
X7Y1160D01*
X3929Y1160D02*
X3936Y1160D01*
X0Y1159D02*
X7Y1159D01*
X3929Y1159D02*
X3936Y1159D01*
X0Y1158D02*
X7Y1158D01*
X3929Y1158D02*
X3936Y1158D01*
X0Y1157D02*
X7Y1157D01*
X3929Y1157D02*
X3936Y1157D01*
X0Y1156D02*
X7Y1156D01*
X3929Y1156D02*
X3936Y1156D01*
X0Y1155D02*
X7Y1155D01*
X3929Y1155D02*
X3936Y1155D01*
X0Y1154D02*
X7Y1154D01*
X3929Y1154D02*
X3936Y1154D01*
X0Y1153D02*
X7Y1153D01*
X3929Y1153D02*
X3936Y1153D01*
X0Y1152D02*
X7Y1152D01*
X3929Y1152D02*
X3936Y1152D01*
X0Y1151D02*
X7Y1151D01*
X3929Y1151D02*
X3936Y1151D01*
X0Y1150D02*
X7Y1150D01*
X3929Y1150D02*
X3936Y1150D01*
X0Y1149D02*
X7Y1149D01*
X3929Y1149D02*
X3936Y1149D01*
X0Y1148D02*
X7Y1148D01*
X3929Y1148D02*
X3936Y1148D01*
X0Y1147D02*
X7Y1147D01*
X3929Y1147D02*
X3936Y1147D01*
X0Y1146D02*
X7Y1146D01*
X3929Y1146D02*
X3936Y1146D01*
X0Y1145D02*
X7Y1145D01*
X3929Y1145D02*
X3936Y1145D01*
X0Y1144D02*
X7Y1144D01*
X3929Y1144D02*
X3936Y1144D01*
X0Y1143D02*
X7Y1143D01*
X3929Y1143D02*
X3936Y1143D01*
X0Y1142D02*
X7Y1142D01*
X3929Y1142D02*
X3936Y1142D01*
X0Y1141D02*
X7Y1141D01*
X3929Y1141D02*
X3936Y1141D01*
X0Y1140D02*
X7Y1140D01*
X3929Y1140D02*
X3936Y1140D01*
X0Y1139D02*
X7Y1139D01*
X3929Y1139D02*
X3936Y1139D01*
X0Y1138D02*
X7Y1138D01*
X3929Y1138D02*
X3936Y1138D01*
X0Y1137D02*
X7Y1137D01*
X3929Y1137D02*
X3936Y1137D01*
X0Y1136D02*
X7Y1136D01*
X3929Y1136D02*
X3936Y1136D01*
X0Y1135D02*
X7Y1135D01*
X3929Y1135D02*
X3936Y1135D01*
X0Y1134D02*
X7Y1134D01*
X3929Y1134D02*
X3936Y1134D01*
X0Y1133D02*
X7Y1133D01*
X3929Y1133D02*
X3936Y1133D01*
X0Y1132D02*
X7Y1132D01*
X3929Y1132D02*
X3936Y1132D01*
X0Y1131D02*
X7Y1131D01*
X3929Y1131D02*
X3936Y1131D01*
X0Y1130D02*
X7Y1130D01*
X3929Y1130D02*
X3936Y1130D01*
X0Y1129D02*
X7Y1129D01*
X3929Y1129D02*
X3936Y1129D01*
X0Y1128D02*
X7Y1128D01*
X3929Y1128D02*
X3936Y1128D01*
X0Y1127D02*
X7Y1127D01*
X3929Y1127D02*
X3936Y1127D01*
X0Y1126D02*
X7Y1126D01*
X3929Y1126D02*
X3936Y1126D01*
X0Y1125D02*
X7Y1125D01*
X3929Y1125D02*
X3936Y1125D01*
X0Y1124D02*
X7Y1124D01*
X3929Y1124D02*
X3936Y1124D01*
X0Y1123D02*
X7Y1123D01*
X3929Y1123D02*
X3936Y1123D01*
X0Y1122D02*
X7Y1122D01*
X3929Y1122D02*
X3936Y1122D01*
X0Y1121D02*
X7Y1121D01*
X3929Y1121D02*
X3936Y1121D01*
X0Y1120D02*
X7Y1120D01*
X3929Y1120D02*
X3936Y1120D01*
X0Y1119D02*
X7Y1119D01*
X3929Y1119D02*
X3936Y1119D01*
X0Y1118D02*
X7Y1118D01*
X3929Y1118D02*
X3936Y1118D01*
X0Y1117D02*
X7Y1117D01*
X3929Y1117D02*
X3936Y1117D01*
X0Y1116D02*
X7Y1116D01*
X3929Y1116D02*
X3936Y1116D01*
X0Y1115D02*
X7Y1115D01*
X3929Y1115D02*
X3936Y1115D01*
X0Y1114D02*
X7Y1114D01*
X3929Y1114D02*
X3936Y1114D01*
X0Y1113D02*
X7Y1113D01*
X3929Y1113D02*
X3936Y1113D01*
X0Y1112D02*
X7Y1112D01*
X3929Y1112D02*
X3936Y1112D01*
X0Y1111D02*
X7Y1111D01*
X3929Y1111D02*
X3936Y1111D01*
X0Y1110D02*
X7Y1110D01*
X3929Y1110D02*
X3936Y1110D01*
X0Y1109D02*
X7Y1109D01*
X3929Y1109D02*
X3936Y1109D01*
X0Y1108D02*
X7Y1108D01*
X3929Y1108D02*
X3936Y1108D01*
X0Y1107D02*
X7Y1107D01*
X3929Y1107D02*
X3936Y1107D01*
X0Y1106D02*
X7Y1106D01*
X3929Y1106D02*
X3936Y1106D01*
X0Y1105D02*
X7Y1105D01*
X3929Y1105D02*
X3936Y1105D01*
X0Y1104D02*
X7Y1104D01*
X3929Y1104D02*
X3936Y1104D01*
X0Y1103D02*
X7Y1103D01*
X3929Y1103D02*
X3936Y1103D01*
X0Y1102D02*
X7Y1102D01*
X3929Y1102D02*
X3936Y1102D01*
X0Y1101D02*
X7Y1101D01*
X3929Y1101D02*
X3936Y1101D01*
X0Y1100D02*
X7Y1100D01*
X3929Y1100D02*
X3936Y1100D01*
X0Y1099D02*
X7Y1099D01*
X3929Y1099D02*
X3936Y1099D01*
X0Y1098D02*
X7Y1098D01*
X3929Y1098D02*
X3936Y1098D01*
X0Y1097D02*
X7Y1097D01*
X3929Y1097D02*
X3936Y1097D01*
X0Y1096D02*
X7Y1096D01*
X3929Y1096D02*
X3936Y1096D01*
X0Y1095D02*
X7Y1095D01*
X3929Y1095D02*
X3936Y1095D01*
X0Y1094D02*
X7Y1094D01*
X3929Y1094D02*
X3936Y1094D01*
X0Y1093D02*
X7Y1093D01*
X3929Y1093D02*
X3936Y1093D01*
X0Y1092D02*
X7Y1092D01*
X3929Y1092D02*
X3936Y1092D01*
X0Y1091D02*
X7Y1091D01*
X3929Y1091D02*
X3936Y1091D01*
X0Y1090D02*
X7Y1090D01*
X3929Y1090D02*
X3936Y1090D01*
X0Y1089D02*
X7Y1089D01*
X3929Y1089D02*
X3936Y1089D01*
X0Y1088D02*
X7Y1088D01*
X3929Y1088D02*
X3936Y1088D01*
X0Y1087D02*
X7Y1087D01*
X3929Y1087D02*
X3936Y1087D01*
X0Y1086D02*
X7Y1086D01*
X3929Y1086D02*
X3936Y1086D01*
X0Y1085D02*
X7Y1085D01*
X3929Y1085D02*
X3936Y1085D01*
X0Y1084D02*
X7Y1084D01*
X3929Y1084D02*
X3936Y1084D01*
X0Y1083D02*
X7Y1083D01*
X3929Y1083D02*
X3936Y1083D01*
X0Y1082D02*
X7Y1082D01*
X3929Y1082D02*
X3936Y1082D01*
X0Y1081D02*
X7Y1081D01*
X3929Y1081D02*
X3936Y1081D01*
X0Y1080D02*
X7Y1080D01*
X3929Y1080D02*
X3936Y1080D01*
X0Y1079D02*
X7Y1079D01*
X3929Y1079D02*
X3936Y1079D01*
X0Y1078D02*
X7Y1078D01*
X3929Y1078D02*
X3936Y1078D01*
X0Y1077D02*
X7Y1077D01*
X3929Y1077D02*
X3936Y1077D01*
X0Y1076D02*
X7Y1076D01*
X3929Y1076D02*
X3936Y1076D01*
X0Y1075D02*
X7Y1075D01*
X3929Y1075D02*
X3936Y1075D01*
X0Y1074D02*
X7Y1074D01*
X3929Y1074D02*
X3936Y1074D01*
X0Y1073D02*
X7Y1073D01*
X3929Y1073D02*
X3936Y1073D01*
X0Y1072D02*
X7Y1072D01*
X3929Y1072D02*
X3936Y1072D01*
X0Y1071D02*
X7Y1071D01*
X3929Y1071D02*
X3936Y1071D01*
X0Y1070D02*
X7Y1070D01*
X3929Y1070D02*
X3936Y1070D01*
X0Y1069D02*
X7Y1069D01*
X3929Y1069D02*
X3936Y1069D01*
X0Y1068D02*
X7Y1068D01*
X3929Y1068D02*
X3936Y1068D01*
X0Y1067D02*
X7Y1067D01*
X3929Y1067D02*
X3936Y1067D01*
X0Y1066D02*
X7Y1066D01*
X3929Y1066D02*
X3936Y1066D01*
X0Y1065D02*
X7Y1065D01*
X3929Y1065D02*
X3936Y1065D01*
X0Y1064D02*
X7Y1064D01*
X3929Y1064D02*
X3936Y1064D01*
X0Y1063D02*
X7Y1063D01*
X3929Y1063D02*
X3936Y1063D01*
X0Y1062D02*
X7Y1062D01*
X3929Y1062D02*
X3936Y1062D01*
X0Y1061D02*
X7Y1061D01*
X3929Y1061D02*
X3936Y1061D01*
X0Y1060D02*
X7Y1060D01*
X3929Y1060D02*
X3936Y1060D01*
X0Y1059D02*
X7Y1059D01*
X3929Y1059D02*
X3936Y1059D01*
X0Y1058D02*
X7Y1058D01*
X3929Y1058D02*
X3936Y1058D01*
X0Y1057D02*
X7Y1057D01*
X3929Y1057D02*
X3936Y1057D01*
X0Y1056D02*
X7Y1056D01*
X3929Y1056D02*
X3936Y1056D01*
X0Y1055D02*
X7Y1055D01*
X3929Y1055D02*
X3936Y1055D01*
X0Y1054D02*
X7Y1054D01*
X3929Y1054D02*
X3936Y1054D01*
X0Y1053D02*
X7Y1053D01*
X3929Y1053D02*
X3936Y1053D01*
X0Y1052D02*
X7Y1052D01*
X3929Y1052D02*
X3936Y1052D01*
X0Y1051D02*
X7Y1051D01*
X3929Y1051D02*
X3936Y1051D01*
X0Y1050D02*
X7Y1050D01*
X3929Y1050D02*
X3936Y1050D01*
X0Y1049D02*
X7Y1049D01*
X3929Y1049D02*
X3936Y1049D01*
X0Y1048D02*
X7Y1048D01*
X3929Y1048D02*
X3936Y1048D01*
X0Y1047D02*
X7Y1047D01*
X3929Y1047D02*
X3936Y1047D01*
X0Y1046D02*
X7Y1046D01*
X3929Y1046D02*
X3936Y1046D01*
X0Y1045D02*
X7Y1045D01*
X3929Y1045D02*
X3936Y1045D01*
X0Y1044D02*
X7Y1044D01*
X3929Y1044D02*
X3936Y1044D01*
X0Y1043D02*
X7Y1043D01*
X3929Y1043D02*
X3936Y1043D01*
X0Y1042D02*
X7Y1042D01*
X3929Y1042D02*
X3936Y1042D01*
X0Y1041D02*
X7Y1041D01*
X3929Y1041D02*
X3936Y1041D01*
X0Y1040D02*
X7Y1040D01*
X3929Y1040D02*
X3936Y1040D01*
X0Y1039D02*
X7Y1039D01*
X3929Y1039D02*
X3936Y1039D01*
X0Y1038D02*
X7Y1038D01*
X3929Y1038D02*
X3936Y1038D01*
X0Y1037D02*
X7Y1037D01*
X3929Y1037D02*
X3936Y1037D01*
X0Y1036D02*
X7Y1036D01*
X3929Y1036D02*
X3936Y1036D01*
X0Y1035D02*
X7Y1035D01*
X3929Y1035D02*
X3936Y1035D01*
X0Y1034D02*
X7Y1034D01*
X3929Y1034D02*
X3936Y1034D01*
X0Y1033D02*
X7Y1033D01*
X3929Y1033D02*
X3936Y1033D01*
X0Y1032D02*
X7Y1032D01*
X3929Y1032D02*
X3936Y1032D01*
X0Y1031D02*
X7Y1031D01*
X3929Y1031D02*
X3936Y1031D01*
X0Y1030D02*
X7Y1030D01*
X3929Y1030D02*
X3936Y1030D01*
X0Y1029D02*
X7Y1029D01*
X3929Y1029D02*
X3936Y1029D01*
X0Y1028D02*
X7Y1028D01*
X3929Y1028D02*
X3936Y1028D01*
X0Y1027D02*
X7Y1027D01*
X3929Y1027D02*
X3936Y1027D01*
X0Y1026D02*
X7Y1026D01*
X3929Y1026D02*
X3936Y1026D01*
X0Y1025D02*
X7Y1025D01*
X3929Y1025D02*
X3936Y1025D01*
X0Y1024D02*
X7Y1024D01*
X3929Y1024D02*
X3936Y1024D01*
X0Y1023D02*
X7Y1023D01*
X3929Y1023D02*
X3936Y1023D01*
X0Y1022D02*
X7Y1022D01*
X3929Y1022D02*
X3936Y1022D01*
X0Y1021D02*
X7Y1021D01*
X3929Y1021D02*
X3936Y1021D01*
X0Y1020D02*
X7Y1020D01*
X3929Y1020D02*
X3936Y1020D01*
X0Y1019D02*
X7Y1019D01*
X3929Y1019D02*
X3936Y1019D01*
X0Y1018D02*
X7Y1018D01*
X3929Y1018D02*
X3936Y1018D01*
X0Y1017D02*
X7Y1017D01*
X3929Y1017D02*
X3936Y1017D01*
X0Y1016D02*
X7Y1016D01*
X3929Y1016D02*
X3936Y1016D01*
X0Y1015D02*
X7Y1015D01*
X3929Y1015D02*
X3936Y1015D01*
X0Y1014D02*
X7Y1014D01*
X3929Y1014D02*
X3936Y1014D01*
X0Y1013D02*
X7Y1013D01*
X3929Y1013D02*
X3936Y1013D01*
X0Y1012D02*
X7Y1012D01*
X3929Y1012D02*
X3936Y1012D01*
X0Y1011D02*
X7Y1011D01*
X3929Y1011D02*
X3936Y1011D01*
X0Y1010D02*
X7Y1010D01*
X3929Y1010D02*
X3936Y1010D01*
X0Y1009D02*
X7Y1009D01*
X3929Y1009D02*
X3936Y1009D01*
X0Y1008D02*
X7Y1008D01*
X3929Y1008D02*
X3936Y1008D01*
X0Y1007D02*
X7Y1007D01*
X3929Y1007D02*
X3936Y1007D01*
X0Y1006D02*
X7Y1006D01*
X3929Y1006D02*
X3936Y1006D01*
X0Y1005D02*
X7Y1005D01*
X3929Y1005D02*
X3936Y1005D01*
X0Y1004D02*
X7Y1004D01*
X3929Y1004D02*
X3936Y1004D01*
X0Y1003D02*
X7Y1003D01*
X3929Y1003D02*
X3936Y1003D01*
X0Y1002D02*
X7Y1002D01*
X3929Y1002D02*
X3936Y1002D01*
X0Y1001D02*
X7Y1001D01*
X3929Y1001D02*
X3936Y1001D01*
X0Y1000D02*
X7Y1000D01*
X3929Y1000D02*
X3936Y1000D01*
X0Y999D02*
X7Y999D01*
X3929Y999D02*
X3936Y999D01*
X0Y998D02*
X7Y998D01*
X3929Y998D02*
X3936Y998D01*
X0Y997D02*
X7Y997D01*
X3929Y997D02*
X3936Y997D01*
X0Y996D02*
X7Y996D01*
X3929Y996D02*
X3936Y996D01*
X0Y995D02*
X7Y995D01*
X3929Y995D02*
X3936Y995D01*
X0Y994D02*
X7Y994D01*
X3929Y994D02*
X3936Y994D01*
X0Y993D02*
X7Y993D01*
X3929Y993D02*
X3936Y993D01*
X0Y992D02*
X7Y992D01*
X3929Y992D02*
X3936Y992D01*
X0Y991D02*
X7Y991D01*
X3929Y991D02*
X3936Y991D01*
X0Y990D02*
X7Y990D01*
X3929Y990D02*
X3936Y990D01*
X0Y989D02*
X7Y989D01*
X3929Y989D02*
X3936Y989D01*
X0Y988D02*
X7Y988D01*
X3929Y988D02*
X3936Y988D01*
X0Y987D02*
X7Y987D01*
X3929Y987D02*
X3936Y987D01*
X0Y986D02*
X7Y986D01*
X3929Y986D02*
X3936Y986D01*
X0Y985D02*
X7Y985D01*
X3929Y985D02*
X3936Y985D01*
X0Y984D02*
X7Y984D01*
X3929Y984D02*
X3936Y984D01*
X0Y983D02*
X7Y983D01*
X3929Y983D02*
X3936Y983D01*
X0Y982D02*
X7Y982D01*
X3929Y982D02*
X3936Y982D01*
X0Y981D02*
X7Y981D01*
X3929Y981D02*
X3936Y981D01*
X0Y980D02*
X7Y980D01*
X3929Y980D02*
X3936Y980D01*
X0Y979D02*
X7Y979D01*
X3929Y979D02*
X3936Y979D01*
X0Y978D02*
X7Y978D01*
X3929Y978D02*
X3936Y978D01*
X0Y977D02*
X7Y977D01*
X3929Y977D02*
X3936Y977D01*
X0Y976D02*
X7Y976D01*
X3929Y976D02*
X3936Y976D01*
X0Y975D02*
X7Y975D01*
X3929Y975D02*
X3936Y975D01*
X0Y974D02*
X7Y974D01*
X3929Y974D02*
X3936Y974D01*
X0Y973D02*
X7Y973D01*
X3929Y973D02*
X3936Y973D01*
X0Y972D02*
X7Y972D01*
X3929Y972D02*
X3936Y972D01*
X0Y971D02*
X7Y971D01*
X3929Y971D02*
X3936Y971D01*
X0Y970D02*
X7Y970D01*
X3929Y970D02*
X3936Y970D01*
X0Y969D02*
X7Y969D01*
X3929Y969D02*
X3936Y969D01*
X0Y968D02*
X7Y968D01*
X3929Y968D02*
X3936Y968D01*
X0Y967D02*
X7Y967D01*
X3929Y967D02*
X3936Y967D01*
X0Y966D02*
X7Y966D01*
X3929Y966D02*
X3936Y966D01*
X0Y965D02*
X7Y965D01*
X3929Y965D02*
X3936Y965D01*
X0Y964D02*
X7Y964D01*
X3929Y964D02*
X3936Y964D01*
X0Y963D02*
X7Y963D01*
X3929Y963D02*
X3936Y963D01*
X0Y962D02*
X7Y962D01*
X3929Y962D02*
X3936Y962D01*
X0Y961D02*
X7Y961D01*
X3929Y961D02*
X3936Y961D01*
X0Y960D02*
X7Y960D01*
X3929Y960D02*
X3936Y960D01*
X0Y959D02*
X7Y959D01*
X3929Y959D02*
X3936Y959D01*
X0Y958D02*
X7Y958D01*
X3929Y958D02*
X3936Y958D01*
X0Y957D02*
X7Y957D01*
X3929Y957D02*
X3936Y957D01*
X0Y956D02*
X7Y956D01*
X3929Y956D02*
X3936Y956D01*
X0Y955D02*
X7Y955D01*
X3929Y955D02*
X3936Y955D01*
X0Y954D02*
X7Y954D01*
X3929Y954D02*
X3936Y954D01*
X0Y953D02*
X7Y953D01*
X3929Y953D02*
X3936Y953D01*
X0Y952D02*
X7Y952D01*
X3929Y952D02*
X3936Y952D01*
X0Y951D02*
X7Y951D01*
X3929Y951D02*
X3936Y951D01*
X0Y950D02*
X7Y950D01*
X3929Y950D02*
X3936Y950D01*
X0Y949D02*
X7Y949D01*
X3929Y949D02*
X3936Y949D01*
X0Y948D02*
X7Y948D01*
X3929Y948D02*
X3936Y948D01*
X0Y947D02*
X7Y947D01*
X3929Y947D02*
X3936Y947D01*
X0Y946D02*
X7Y946D01*
X3929Y946D02*
X3936Y946D01*
X0Y945D02*
X7Y945D01*
X3929Y945D02*
X3936Y945D01*
X0Y944D02*
X7Y944D01*
X3929Y944D02*
X3936Y944D01*
X0Y943D02*
X7Y943D01*
X3929Y943D02*
X3936Y943D01*
X0Y942D02*
X7Y942D01*
X3929Y942D02*
X3936Y942D01*
X0Y941D02*
X7Y941D01*
X3929Y941D02*
X3936Y941D01*
X0Y940D02*
X7Y940D01*
X3929Y940D02*
X3936Y940D01*
X0Y939D02*
X7Y939D01*
X3929Y939D02*
X3936Y939D01*
X0Y938D02*
X7Y938D01*
X3929Y938D02*
X3936Y938D01*
X0Y937D02*
X7Y937D01*
X3929Y937D02*
X3936Y937D01*
X0Y936D02*
X7Y936D01*
X3929Y936D02*
X3936Y936D01*
X0Y935D02*
X7Y935D01*
X3929Y935D02*
X3936Y935D01*
X0Y934D02*
X7Y934D01*
X3929Y934D02*
X3936Y934D01*
X0Y933D02*
X7Y933D01*
X3929Y933D02*
X3936Y933D01*
X0Y932D02*
X7Y932D01*
X3929Y932D02*
X3936Y932D01*
X0Y931D02*
X7Y931D01*
X3929Y931D02*
X3936Y931D01*
X0Y930D02*
X7Y930D01*
X3929Y930D02*
X3936Y930D01*
X0Y929D02*
X7Y929D01*
X3929Y929D02*
X3936Y929D01*
X0Y928D02*
X7Y928D01*
X3929Y928D02*
X3936Y928D01*
X0Y927D02*
X7Y927D01*
X3929Y927D02*
X3936Y927D01*
X0Y926D02*
X7Y926D01*
X3929Y926D02*
X3936Y926D01*
X0Y925D02*
X7Y925D01*
X3929Y925D02*
X3936Y925D01*
X0Y924D02*
X7Y924D01*
X3929Y924D02*
X3936Y924D01*
X0Y923D02*
X7Y923D01*
X3929Y923D02*
X3936Y923D01*
X0Y922D02*
X7Y922D01*
X3929Y922D02*
X3936Y922D01*
X0Y921D02*
X7Y921D01*
X3929Y921D02*
X3936Y921D01*
X0Y920D02*
X7Y920D01*
X3929Y920D02*
X3936Y920D01*
X0Y919D02*
X7Y919D01*
X3929Y919D02*
X3936Y919D01*
X0Y918D02*
X7Y918D01*
X3929Y918D02*
X3936Y918D01*
X0Y917D02*
X7Y917D01*
X3929Y917D02*
X3936Y917D01*
X0Y916D02*
X7Y916D01*
X3929Y916D02*
X3936Y916D01*
X0Y915D02*
X7Y915D01*
X3929Y915D02*
X3936Y915D01*
X0Y914D02*
X7Y914D01*
X3929Y914D02*
X3936Y914D01*
X0Y913D02*
X7Y913D01*
X3929Y913D02*
X3936Y913D01*
X0Y912D02*
X7Y912D01*
X3929Y912D02*
X3936Y912D01*
X0Y911D02*
X7Y911D01*
X3929Y911D02*
X3936Y911D01*
X0Y910D02*
X7Y910D01*
X3929Y910D02*
X3936Y910D01*
X0Y909D02*
X7Y909D01*
X3929Y909D02*
X3936Y909D01*
X0Y908D02*
X7Y908D01*
X3929Y908D02*
X3936Y908D01*
X0Y907D02*
X7Y907D01*
X3929Y907D02*
X3936Y907D01*
X0Y906D02*
X7Y906D01*
X3929Y906D02*
X3936Y906D01*
X0Y905D02*
X7Y905D01*
X3929Y905D02*
X3936Y905D01*
X0Y904D02*
X7Y904D01*
X3929Y904D02*
X3936Y904D01*
X0Y903D02*
X7Y903D01*
X3929Y903D02*
X3936Y903D01*
X0Y902D02*
X7Y902D01*
X3929Y902D02*
X3936Y902D01*
X0Y901D02*
X7Y901D01*
X3929Y901D02*
X3936Y901D01*
X0Y900D02*
X7Y900D01*
X3929Y900D02*
X3936Y900D01*
X0Y899D02*
X7Y899D01*
X3929Y899D02*
X3936Y899D01*
X0Y898D02*
X7Y898D01*
X3929Y898D02*
X3936Y898D01*
X0Y897D02*
X7Y897D01*
X3929Y897D02*
X3936Y897D01*
X0Y896D02*
X7Y896D01*
X3929Y896D02*
X3936Y896D01*
X0Y895D02*
X7Y895D01*
X3929Y895D02*
X3936Y895D01*
X0Y894D02*
X7Y894D01*
X3929Y894D02*
X3936Y894D01*
X0Y893D02*
X7Y893D01*
X3929Y893D02*
X3936Y893D01*
X0Y892D02*
X7Y892D01*
X3929Y892D02*
X3936Y892D01*
X0Y891D02*
X7Y891D01*
X3929Y891D02*
X3936Y891D01*
X0Y890D02*
X7Y890D01*
X3929Y890D02*
X3936Y890D01*
X0Y889D02*
X7Y889D01*
X3929Y889D02*
X3936Y889D01*
X0Y888D02*
X7Y888D01*
X3929Y888D02*
X3936Y888D01*
X0Y887D02*
X7Y887D01*
X3929Y887D02*
X3936Y887D01*
X0Y886D02*
X7Y886D01*
X3929Y886D02*
X3936Y886D01*
X0Y885D02*
X7Y885D01*
X3929Y885D02*
X3936Y885D01*
X0Y884D02*
X7Y884D01*
X3929Y884D02*
X3936Y884D01*
X0Y883D02*
X7Y883D01*
X3929Y883D02*
X3936Y883D01*
X0Y882D02*
X7Y882D01*
X3929Y882D02*
X3936Y882D01*
X0Y881D02*
X7Y881D01*
X3929Y881D02*
X3936Y881D01*
X0Y880D02*
X7Y880D01*
X3929Y880D02*
X3936Y880D01*
X0Y879D02*
X7Y879D01*
X3929Y879D02*
X3936Y879D01*
X0Y878D02*
X7Y878D01*
X3929Y878D02*
X3936Y878D01*
X0Y877D02*
X7Y877D01*
X3929Y877D02*
X3936Y877D01*
X0Y876D02*
X7Y876D01*
X3929Y876D02*
X3936Y876D01*
X0Y875D02*
X7Y875D01*
X3929Y875D02*
X3936Y875D01*
X0Y874D02*
X7Y874D01*
X3929Y874D02*
X3936Y874D01*
X0Y873D02*
X7Y873D01*
X3929Y873D02*
X3936Y873D01*
X0Y872D02*
X7Y872D01*
X3929Y872D02*
X3936Y872D01*
X0Y871D02*
X7Y871D01*
X3929Y871D02*
X3936Y871D01*
X0Y870D02*
X7Y870D01*
X3929Y870D02*
X3936Y870D01*
X0Y869D02*
X7Y869D01*
X3929Y869D02*
X3936Y869D01*
X0Y868D02*
X7Y868D01*
X3929Y868D02*
X3936Y868D01*
X0Y867D02*
X7Y867D01*
X3929Y867D02*
X3936Y867D01*
X0Y866D02*
X7Y866D01*
X3929Y866D02*
X3936Y866D01*
X0Y865D02*
X7Y865D01*
X3929Y865D02*
X3936Y865D01*
X0Y864D02*
X7Y864D01*
X3929Y864D02*
X3936Y864D01*
X0Y863D02*
X7Y863D01*
X3929Y863D02*
X3936Y863D01*
X0Y862D02*
X7Y862D01*
X3929Y862D02*
X3936Y862D01*
X0Y861D02*
X7Y861D01*
X3929Y861D02*
X3936Y861D01*
X0Y860D02*
X7Y860D01*
X3929Y860D02*
X3936Y860D01*
X0Y859D02*
X7Y859D01*
X3929Y859D02*
X3936Y859D01*
X0Y858D02*
X7Y858D01*
X3929Y858D02*
X3936Y858D01*
X0Y857D02*
X7Y857D01*
X3929Y857D02*
X3936Y857D01*
X0Y856D02*
X7Y856D01*
X3929Y856D02*
X3936Y856D01*
X0Y855D02*
X7Y855D01*
X3929Y855D02*
X3936Y855D01*
X0Y854D02*
X7Y854D01*
X3929Y854D02*
X3936Y854D01*
X0Y853D02*
X7Y853D01*
X3929Y853D02*
X3936Y853D01*
X0Y852D02*
X7Y852D01*
X3929Y852D02*
X3936Y852D01*
X0Y851D02*
X7Y851D01*
X3929Y851D02*
X3936Y851D01*
X0Y850D02*
X7Y850D01*
X3929Y850D02*
X3936Y850D01*
X0Y849D02*
X7Y849D01*
X3929Y849D02*
X3936Y849D01*
X0Y848D02*
X7Y848D01*
X3929Y848D02*
X3936Y848D01*
X0Y847D02*
X7Y847D01*
X3929Y847D02*
X3936Y847D01*
X0Y846D02*
X7Y846D01*
X3929Y846D02*
X3936Y846D01*
X0Y845D02*
X7Y845D01*
X3929Y845D02*
X3936Y845D01*
X0Y844D02*
X7Y844D01*
X3929Y844D02*
X3936Y844D01*
X0Y843D02*
X7Y843D01*
X3929Y843D02*
X3936Y843D01*
X0Y842D02*
X7Y842D01*
X3929Y842D02*
X3936Y842D01*
X0Y841D02*
X7Y841D01*
X3929Y841D02*
X3936Y841D01*
X0Y840D02*
X7Y840D01*
X3929Y840D02*
X3936Y840D01*
X0Y839D02*
X7Y839D01*
X3929Y839D02*
X3936Y839D01*
X0Y838D02*
X7Y838D01*
X3929Y838D02*
X3936Y838D01*
X0Y837D02*
X7Y837D01*
X3929Y837D02*
X3936Y837D01*
X0Y836D02*
X7Y836D01*
X3929Y836D02*
X3936Y836D01*
X0Y835D02*
X7Y835D01*
X3929Y835D02*
X3936Y835D01*
X0Y834D02*
X7Y834D01*
X3929Y834D02*
X3936Y834D01*
X0Y833D02*
X7Y833D01*
X3929Y833D02*
X3936Y833D01*
X0Y832D02*
X7Y832D01*
X3929Y832D02*
X3936Y832D01*
X0Y831D02*
X7Y831D01*
X3929Y831D02*
X3936Y831D01*
X0Y830D02*
X7Y830D01*
X3929Y830D02*
X3936Y830D01*
X0Y829D02*
X7Y829D01*
X3929Y829D02*
X3936Y829D01*
X0Y828D02*
X7Y828D01*
X3929Y828D02*
X3936Y828D01*
X0Y827D02*
X7Y827D01*
X3929Y827D02*
X3936Y827D01*
X0Y826D02*
X7Y826D01*
X3929Y826D02*
X3936Y826D01*
X0Y825D02*
X7Y825D01*
X3929Y825D02*
X3936Y825D01*
X0Y824D02*
X7Y824D01*
X3929Y824D02*
X3936Y824D01*
X0Y823D02*
X7Y823D01*
X3929Y823D02*
X3936Y823D01*
X0Y822D02*
X7Y822D01*
X3929Y822D02*
X3936Y822D01*
X0Y821D02*
X7Y821D01*
X3929Y821D02*
X3936Y821D01*
X0Y820D02*
X7Y820D01*
X3929Y820D02*
X3936Y820D01*
X0Y819D02*
X7Y819D01*
X3929Y819D02*
X3936Y819D01*
X0Y818D02*
X7Y818D01*
X3929Y818D02*
X3936Y818D01*
X0Y817D02*
X7Y817D01*
X3929Y817D02*
X3936Y817D01*
X0Y816D02*
X7Y816D01*
X3929Y816D02*
X3936Y816D01*
X0Y815D02*
X7Y815D01*
X3929Y815D02*
X3936Y815D01*
X0Y814D02*
X7Y814D01*
X3929Y814D02*
X3936Y814D01*
X0Y813D02*
X7Y813D01*
X3929Y813D02*
X3936Y813D01*
X0Y812D02*
X7Y812D01*
X3929Y812D02*
X3936Y812D01*
X0Y811D02*
X7Y811D01*
X3929Y811D02*
X3936Y811D01*
X0Y810D02*
X7Y810D01*
X3929Y810D02*
X3936Y810D01*
X0Y809D02*
X7Y809D01*
X3929Y809D02*
X3936Y809D01*
X0Y808D02*
X7Y808D01*
X3929Y808D02*
X3936Y808D01*
X0Y807D02*
X7Y807D01*
X3929Y807D02*
X3936Y807D01*
X0Y806D02*
X7Y806D01*
X3929Y806D02*
X3936Y806D01*
X0Y805D02*
X7Y805D01*
X3929Y805D02*
X3936Y805D01*
X0Y804D02*
X7Y804D01*
X3929Y804D02*
X3936Y804D01*
X0Y803D02*
X7Y803D01*
X3929Y803D02*
X3936Y803D01*
X0Y802D02*
X7Y802D01*
X3929Y802D02*
X3936Y802D01*
X0Y801D02*
X7Y801D01*
X3929Y801D02*
X3936Y801D01*
X0Y800D02*
X7Y800D01*
X3929Y800D02*
X3936Y800D01*
X0Y799D02*
X7Y799D01*
X3929Y799D02*
X3936Y799D01*
X0Y798D02*
X7Y798D01*
X3929Y798D02*
X3936Y798D01*
X0Y797D02*
X7Y797D01*
X3929Y797D02*
X3936Y797D01*
X0Y796D02*
X7Y796D01*
X3929Y796D02*
X3936Y796D01*
X0Y795D02*
X7Y795D01*
X3929Y795D02*
X3936Y795D01*
X0Y794D02*
X7Y794D01*
X3929Y794D02*
X3936Y794D01*
X0Y793D02*
X7Y793D01*
X3929Y793D02*
X3936Y793D01*
X0Y792D02*
X7Y792D01*
X3929Y792D02*
X3936Y792D01*
X0Y791D02*
X7Y791D01*
X3929Y791D02*
X3936Y791D01*
X0Y790D02*
X7Y790D01*
X3929Y790D02*
X3936Y790D01*
X0Y789D02*
X7Y789D01*
X3929Y789D02*
X3936Y789D01*
X0Y788D02*
X7Y788D01*
X3929Y788D02*
X3936Y788D01*
X0Y787D02*
X7Y787D01*
X3929Y787D02*
X3936Y787D01*
X0Y786D02*
X7Y786D01*
X3929Y786D02*
X3936Y786D01*
X0Y785D02*
X7Y785D01*
X3929Y785D02*
X3936Y785D01*
X0Y784D02*
X7Y784D01*
X3929Y784D02*
X3936Y784D01*
X0Y783D02*
X7Y783D01*
X3929Y783D02*
X3936Y783D01*
X0Y782D02*
X7Y782D01*
X3929Y782D02*
X3936Y782D01*
X0Y781D02*
X7Y781D01*
X3929Y781D02*
X3936Y781D01*
X0Y780D02*
X7Y780D01*
X3929Y780D02*
X3936Y780D01*
X0Y779D02*
X7Y779D01*
X3929Y779D02*
X3936Y779D01*
X0Y778D02*
X7Y778D01*
X3929Y778D02*
X3936Y778D01*
X0Y777D02*
X7Y777D01*
X3929Y777D02*
X3936Y777D01*
X0Y776D02*
X7Y776D01*
X3929Y776D02*
X3936Y776D01*
X0Y775D02*
X7Y775D01*
X3929Y775D02*
X3936Y775D01*
X0Y774D02*
X7Y774D01*
X3929Y774D02*
X3936Y774D01*
X0Y773D02*
X7Y773D01*
X3929Y773D02*
X3936Y773D01*
X0Y772D02*
X7Y772D01*
X3929Y772D02*
X3936Y772D01*
X0Y771D02*
X7Y771D01*
X3929Y771D02*
X3936Y771D01*
X0Y770D02*
X7Y770D01*
X3929Y770D02*
X3936Y770D01*
X0Y769D02*
X7Y769D01*
X3929Y769D02*
X3936Y769D01*
X0Y768D02*
X7Y768D01*
X3929Y768D02*
X3936Y768D01*
X0Y767D02*
X7Y767D01*
X3929Y767D02*
X3936Y767D01*
X0Y766D02*
X7Y766D01*
X3929Y766D02*
X3936Y766D01*
X0Y765D02*
X7Y765D01*
X3929Y765D02*
X3936Y765D01*
X0Y764D02*
X7Y764D01*
X3929Y764D02*
X3936Y764D01*
X0Y763D02*
X7Y763D01*
X3929Y763D02*
X3936Y763D01*
X0Y762D02*
X7Y762D01*
X3929Y762D02*
X3936Y762D01*
X0Y761D02*
X7Y761D01*
X3929Y761D02*
X3936Y761D01*
X0Y760D02*
X7Y760D01*
X3929Y760D02*
X3936Y760D01*
X0Y759D02*
X7Y759D01*
X3929Y759D02*
X3936Y759D01*
X0Y758D02*
X7Y758D01*
X3929Y758D02*
X3936Y758D01*
X0Y757D02*
X7Y757D01*
X3929Y757D02*
X3936Y757D01*
X0Y756D02*
X7Y756D01*
X3929Y756D02*
X3936Y756D01*
X0Y755D02*
X7Y755D01*
X3929Y755D02*
X3936Y755D01*
X0Y754D02*
X7Y754D01*
X3929Y754D02*
X3936Y754D01*
X0Y753D02*
X7Y753D01*
X3929Y753D02*
X3936Y753D01*
X0Y752D02*
X7Y752D01*
X3929Y752D02*
X3936Y752D01*
X0Y751D02*
X7Y751D01*
X3929Y751D02*
X3936Y751D01*
X0Y750D02*
X7Y750D01*
X3929Y750D02*
X3936Y750D01*
X0Y749D02*
X7Y749D01*
X3929Y749D02*
X3936Y749D01*
X0Y748D02*
X7Y748D01*
X3929Y748D02*
X3936Y748D01*
X0Y747D02*
X7Y747D01*
X3929Y747D02*
X3936Y747D01*
X0Y746D02*
X7Y746D01*
X3929Y746D02*
X3936Y746D01*
X0Y745D02*
X7Y745D01*
X3929Y745D02*
X3936Y745D01*
X0Y744D02*
X7Y744D01*
X3929Y744D02*
X3936Y744D01*
X0Y743D02*
X7Y743D01*
X3929Y743D02*
X3936Y743D01*
X0Y742D02*
X7Y742D01*
X3929Y742D02*
X3936Y742D01*
X0Y741D02*
X7Y741D01*
X3929Y741D02*
X3936Y741D01*
X0Y740D02*
X7Y740D01*
X3929Y740D02*
X3936Y740D01*
X0Y739D02*
X7Y739D01*
X3929Y739D02*
X3936Y739D01*
X0Y738D02*
X7Y738D01*
X3929Y738D02*
X3936Y738D01*
X0Y737D02*
X7Y737D01*
X3929Y737D02*
X3936Y737D01*
X0Y736D02*
X7Y736D01*
X3929Y736D02*
X3936Y736D01*
X0Y735D02*
X7Y735D01*
X3929Y735D02*
X3936Y735D01*
X0Y734D02*
X7Y734D01*
X3929Y734D02*
X3936Y734D01*
X0Y733D02*
X7Y733D01*
X3929Y733D02*
X3936Y733D01*
X0Y732D02*
X7Y732D01*
X3929Y732D02*
X3936Y732D01*
X0Y731D02*
X7Y731D01*
X3929Y731D02*
X3936Y731D01*
X0Y730D02*
X7Y730D01*
X3929Y730D02*
X3936Y730D01*
X0Y729D02*
X7Y729D01*
X3929Y729D02*
X3936Y729D01*
X0Y728D02*
X7Y728D01*
X3929Y728D02*
X3936Y728D01*
X0Y727D02*
X7Y727D01*
X3929Y727D02*
X3936Y727D01*
X0Y726D02*
X7Y726D01*
X3929Y726D02*
X3936Y726D01*
X0Y725D02*
X7Y725D01*
X3929Y725D02*
X3936Y725D01*
X0Y724D02*
X7Y724D01*
X3929Y724D02*
X3936Y724D01*
X0Y723D02*
X7Y723D01*
X3929Y723D02*
X3936Y723D01*
X0Y722D02*
X7Y722D01*
X3929Y722D02*
X3936Y722D01*
X0Y721D02*
X7Y721D01*
X3929Y721D02*
X3936Y721D01*
X0Y720D02*
X7Y720D01*
X3929Y720D02*
X3936Y720D01*
X0Y719D02*
X7Y719D01*
X3929Y719D02*
X3936Y719D01*
X0Y718D02*
X7Y718D01*
X3929Y718D02*
X3936Y718D01*
X0Y717D02*
X7Y717D01*
X3929Y717D02*
X3936Y717D01*
X0Y716D02*
X7Y716D01*
X3929Y716D02*
X3936Y716D01*
X0Y715D02*
X7Y715D01*
X3929Y715D02*
X3936Y715D01*
X0Y714D02*
X7Y714D01*
X3929Y714D02*
X3936Y714D01*
X0Y713D02*
X7Y713D01*
X3929Y713D02*
X3936Y713D01*
X0Y712D02*
X7Y712D01*
X3929Y712D02*
X3936Y712D01*
X0Y711D02*
X7Y711D01*
X3929Y711D02*
X3936Y711D01*
X0Y710D02*
X7Y710D01*
X3929Y710D02*
X3936Y710D01*
X0Y709D02*
X7Y709D01*
X3929Y709D02*
X3936Y709D01*
X0Y708D02*
X7Y708D01*
X3929Y708D02*
X3936Y708D01*
X0Y707D02*
X7Y707D01*
X3929Y707D02*
X3936Y707D01*
X0Y706D02*
X7Y706D01*
X3929Y706D02*
X3936Y706D01*
X0Y705D02*
X7Y705D01*
X3929Y705D02*
X3936Y705D01*
X0Y704D02*
X7Y704D01*
X3929Y704D02*
X3936Y704D01*
X0Y703D02*
X7Y703D01*
X3929Y703D02*
X3936Y703D01*
X0Y702D02*
X7Y702D01*
X3929Y702D02*
X3936Y702D01*
X0Y701D02*
X7Y701D01*
X3929Y701D02*
X3936Y701D01*
X0Y700D02*
X7Y700D01*
X3929Y700D02*
X3936Y700D01*
X0Y699D02*
X7Y699D01*
X3929Y699D02*
X3936Y699D01*
X0Y698D02*
X7Y698D01*
X3929Y698D02*
X3936Y698D01*
X0Y697D02*
X7Y697D01*
X3929Y697D02*
X3936Y697D01*
X0Y696D02*
X7Y696D01*
X3929Y696D02*
X3936Y696D01*
X0Y695D02*
X7Y695D01*
X3929Y695D02*
X3936Y695D01*
X0Y694D02*
X7Y694D01*
X3929Y694D02*
X3936Y694D01*
X0Y693D02*
X7Y693D01*
X3929Y693D02*
X3936Y693D01*
X0Y692D02*
X7Y692D01*
X3929Y692D02*
X3936Y692D01*
X0Y691D02*
X7Y691D01*
X3929Y691D02*
X3936Y691D01*
X0Y690D02*
X7Y690D01*
X3929Y690D02*
X3936Y690D01*
X0Y689D02*
X7Y689D01*
X3929Y689D02*
X3936Y689D01*
X0Y688D02*
X7Y688D01*
X3929Y688D02*
X3936Y688D01*
X0Y687D02*
X7Y687D01*
X3929Y687D02*
X3936Y687D01*
X0Y686D02*
X7Y686D01*
X3929Y686D02*
X3936Y686D01*
X0Y685D02*
X7Y685D01*
X3929Y685D02*
X3936Y685D01*
X0Y684D02*
X7Y684D01*
X3929Y684D02*
X3936Y684D01*
X0Y683D02*
X7Y683D01*
X3929Y683D02*
X3936Y683D01*
X0Y682D02*
X7Y682D01*
X3929Y682D02*
X3936Y682D01*
X0Y681D02*
X7Y681D01*
X3929Y681D02*
X3936Y681D01*
X0Y680D02*
X7Y680D01*
X3929Y680D02*
X3936Y680D01*
X0Y679D02*
X7Y679D01*
X3929Y679D02*
X3936Y679D01*
X0Y678D02*
X7Y678D01*
X3929Y678D02*
X3936Y678D01*
X0Y677D02*
X7Y677D01*
X3929Y677D02*
X3936Y677D01*
X0Y676D02*
X7Y676D01*
X3929Y676D02*
X3936Y676D01*
X0Y675D02*
X7Y675D01*
X3929Y675D02*
X3936Y675D01*
X0Y674D02*
X7Y674D01*
X3929Y674D02*
X3936Y674D01*
X0Y673D02*
X7Y673D01*
X3929Y673D02*
X3936Y673D01*
X0Y672D02*
X7Y672D01*
X3929Y672D02*
X3936Y672D01*
X0Y671D02*
X7Y671D01*
X3929Y671D02*
X3936Y671D01*
X0Y670D02*
X7Y670D01*
X3929Y670D02*
X3936Y670D01*
X0Y669D02*
X7Y669D01*
X3929Y669D02*
X3936Y669D01*
X0Y668D02*
X7Y668D01*
X3929Y668D02*
X3936Y668D01*
X0Y667D02*
X7Y667D01*
X3929Y667D02*
X3936Y667D01*
X0Y666D02*
X7Y666D01*
X3929Y666D02*
X3936Y666D01*
X0Y665D02*
X7Y665D01*
X3929Y665D02*
X3936Y665D01*
X0Y664D02*
X7Y664D01*
X3929Y664D02*
X3936Y664D01*
X0Y663D02*
X7Y663D01*
X3929Y663D02*
X3936Y663D01*
X0Y662D02*
X7Y662D01*
X3929Y662D02*
X3936Y662D01*
X0Y661D02*
X7Y661D01*
X3929Y661D02*
X3936Y661D01*
X0Y660D02*
X7Y660D01*
X3929Y660D02*
X3936Y660D01*
X0Y659D02*
X7Y659D01*
X3929Y659D02*
X3936Y659D01*
X0Y658D02*
X7Y658D01*
X3929Y658D02*
X3936Y658D01*
X0Y657D02*
X7Y657D01*
X3929Y657D02*
X3936Y657D01*
X0Y656D02*
X7Y656D01*
X3929Y656D02*
X3936Y656D01*
X0Y655D02*
X7Y655D01*
X3929Y655D02*
X3936Y655D01*
X0Y654D02*
X7Y654D01*
X3929Y654D02*
X3936Y654D01*
X0Y653D02*
X7Y653D01*
X3929Y653D02*
X3936Y653D01*
X0Y652D02*
X7Y652D01*
X3929Y652D02*
X3936Y652D01*
X0Y651D02*
X7Y651D01*
X3929Y651D02*
X3936Y651D01*
X0Y650D02*
X7Y650D01*
X3929Y650D02*
X3936Y650D01*
X0Y649D02*
X7Y649D01*
X3929Y649D02*
X3936Y649D01*
X0Y648D02*
X7Y648D01*
X3929Y648D02*
X3936Y648D01*
X0Y647D02*
X7Y647D01*
X3929Y647D02*
X3936Y647D01*
X0Y646D02*
X7Y646D01*
X3929Y646D02*
X3936Y646D01*
X0Y645D02*
X7Y645D01*
X3929Y645D02*
X3936Y645D01*
X0Y644D02*
X7Y644D01*
X3929Y644D02*
X3936Y644D01*
X0Y643D02*
X7Y643D01*
X3929Y643D02*
X3936Y643D01*
X0Y642D02*
X7Y642D01*
X3929Y642D02*
X3936Y642D01*
X0Y641D02*
X7Y641D01*
X3929Y641D02*
X3936Y641D01*
X0Y640D02*
X7Y640D01*
X3929Y640D02*
X3936Y640D01*
X0Y639D02*
X7Y639D01*
X3929Y639D02*
X3936Y639D01*
X0Y638D02*
X7Y638D01*
X3929Y638D02*
X3936Y638D01*
X0Y637D02*
X7Y637D01*
X3929Y637D02*
X3936Y637D01*
X0Y636D02*
X7Y636D01*
X3929Y636D02*
X3936Y636D01*
X0Y635D02*
X7Y635D01*
X3929Y635D02*
X3936Y635D01*
X0Y634D02*
X7Y634D01*
X3929Y634D02*
X3936Y634D01*
X0Y633D02*
X7Y633D01*
X3929Y633D02*
X3936Y633D01*
X0Y632D02*
X7Y632D01*
X3929Y632D02*
X3936Y632D01*
X0Y631D02*
X7Y631D01*
X3929Y631D02*
X3936Y631D01*
X0Y630D02*
X7Y630D01*
X3929Y630D02*
X3936Y630D01*
X0Y629D02*
X7Y629D01*
X3929Y629D02*
X3936Y629D01*
X0Y628D02*
X7Y628D01*
X3929Y628D02*
X3936Y628D01*
X0Y627D02*
X7Y627D01*
X3929Y627D02*
X3936Y627D01*
X0Y626D02*
X7Y626D01*
X3929Y626D02*
X3936Y626D01*
X0Y625D02*
X7Y625D01*
X3929Y625D02*
X3936Y625D01*
X0Y624D02*
X7Y624D01*
X3929Y624D02*
X3936Y624D01*
X0Y623D02*
X7Y623D01*
X3929Y623D02*
X3936Y623D01*
X0Y622D02*
X7Y622D01*
X3929Y622D02*
X3936Y622D01*
X0Y621D02*
X7Y621D01*
X3929Y621D02*
X3936Y621D01*
X0Y620D02*
X7Y620D01*
X3929Y620D02*
X3936Y620D01*
X0Y619D02*
X7Y619D01*
X3929Y619D02*
X3936Y619D01*
X0Y618D02*
X7Y618D01*
X3929Y618D02*
X3936Y618D01*
X0Y617D02*
X7Y617D01*
X3929Y617D02*
X3936Y617D01*
X0Y616D02*
X7Y616D01*
X3929Y616D02*
X3936Y616D01*
X0Y615D02*
X7Y615D01*
X3929Y615D02*
X3936Y615D01*
X0Y614D02*
X7Y614D01*
X3929Y614D02*
X3936Y614D01*
X0Y613D02*
X7Y613D01*
X3929Y613D02*
X3936Y613D01*
X0Y612D02*
X7Y612D01*
X3929Y612D02*
X3936Y612D01*
X0Y611D02*
X7Y611D01*
X3929Y611D02*
X3936Y611D01*
X0Y610D02*
X7Y610D01*
X3929Y610D02*
X3936Y610D01*
X0Y609D02*
X7Y609D01*
X3929Y609D02*
X3936Y609D01*
X0Y608D02*
X7Y608D01*
X3929Y608D02*
X3936Y608D01*
X0Y607D02*
X7Y607D01*
X3929Y607D02*
X3936Y607D01*
X0Y606D02*
X7Y606D01*
X3929Y606D02*
X3936Y606D01*
X0Y605D02*
X7Y605D01*
X3929Y605D02*
X3936Y605D01*
X0Y604D02*
X7Y604D01*
X3929Y604D02*
X3936Y604D01*
X0Y603D02*
X7Y603D01*
X3929Y603D02*
X3936Y603D01*
X0Y602D02*
X7Y602D01*
X3929Y602D02*
X3936Y602D01*
X0Y601D02*
X7Y601D01*
X3929Y601D02*
X3936Y601D01*
X0Y600D02*
X7Y600D01*
X3929Y600D02*
X3936Y600D01*
X0Y599D02*
X7Y599D01*
X3929Y599D02*
X3936Y599D01*
X0Y598D02*
X7Y598D01*
X3929Y598D02*
X3936Y598D01*
X0Y597D02*
X7Y597D01*
X3929Y597D02*
X3936Y597D01*
X0Y596D02*
X7Y596D01*
X3929Y596D02*
X3936Y596D01*
X0Y595D02*
X7Y595D01*
X3929Y595D02*
X3936Y595D01*
X0Y594D02*
X7Y594D01*
X3929Y594D02*
X3936Y594D01*
X0Y593D02*
X7Y593D01*
X3929Y593D02*
X3936Y593D01*
X0Y592D02*
X7Y592D01*
X3929Y592D02*
X3936Y592D01*
X0Y591D02*
X7Y591D01*
X3929Y591D02*
X3936Y591D01*
X0Y590D02*
X7Y590D01*
X3929Y590D02*
X3936Y590D01*
X0Y589D02*
X7Y589D01*
X3929Y589D02*
X3936Y589D01*
X0Y588D02*
X7Y588D01*
X3929Y588D02*
X3936Y588D01*
X0Y587D02*
X7Y587D01*
X3929Y587D02*
X3936Y587D01*
X0Y586D02*
X7Y586D01*
X3929Y586D02*
X3936Y586D01*
X0Y585D02*
X7Y585D01*
X3929Y585D02*
X3936Y585D01*
X0Y584D02*
X7Y584D01*
X3929Y584D02*
X3936Y584D01*
X0Y583D02*
X7Y583D01*
X3929Y583D02*
X3936Y583D01*
X0Y582D02*
X7Y582D01*
X3929Y582D02*
X3936Y582D01*
X0Y581D02*
X7Y581D01*
X3929Y581D02*
X3936Y581D01*
X0Y580D02*
X7Y580D01*
X3929Y580D02*
X3936Y580D01*
X0Y579D02*
X7Y579D01*
X3929Y579D02*
X3936Y579D01*
X0Y578D02*
X7Y578D01*
X3929Y578D02*
X3936Y578D01*
X0Y577D02*
X7Y577D01*
X3929Y577D02*
X3936Y577D01*
X0Y576D02*
X7Y576D01*
X3929Y576D02*
X3936Y576D01*
X0Y575D02*
X7Y575D01*
X3929Y575D02*
X3936Y575D01*
X0Y574D02*
X7Y574D01*
X3929Y574D02*
X3936Y574D01*
X0Y573D02*
X7Y573D01*
X3929Y573D02*
X3936Y573D01*
X0Y572D02*
X7Y572D01*
X3929Y572D02*
X3936Y572D01*
X0Y571D02*
X7Y571D01*
X3929Y571D02*
X3936Y571D01*
X0Y570D02*
X7Y570D01*
X3929Y570D02*
X3936Y570D01*
X0Y569D02*
X7Y569D01*
X3929Y569D02*
X3936Y569D01*
X0Y568D02*
X7Y568D01*
X3929Y568D02*
X3936Y568D01*
X0Y567D02*
X7Y567D01*
X3929Y567D02*
X3936Y567D01*
X0Y566D02*
X7Y566D01*
X3929Y566D02*
X3936Y566D01*
X0Y565D02*
X7Y565D01*
X3929Y565D02*
X3936Y565D01*
X0Y564D02*
X7Y564D01*
X3929Y564D02*
X3936Y564D01*
X0Y563D02*
X7Y563D01*
X3929Y563D02*
X3936Y563D01*
X0Y562D02*
X7Y562D01*
X3929Y562D02*
X3936Y562D01*
X0Y561D02*
X7Y561D01*
X3929Y561D02*
X3936Y561D01*
X0Y560D02*
X7Y560D01*
X3929Y560D02*
X3936Y560D01*
X0Y559D02*
X7Y559D01*
X3929Y559D02*
X3936Y559D01*
X0Y558D02*
X7Y558D01*
X3929Y558D02*
X3936Y558D01*
X0Y557D02*
X7Y557D01*
X3929Y557D02*
X3936Y557D01*
X0Y556D02*
X7Y556D01*
X3929Y556D02*
X3936Y556D01*
X0Y555D02*
X7Y555D01*
X3929Y555D02*
X3936Y555D01*
X0Y554D02*
X7Y554D01*
X3929Y554D02*
X3936Y554D01*
X0Y553D02*
X7Y553D01*
X3929Y553D02*
X3936Y553D01*
X0Y552D02*
X7Y552D01*
X3929Y552D02*
X3936Y552D01*
X0Y551D02*
X7Y551D01*
X3929Y551D02*
X3936Y551D01*
X0Y550D02*
X7Y550D01*
X3929Y550D02*
X3936Y550D01*
X0Y549D02*
X7Y549D01*
X3929Y549D02*
X3936Y549D01*
X0Y548D02*
X7Y548D01*
X3929Y548D02*
X3936Y548D01*
X0Y547D02*
X7Y547D01*
X3929Y547D02*
X3936Y547D01*
X0Y546D02*
X7Y546D01*
X3929Y546D02*
X3936Y546D01*
X0Y545D02*
X7Y545D01*
X3929Y545D02*
X3936Y545D01*
X0Y544D02*
X7Y544D01*
X3929Y544D02*
X3936Y544D01*
X0Y543D02*
X7Y543D01*
X3929Y543D02*
X3936Y543D01*
X0Y542D02*
X7Y542D01*
X3929Y542D02*
X3936Y542D01*
X0Y541D02*
X7Y541D01*
X3929Y541D02*
X3936Y541D01*
X0Y540D02*
X7Y540D01*
X3929Y540D02*
X3936Y540D01*
X0Y539D02*
X7Y539D01*
X3929Y539D02*
X3936Y539D01*
X0Y538D02*
X7Y538D01*
X3929Y538D02*
X3936Y538D01*
X0Y537D02*
X7Y537D01*
X3929Y537D02*
X3936Y537D01*
X0Y536D02*
X7Y536D01*
X3929Y536D02*
X3936Y536D01*
X0Y535D02*
X7Y535D01*
X3929Y535D02*
X3936Y535D01*
X0Y534D02*
X7Y534D01*
X3929Y534D02*
X3936Y534D01*
X0Y533D02*
X7Y533D01*
X3929Y533D02*
X3936Y533D01*
X0Y532D02*
X7Y532D01*
X3929Y532D02*
X3936Y532D01*
X0Y531D02*
X7Y531D01*
X3929Y531D02*
X3936Y531D01*
X0Y530D02*
X7Y530D01*
X3929Y530D02*
X3936Y530D01*
X0Y529D02*
X7Y529D01*
X3929Y529D02*
X3936Y529D01*
X0Y528D02*
X7Y528D01*
X3929Y528D02*
X3936Y528D01*
X0Y527D02*
X7Y527D01*
X3929Y527D02*
X3936Y527D01*
X0Y526D02*
X7Y526D01*
X3929Y526D02*
X3936Y526D01*
X0Y525D02*
X7Y525D01*
X3929Y525D02*
X3936Y525D01*
X0Y524D02*
X7Y524D01*
X3929Y524D02*
X3936Y524D01*
X0Y523D02*
X7Y523D01*
X3929Y523D02*
X3936Y523D01*
X0Y522D02*
X7Y522D01*
X3929Y522D02*
X3936Y522D01*
X0Y521D02*
X7Y521D01*
X3929Y521D02*
X3936Y521D01*
X0Y520D02*
X7Y520D01*
X3929Y520D02*
X3936Y520D01*
X0Y519D02*
X7Y519D01*
X3929Y519D02*
X3936Y519D01*
X0Y518D02*
X7Y518D01*
X3929Y518D02*
X3936Y518D01*
X0Y517D02*
X7Y517D01*
X3929Y517D02*
X3936Y517D01*
X0Y516D02*
X7Y516D01*
X3929Y516D02*
X3936Y516D01*
X0Y515D02*
X7Y515D01*
X3929Y515D02*
X3936Y515D01*
X0Y514D02*
X7Y514D01*
X3929Y514D02*
X3936Y514D01*
X0Y513D02*
X7Y513D01*
X3929Y513D02*
X3936Y513D01*
X0Y512D02*
X7Y512D01*
X3929Y512D02*
X3936Y512D01*
X0Y511D02*
X7Y511D01*
X3929Y511D02*
X3936Y511D01*
X0Y510D02*
X7Y510D01*
X3929Y510D02*
X3936Y510D01*
X0Y509D02*
X7Y509D01*
X3929Y509D02*
X3936Y509D01*
X0Y508D02*
X7Y508D01*
X3929Y508D02*
X3936Y508D01*
X0Y507D02*
X7Y507D01*
X3929Y507D02*
X3936Y507D01*
X0Y506D02*
X7Y506D01*
X3929Y506D02*
X3936Y506D01*
X0Y505D02*
X7Y505D01*
X3929Y505D02*
X3936Y505D01*
X0Y504D02*
X7Y504D01*
X3929Y504D02*
X3936Y504D01*
X0Y503D02*
X7Y503D01*
X3929Y503D02*
X3936Y503D01*
X0Y502D02*
X7Y502D01*
X3929Y502D02*
X3936Y502D01*
X0Y501D02*
X7Y501D01*
X3929Y501D02*
X3936Y501D01*
X0Y500D02*
X7Y500D01*
X3929Y500D02*
X3936Y500D01*
X0Y499D02*
X7Y499D01*
X3929Y499D02*
X3936Y499D01*
X0Y498D02*
X7Y498D01*
X3929Y498D02*
X3936Y498D01*
X0Y497D02*
X7Y497D01*
X3929Y497D02*
X3936Y497D01*
X0Y496D02*
X7Y496D01*
X3929Y496D02*
X3936Y496D01*
X0Y495D02*
X7Y495D01*
X3929Y495D02*
X3936Y495D01*
X0Y494D02*
X7Y494D01*
X3929Y494D02*
X3936Y494D01*
X0Y493D02*
X7Y493D01*
X3929Y493D02*
X3936Y493D01*
X0Y492D02*
X7Y492D01*
X3929Y492D02*
X3936Y492D01*
X0Y491D02*
X7Y491D01*
X3929Y491D02*
X3936Y491D01*
X0Y490D02*
X7Y490D01*
X3929Y490D02*
X3936Y490D01*
X0Y489D02*
X7Y489D01*
X3929Y489D02*
X3936Y489D01*
X0Y488D02*
X7Y488D01*
X3929Y488D02*
X3936Y488D01*
X0Y487D02*
X7Y487D01*
X3929Y487D02*
X3936Y487D01*
X0Y486D02*
X7Y486D01*
X3929Y486D02*
X3936Y486D01*
X0Y485D02*
X7Y485D01*
X3929Y485D02*
X3936Y485D01*
X0Y484D02*
X7Y484D01*
X3929Y484D02*
X3936Y484D01*
X0Y483D02*
X7Y483D01*
X3929Y483D02*
X3936Y483D01*
X0Y482D02*
X7Y482D01*
X3929Y482D02*
X3936Y482D01*
X0Y481D02*
X7Y481D01*
X3929Y481D02*
X3936Y481D01*
X0Y480D02*
X7Y480D01*
X3929Y480D02*
X3936Y480D01*
X0Y479D02*
X7Y479D01*
X3929Y479D02*
X3936Y479D01*
X0Y478D02*
X7Y478D01*
X3929Y478D02*
X3936Y478D01*
X0Y477D02*
X7Y477D01*
X3929Y477D02*
X3936Y477D01*
X0Y476D02*
X7Y476D01*
X3929Y476D02*
X3936Y476D01*
X0Y475D02*
X7Y475D01*
X3929Y475D02*
X3936Y475D01*
X0Y474D02*
X7Y474D01*
X3929Y474D02*
X3936Y474D01*
X0Y473D02*
X7Y473D01*
X3929Y473D02*
X3936Y473D01*
X0Y472D02*
X7Y472D01*
X3929Y472D02*
X3936Y472D01*
X0Y471D02*
X7Y471D01*
X3929Y471D02*
X3936Y471D01*
X0Y470D02*
X7Y470D01*
X3929Y470D02*
X3936Y470D01*
X0Y469D02*
X7Y469D01*
X3929Y469D02*
X3936Y469D01*
X0Y468D02*
X7Y468D01*
X3929Y468D02*
X3936Y468D01*
X0Y467D02*
X7Y467D01*
X3929Y467D02*
X3936Y467D01*
X0Y466D02*
X7Y466D01*
X3929Y466D02*
X3936Y466D01*
X0Y465D02*
X7Y465D01*
X3929Y465D02*
X3936Y465D01*
X0Y464D02*
X7Y464D01*
X3929Y464D02*
X3936Y464D01*
X0Y463D02*
X7Y463D01*
X3929Y463D02*
X3936Y463D01*
X0Y462D02*
X7Y462D01*
X3929Y462D02*
X3936Y462D01*
X0Y461D02*
X7Y461D01*
X3929Y461D02*
X3936Y461D01*
X0Y460D02*
X7Y460D01*
X3929Y460D02*
X3936Y460D01*
X0Y459D02*
X7Y459D01*
X3929Y459D02*
X3936Y459D01*
X0Y458D02*
X7Y458D01*
X3929Y458D02*
X3936Y458D01*
X0Y457D02*
X7Y457D01*
X3929Y457D02*
X3936Y457D01*
X0Y456D02*
X7Y456D01*
X3929Y456D02*
X3936Y456D01*
X0Y455D02*
X7Y455D01*
X3929Y455D02*
X3936Y455D01*
X0Y454D02*
X7Y454D01*
X3929Y454D02*
X3936Y454D01*
X0Y453D02*
X7Y453D01*
X3929Y453D02*
X3936Y453D01*
X0Y452D02*
X7Y452D01*
X3929Y452D02*
X3936Y452D01*
X0Y451D02*
X7Y451D01*
X3929Y451D02*
X3936Y451D01*
X0Y450D02*
X7Y450D01*
X3929Y450D02*
X3936Y450D01*
X0Y449D02*
X7Y449D01*
X3929Y449D02*
X3936Y449D01*
X0Y448D02*
X7Y448D01*
X3929Y448D02*
X3936Y448D01*
X0Y447D02*
X7Y447D01*
X3929Y447D02*
X3936Y447D01*
X0Y446D02*
X7Y446D01*
X3929Y446D02*
X3936Y446D01*
X0Y445D02*
X7Y445D01*
X3929Y445D02*
X3936Y445D01*
X0Y444D02*
X7Y444D01*
X3929Y444D02*
X3936Y444D01*
X0Y443D02*
X7Y443D01*
X3929Y443D02*
X3936Y443D01*
X0Y442D02*
X7Y442D01*
X3929Y442D02*
X3936Y442D01*
X0Y441D02*
X7Y441D01*
X3929Y441D02*
X3936Y441D01*
X0Y440D02*
X7Y440D01*
X3929Y440D02*
X3936Y440D01*
X0Y439D02*
X7Y439D01*
X3929Y439D02*
X3936Y439D01*
X0Y438D02*
X7Y438D01*
X3929Y438D02*
X3936Y438D01*
X0Y437D02*
X7Y437D01*
X3929Y437D02*
X3936Y437D01*
X0Y436D02*
X7Y436D01*
X3929Y436D02*
X3936Y436D01*
X0Y435D02*
X7Y435D01*
X3929Y435D02*
X3936Y435D01*
X0Y434D02*
X7Y434D01*
X3929Y434D02*
X3936Y434D01*
X0Y433D02*
X7Y433D01*
X3929Y433D02*
X3936Y433D01*
X0Y432D02*
X7Y432D01*
X3929Y432D02*
X3936Y432D01*
X0Y431D02*
X7Y431D01*
X3929Y431D02*
X3936Y431D01*
X0Y430D02*
X7Y430D01*
X3929Y430D02*
X3936Y430D01*
X0Y429D02*
X7Y429D01*
X3929Y429D02*
X3936Y429D01*
X0Y428D02*
X7Y428D01*
X3929Y428D02*
X3936Y428D01*
X0Y427D02*
X7Y427D01*
X3929Y427D02*
X3936Y427D01*
X0Y426D02*
X7Y426D01*
X3929Y426D02*
X3936Y426D01*
X0Y425D02*
X7Y425D01*
X3929Y425D02*
X3936Y425D01*
X0Y424D02*
X7Y424D01*
X3929Y424D02*
X3936Y424D01*
X0Y423D02*
X7Y423D01*
X3929Y423D02*
X3936Y423D01*
X0Y422D02*
X7Y422D01*
X3929Y422D02*
X3936Y422D01*
X0Y421D02*
X7Y421D01*
X3929Y421D02*
X3936Y421D01*
X0Y420D02*
X7Y420D01*
X3929Y420D02*
X3936Y420D01*
X0Y419D02*
X7Y419D01*
X3929Y419D02*
X3936Y419D01*
X0Y418D02*
X7Y418D01*
X3929Y418D02*
X3936Y418D01*
X0Y417D02*
X7Y417D01*
X3929Y417D02*
X3936Y417D01*
X0Y416D02*
X7Y416D01*
X3929Y416D02*
X3936Y416D01*
X0Y415D02*
X7Y415D01*
X3929Y415D02*
X3936Y415D01*
X0Y414D02*
X7Y414D01*
X3929Y414D02*
X3936Y414D01*
X0Y413D02*
X7Y413D01*
X3929Y413D02*
X3936Y413D01*
X0Y412D02*
X7Y412D01*
X3929Y412D02*
X3936Y412D01*
X0Y411D02*
X7Y411D01*
X3929Y411D02*
X3936Y411D01*
X0Y410D02*
X7Y410D01*
X3929Y410D02*
X3936Y410D01*
X0Y409D02*
X7Y409D01*
X3929Y409D02*
X3936Y409D01*
X0Y408D02*
X7Y408D01*
X3929Y408D02*
X3936Y408D01*
X0Y407D02*
X7Y407D01*
X3929Y407D02*
X3936Y407D01*
X0Y406D02*
X7Y406D01*
X3929Y406D02*
X3936Y406D01*
X0Y405D02*
X7Y405D01*
X3929Y405D02*
X3936Y405D01*
X0Y404D02*
X7Y404D01*
X3929Y404D02*
X3936Y404D01*
X0Y403D02*
X7Y403D01*
X3929Y403D02*
X3936Y403D01*
X0Y402D02*
X7Y402D01*
X3929Y402D02*
X3936Y402D01*
X0Y401D02*
X7Y401D01*
X3929Y401D02*
X3936Y401D01*
X0Y400D02*
X7Y400D01*
X3929Y400D02*
X3936Y400D01*
X0Y399D02*
X7Y399D01*
X3929Y399D02*
X3936Y399D01*
X0Y398D02*
X7Y398D01*
X3929Y398D02*
X3936Y398D01*
X0Y397D02*
X7Y397D01*
X3929Y397D02*
X3936Y397D01*
X0Y396D02*
X7Y396D01*
X3929Y396D02*
X3936Y396D01*
X0Y395D02*
X7Y395D01*
X3929Y395D02*
X3936Y395D01*
X0Y394D02*
X7Y394D01*
X3929Y394D02*
X3936Y394D01*
X0Y393D02*
X7Y393D01*
X3929Y393D02*
X3936Y393D01*
X0Y392D02*
X7Y392D01*
X3929Y392D02*
X3936Y392D01*
X0Y391D02*
X7Y391D01*
X3929Y391D02*
X3936Y391D01*
X0Y390D02*
X7Y390D01*
X3929Y390D02*
X3936Y390D01*
X0Y389D02*
X7Y389D01*
X3929Y389D02*
X3936Y389D01*
X0Y388D02*
X7Y388D01*
X3929Y388D02*
X3936Y388D01*
X0Y387D02*
X7Y387D01*
X3929Y387D02*
X3936Y387D01*
X0Y386D02*
X7Y386D01*
X3929Y386D02*
X3936Y386D01*
X0Y385D02*
X7Y385D01*
X3929Y385D02*
X3936Y385D01*
X0Y384D02*
X7Y384D01*
X3929Y384D02*
X3936Y384D01*
X0Y383D02*
X7Y383D01*
X3929Y383D02*
X3936Y383D01*
X0Y382D02*
X7Y382D01*
X3929Y382D02*
X3936Y382D01*
X0Y381D02*
X7Y381D01*
X3929Y381D02*
X3936Y381D01*
X0Y380D02*
X7Y380D01*
X3929Y380D02*
X3936Y380D01*
X0Y379D02*
X7Y379D01*
X3929Y379D02*
X3936Y379D01*
X0Y378D02*
X7Y378D01*
X3929Y378D02*
X3936Y378D01*
X0Y377D02*
X7Y377D01*
X3929Y377D02*
X3936Y377D01*
X0Y376D02*
X7Y376D01*
X3929Y376D02*
X3936Y376D01*
X0Y375D02*
X7Y375D01*
X3929Y375D02*
X3936Y375D01*
X0Y374D02*
X7Y374D01*
X3929Y374D02*
X3936Y374D01*
X0Y373D02*
X7Y373D01*
X3929Y373D02*
X3936Y373D01*
X0Y372D02*
X7Y372D01*
X3929Y372D02*
X3936Y372D01*
X0Y371D02*
X7Y371D01*
X3929Y371D02*
X3936Y371D01*
X0Y370D02*
X7Y370D01*
X3929Y370D02*
X3936Y370D01*
X0Y369D02*
X7Y369D01*
X3929Y369D02*
X3936Y369D01*
X0Y368D02*
X7Y368D01*
X3929Y368D02*
X3936Y368D01*
X0Y367D02*
X7Y367D01*
X3929Y367D02*
X3936Y367D01*
X0Y366D02*
X7Y366D01*
X3929Y366D02*
X3936Y366D01*
X0Y365D02*
X7Y365D01*
X3929Y365D02*
X3936Y365D01*
X0Y364D02*
X7Y364D01*
X3929Y364D02*
X3936Y364D01*
X0Y363D02*
X7Y363D01*
X3929Y363D02*
X3936Y363D01*
X0Y362D02*
X7Y362D01*
X3929Y362D02*
X3936Y362D01*
X0Y361D02*
X7Y361D01*
X3929Y361D02*
X3936Y361D01*
X0Y360D02*
X7Y360D01*
X3929Y360D02*
X3936Y360D01*
X0Y359D02*
X7Y359D01*
X3929Y359D02*
X3936Y359D01*
X0Y358D02*
X7Y358D01*
X3929Y358D02*
X3936Y358D01*
X0Y357D02*
X7Y357D01*
X3929Y357D02*
X3936Y357D01*
X0Y356D02*
X7Y356D01*
X3929Y356D02*
X3936Y356D01*
X0Y355D02*
X7Y355D01*
X3929Y355D02*
X3936Y355D01*
X0Y354D02*
X7Y354D01*
X3929Y354D02*
X3936Y354D01*
X0Y353D02*
X7Y353D01*
X3929Y353D02*
X3936Y353D01*
X0Y352D02*
X7Y352D01*
X3929Y352D02*
X3936Y352D01*
X0Y351D02*
X7Y351D01*
X3929Y351D02*
X3936Y351D01*
X0Y350D02*
X7Y350D01*
X3929Y350D02*
X3936Y350D01*
X0Y349D02*
X7Y349D01*
X3929Y349D02*
X3936Y349D01*
X0Y348D02*
X7Y348D01*
X3929Y348D02*
X3936Y348D01*
X0Y347D02*
X7Y347D01*
X3929Y347D02*
X3936Y347D01*
X0Y346D02*
X7Y346D01*
X3929Y346D02*
X3936Y346D01*
X0Y345D02*
X7Y345D01*
X3929Y345D02*
X3936Y345D01*
X0Y344D02*
X7Y344D01*
X3929Y344D02*
X3936Y344D01*
X0Y343D02*
X7Y343D01*
X3929Y343D02*
X3936Y343D01*
X0Y342D02*
X7Y342D01*
X3929Y342D02*
X3936Y342D01*
X0Y341D02*
X7Y341D01*
X3929Y341D02*
X3936Y341D01*
X0Y340D02*
X7Y340D01*
X3929Y340D02*
X3936Y340D01*
X0Y339D02*
X7Y339D01*
X3929Y339D02*
X3936Y339D01*
X0Y338D02*
X7Y338D01*
X3929Y338D02*
X3936Y338D01*
X0Y337D02*
X7Y337D01*
X3929Y337D02*
X3936Y337D01*
X0Y336D02*
X7Y336D01*
X3929Y336D02*
X3936Y336D01*
X0Y335D02*
X7Y335D01*
X3929Y335D02*
X3936Y335D01*
X0Y334D02*
X7Y334D01*
X3929Y334D02*
X3936Y334D01*
X0Y333D02*
X7Y333D01*
X3929Y333D02*
X3936Y333D01*
X0Y332D02*
X7Y332D01*
X3929Y332D02*
X3936Y332D01*
X0Y331D02*
X7Y331D01*
X3929Y331D02*
X3936Y331D01*
X0Y330D02*
X7Y330D01*
X3929Y330D02*
X3936Y330D01*
X0Y329D02*
X7Y329D01*
X3929Y329D02*
X3936Y329D01*
X0Y328D02*
X7Y328D01*
X3929Y328D02*
X3936Y328D01*
X0Y327D02*
X7Y327D01*
X3929Y327D02*
X3936Y327D01*
X0Y326D02*
X7Y326D01*
X3929Y326D02*
X3936Y326D01*
X0Y325D02*
X7Y325D01*
X3929Y325D02*
X3936Y325D01*
X0Y324D02*
X7Y324D01*
X3929Y324D02*
X3936Y324D01*
X0Y323D02*
X7Y323D01*
X3929Y323D02*
X3936Y323D01*
X0Y322D02*
X7Y322D01*
X3929Y322D02*
X3936Y322D01*
X0Y321D02*
X7Y321D01*
X3929Y321D02*
X3936Y321D01*
X0Y320D02*
X7Y320D01*
X3929Y320D02*
X3936Y320D01*
X0Y319D02*
X7Y319D01*
X3929Y319D02*
X3936Y319D01*
X0Y318D02*
X7Y318D01*
X3929Y318D02*
X3936Y318D01*
X0Y317D02*
X7Y317D01*
X3929Y317D02*
X3936Y317D01*
X0Y316D02*
X7Y316D01*
X3929Y316D02*
X3936Y316D01*
X0Y315D02*
X7Y315D01*
X3929Y315D02*
X3936Y315D01*
X0Y314D02*
X7Y314D01*
X3929Y314D02*
X3936Y314D01*
X0Y313D02*
X7Y313D01*
X3929Y313D02*
X3936Y313D01*
X0Y312D02*
X7Y312D01*
X3929Y312D02*
X3936Y312D01*
X0Y311D02*
X7Y311D01*
X3929Y311D02*
X3936Y311D01*
X0Y310D02*
X7Y310D01*
X3929Y310D02*
X3936Y310D01*
X0Y309D02*
X7Y309D01*
X3929Y309D02*
X3936Y309D01*
X0Y308D02*
X7Y308D01*
X3929Y308D02*
X3936Y308D01*
X0Y307D02*
X7Y307D01*
X3929Y307D02*
X3936Y307D01*
X0Y306D02*
X7Y306D01*
X3929Y306D02*
X3936Y306D01*
X0Y305D02*
X7Y305D01*
X3929Y305D02*
X3936Y305D01*
X0Y304D02*
X7Y304D01*
X3929Y304D02*
X3936Y304D01*
X0Y303D02*
X7Y303D01*
X3929Y303D02*
X3936Y303D01*
X0Y302D02*
X7Y302D01*
X3929Y302D02*
X3936Y302D01*
X0Y301D02*
X7Y301D01*
X3929Y301D02*
X3936Y301D01*
X0Y300D02*
X7Y300D01*
X3929Y300D02*
X3936Y300D01*
X0Y299D02*
X7Y299D01*
X3929Y299D02*
X3936Y299D01*
X0Y298D02*
X7Y298D01*
X3929Y298D02*
X3936Y298D01*
X0Y297D02*
X7Y297D01*
X3929Y297D02*
X3936Y297D01*
X0Y296D02*
X7Y296D01*
X3929Y296D02*
X3936Y296D01*
X0Y295D02*
X7Y295D01*
X3929Y295D02*
X3936Y295D01*
X0Y294D02*
X7Y294D01*
X3929Y294D02*
X3936Y294D01*
X0Y293D02*
X7Y293D01*
X3929Y293D02*
X3936Y293D01*
X0Y292D02*
X7Y292D01*
X3929Y292D02*
X3936Y292D01*
X0Y291D02*
X7Y291D01*
X3929Y291D02*
X3936Y291D01*
X0Y290D02*
X7Y290D01*
X3929Y290D02*
X3936Y290D01*
X0Y289D02*
X7Y289D01*
X3929Y289D02*
X3936Y289D01*
X0Y288D02*
X7Y288D01*
X3929Y288D02*
X3936Y288D01*
X0Y287D02*
X7Y287D01*
X3929Y287D02*
X3936Y287D01*
X0Y286D02*
X7Y286D01*
X3929Y286D02*
X3936Y286D01*
X0Y285D02*
X7Y285D01*
X3929Y285D02*
X3936Y285D01*
X0Y284D02*
X7Y284D01*
X3929Y284D02*
X3936Y284D01*
X0Y283D02*
X7Y283D01*
X3929Y283D02*
X3936Y283D01*
X0Y282D02*
X7Y282D01*
X3929Y282D02*
X3936Y282D01*
X0Y281D02*
X7Y281D01*
X3929Y281D02*
X3936Y281D01*
X0Y280D02*
X7Y280D01*
X3929Y280D02*
X3936Y280D01*
X0Y279D02*
X7Y279D01*
X3929Y279D02*
X3936Y279D01*
X0Y278D02*
X7Y278D01*
X3929Y278D02*
X3936Y278D01*
X0Y277D02*
X7Y277D01*
X3929Y277D02*
X3936Y277D01*
X0Y276D02*
X7Y276D01*
X3929Y276D02*
X3936Y276D01*
X0Y275D02*
X7Y275D01*
X3929Y275D02*
X3936Y275D01*
X0Y274D02*
X7Y274D01*
X3929Y274D02*
X3936Y274D01*
X0Y273D02*
X7Y273D01*
X3929Y273D02*
X3936Y273D01*
X0Y272D02*
X7Y272D01*
X3929Y272D02*
X3936Y272D01*
X0Y271D02*
X7Y271D01*
X3929Y271D02*
X3936Y271D01*
X0Y270D02*
X7Y270D01*
X3929Y270D02*
X3936Y270D01*
X0Y269D02*
X7Y269D01*
X3929Y269D02*
X3936Y269D01*
X0Y268D02*
X7Y268D01*
X3929Y268D02*
X3936Y268D01*
X0Y267D02*
X7Y267D01*
X3929Y267D02*
X3936Y267D01*
X0Y266D02*
X7Y266D01*
X3929Y266D02*
X3936Y266D01*
X0Y265D02*
X7Y265D01*
X3929Y265D02*
X3936Y265D01*
X0Y264D02*
X7Y264D01*
X3929Y264D02*
X3936Y264D01*
X0Y263D02*
X7Y263D01*
X3929Y263D02*
X3936Y263D01*
X0Y262D02*
X7Y262D01*
X3929Y262D02*
X3936Y262D01*
X0Y261D02*
X7Y261D01*
X3929Y261D02*
X3936Y261D01*
X0Y260D02*
X7Y260D01*
X3929Y260D02*
X3936Y260D01*
X0Y259D02*
X7Y259D01*
X3929Y259D02*
X3936Y259D01*
X0Y258D02*
X7Y258D01*
X3929Y258D02*
X3936Y258D01*
X0Y257D02*
X7Y257D01*
X3929Y257D02*
X3936Y257D01*
X0Y256D02*
X7Y256D01*
X3929Y256D02*
X3936Y256D01*
X0Y255D02*
X7Y255D01*
X3929Y255D02*
X3936Y255D01*
X0Y254D02*
X7Y254D01*
X3929Y254D02*
X3936Y254D01*
X0Y253D02*
X7Y253D01*
X3929Y253D02*
X3936Y253D01*
X0Y252D02*
X7Y252D01*
X3929Y252D02*
X3936Y252D01*
X0Y251D02*
X7Y251D01*
X3929Y251D02*
X3936Y251D01*
X0Y250D02*
X7Y250D01*
X3929Y250D02*
X3936Y250D01*
X0Y249D02*
X7Y249D01*
X3929Y249D02*
X3936Y249D01*
X0Y248D02*
X7Y248D01*
X3929Y248D02*
X3936Y248D01*
X0Y247D02*
X7Y247D01*
X3929Y247D02*
X3936Y247D01*
X0Y246D02*
X7Y246D01*
X3929Y246D02*
X3936Y246D01*
X0Y245D02*
X7Y245D01*
X3929Y245D02*
X3936Y245D01*
X0Y244D02*
X7Y244D01*
X3929Y244D02*
X3936Y244D01*
X0Y243D02*
X7Y243D01*
X3929Y243D02*
X3936Y243D01*
X0Y242D02*
X7Y242D01*
X3929Y242D02*
X3936Y242D01*
X0Y241D02*
X7Y241D01*
X3929Y241D02*
X3936Y241D01*
X0Y240D02*
X7Y240D01*
X3929Y240D02*
X3936Y240D01*
X0Y239D02*
X7Y239D01*
X3929Y239D02*
X3936Y239D01*
X0Y238D02*
X7Y238D01*
X3929Y238D02*
X3936Y238D01*
X0Y237D02*
X7Y237D01*
X3929Y237D02*
X3936Y237D01*
X0Y236D02*
X7Y236D01*
X3929Y236D02*
X3936Y236D01*
X0Y235D02*
X7Y235D01*
X3929Y235D02*
X3936Y235D01*
X0Y234D02*
X7Y234D01*
X3929Y234D02*
X3936Y234D01*
X0Y233D02*
X7Y233D01*
X3929Y233D02*
X3936Y233D01*
X0Y232D02*
X7Y232D01*
X3929Y232D02*
X3936Y232D01*
X0Y231D02*
X7Y231D01*
X3929Y231D02*
X3936Y231D01*
X0Y230D02*
X7Y230D01*
X3929Y230D02*
X3936Y230D01*
X0Y229D02*
X7Y229D01*
X3929Y229D02*
X3936Y229D01*
X0Y228D02*
X7Y228D01*
X3929Y228D02*
X3936Y228D01*
X0Y227D02*
X7Y227D01*
X3929Y227D02*
X3936Y227D01*
X0Y226D02*
X7Y226D01*
X3929Y226D02*
X3936Y226D01*
X0Y225D02*
X7Y225D01*
X3929Y225D02*
X3936Y225D01*
X0Y224D02*
X7Y224D01*
X3929Y224D02*
X3936Y224D01*
X0Y223D02*
X7Y223D01*
X3929Y223D02*
X3936Y223D01*
X0Y222D02*
X7Y222D01*
X3929Y222D02*
X3936Y222D01*
X0Y221D02*
X7Y221D01*
X3929Y221D02*
X3936Y221D01*
X0Y220D02*
X7Y220D01*
X3929Y220D02*
X3936Y220D01*
X0Y219D02*
X7Y219D01*
X3929Y219D02*
X3936Y219D01*
X0Y218D02*
X7Y218D01*
X3929Y218D02*
X3936Y218D01*
X0Y217D02*
X7Y217D01*
X3929Y217D02*
X3936Y217D01*
X0Y216D02*
X7Y216D01*
X3929Y216D02*
X3936Y216D01*
X0Y215D02*
X7Y215D01*
X3929Y215D02*
X3936Y215D01*
X0Y214D02*
X7Y214D01*
X3929Y214D02*
X3936Y214D01*
X0Y213D02*
X7Y213D01*
X3929Y213D02*
X3936Y213D01*
X0Y212D02*
X7Y212D01*
X3929Y212D02*
X3936Y212D01*
X0Y211D02*
X7Y211D01*
X3929Y211D02*
X3936Y211D01*
X0Y210D02*
X7Y210D01*
X3929Y210D02*
X3936Y210D01*
X0Y209D02*
X7Y209D01*
X3929Y209D02*
X3936Y209D01*
X0Y208D02*
X7Y208D01*
X3929Y208D02*
X3936Y208D01*
X0Y207D02*
X7Y207D01*
X3929Y207D02*
X3936Y207D01*
X0Y206D02*
X7Y206D01*
X3929Y206D02*
X3936Y206D01*
X0Y205D02*
X7Y205D01*
X3929Y205D02*
X3936Y205D01*
X0Y204D02*
X7Y204D01*
X3929Y204D02*
X3936Y204D01*
X0Y203D02*
X7Y203D01*
X3929Y203D02*
X3936Y203D01*
X0Y202D02*
X7Y202D01*
X3929Y202D02*
X3936Y202D01*
X0Y201D02*
X7Y201D01*
X3929Y201D02*
X3936Y201D01*
X0Y200D02*
X7Y200D01*
X3929Y200D02*
X3936Y200D01*
X0Y199D02*
X7Y199D01*
X3929Y199D02*
X3936Y199D01*
X0Y198D02*
X7Y198D01*
X3929Y198D02*
X3936Y198D01*
X0Y197D02*
X7Y197D01*
X3929Y197D02*
X3936Y197D01*
X0Y196D02*
X7Y196D01*
X3929Y196D02*
X3936Y196D01*
X0Y195D02*
X7Y195D01*
X3929Y195D02*
X3936Y195D01*
X0Y194D02*
X7Y194D01*
X3929Y194D02*
X3936Y194D01*
X0Y193D02*
X7Y193D01*
X3929Y193D02*
X3936Y193D01*
X0Y192D02*
X7Y192D01*
X3929Y192D02*
X3936Y192D01*
X0Y191D02*
X7Y191D01*
X3929Y191D02*
X3936Y191D01*
X0Y190D02*
X7Y190D01*
X3929Y190D02*
X3936Y190D01*
X0Y189D02*
X7Y189D01*
X3929Y189D02*
X3936Y189D01*
X0Y188D02*
X7Y188D01*
X3929Y188D02*
X3936Y188D01*
X0Y187D02*
X7Y187D01*
X3929Y187D02*
X3936Y187D01*
X0Y186D02*
X7Y186D01*
X3929Y186D02*
X3936Y186D01*
X0Y185D02*
X7Y185D01*
X3929Y185D02*
X3936Y185D01*
X0Y184D02*
X7Y184D01*
X3929Y184D02*
X3936Y184D01*
X0Y183D02*
X7Y183D01*
X3929Y183D02*
X3936Y183D01*
X0Y182D02*
X7Y182D01*
X3929Y182D02*
X3936Y182D01*
X0Y181D02*
X7Y181D01*
X3929Y181D02*
X3936Y181D01*
X0Y180D02*
X7Y180D01*
X3929Y180D02*
X3936Y180D01*
X0Y179D02*
X7Y179D01*
X3929Y179D02*
X3936Y179D01*
X0Y178D02*
X7Y178D01*
X3929Y178D02*
X3936Y178D01*
X0Y177D02*
X7Y177D01*
X3929Y177D02*
X3936Y177D01*
X0Y176D02*
X7Y176D01*
X3929Y176D02*
X3936Y176D01*
X0Y175D02*
X7Y175D01*
X3929Y175D02*
X3936Y175D01*
X0Y174D02*
X7Y174D01*
X3929Y174D02*
X3936Y174D01*
X0Y173D02*
X7Y173D01*
X3929Y173D02*
X3936Y173D01*
X0Y172D02*
X7Y172D01*
X3929Y172D02*
X3936Y172D01*
X0Y171D02*
X7Y171D01*
X3929Y171D02*
X3936Y171D01*
X0Y170D02*
X7Y170D01*
X3929Y170D02*
X3936Y170D01*
X0Y169D02*
X7Y169D01*
X3929Y169D02*
X3936Y169D01*
X0Y168D02*
X7Y168D01*
X3929Y168D02*
X3936Y168D01*
X0Y167D02*
X7Y167D01*
X3929Y167D02*
X3936Y167D01*
X0Y166D02*
X7Y166D01*
X3929Y166D02*
X3936Y166D01*
X0Y165D02*
X7Y165D01*
X3929Y165D02*
X3936Y165D01*
X0Y164D02*
X7Y164D01*
X3929Y164D02*
X3936Y164D01*
X0Y163D02*
X7Y163D01*
X3929Y163D02*
X3936Y163D01*
X0Y162D02*
X7Y162D01*
X3929Y162D02*
X3936Y162D01*
X0Y161D02*
X7Y161D01*
X3929Y161D02*
X3936Y161D01*
X0Y160D02*
X7Y160D01*
X3929Y160D02*
X3936Y160D01*
X0Y159D02*
X7Y159D01*
X3929Y159D02*
X3936Y159D01*
X0Y158D02*
X7Y158D01*
X3929Y158D02*
X3936Y158D01*
X0Y157D02*
X7Y157D01*
X3929Y157D02*
X3936Y157D01*
X0Y156D02*
X7Y156D01*
X3929Y156D02*
X3936Y156D01*
X0Y155D02*
X7Y155D01*
X3929Y155D02*
X3936Y155D01*
X0Y154D02*
X7Y154D01*
X3929Y154D02*
X3936Y154D01*
X0Y153D02*
X7Y153D01*
X3929Y153D02*
X3936Y153D01*
X0Y152D02*
X7Y152D01*
X3929Y152D02*
X3936Y152D01*
X0Y151D02*
X7Y151D01*
X3929Y151D02*
X3936Y151D01*
X0Y150D02*
X7Y150D01*
X3929Y150D02*
X3936Y150D01*
X0Y149D02*
X7Y149D01*
X3929Y149D02*
X3936Y149D01*
X0Y148D02*
X7Y148D01*
X3929Y148D02*
X3936Y148D01*
X0Y147D02*
X7Y147D01*
X3929Y147D02*
X3936Y147D01*
X0Y146D02*
X7Y146D01*
X3929Y146D02*
X3936Y146D01*
X0Y145D02*
X7Y145D01*
X3929Y145D02*
X3936Y145D01*
X0Y144D02*
X7Y144D01*
X3929Y144D02*
X3936Y144D01*
X0Y143D02*
X7Y143D01*
X3929Y143D02*
X3936Y143D01*
X0Y142D02*
X7Y142D01*
X3929Y142D02*
X3936Y142D01*
X0Y141D02*
X7Y141D01*
X3929Y141D02*
X3936Y141D01*
X0Y140D02*
X7Y140D01*
X3929Y140D02*
X3936Y140D01*
X0Y139D02*
X7Y139D01*
X3929Y139D02*
X3936Y139D01*
X0Y138D02*
X7Y138D01*
X3929Y138D02*
X3936Y138D01*
X0Y137D02*
X7Y137D01*
X3929Y137D02*
X3936Y137D01*
X0Y136D02*
X7Y136D01*
X3929Y136D02*
X3936Y136D01*
X0Y135D02*
X7Y135D01*
X3929Y135D02*
X3936Y135D01*
X0Y134D02*
X7Y134D01*
X3929Y134D02*
X3936Y134D01*
X0Y133D02*
X7Y133D01*
X3929Y133D02*
X3936Y133D01*
X0Y132D02*
X7Y132D01*
X3929Y132D02*
X3936Y132D01*
X0Y131D02*
X7Y131D01*
X3929Y131D02*
X3936Y131D01*
X0Y130D02*
X7Y130D01*
X3929Y130D02*
X3936Y130D01*
X0Y129D02*
X7Y129D01*
X3929Y129D02*
X3936Y129D01*
X0Y128D02*
X7Y128D01*
X3929Y128D02*
X3936Y128D01*
X0Y127D02*
X7Y127D01*
X3929Y127D02*
X3936Y127D01*
X0Y126D02*
X7Y126D01*
X3929Y126D02*
X3936Y126D01*
X0Y125D02*
X7Y125D01*
X3929Y125D02*
X3936Y125D01*
X0Y124D02*
X7Y124D01*
X3929Y124D02*
X3936Y124D01*
X0Y123D02*
X7Y123D01*
X3929Y123D02*
X3936Y123D01*
X0Y122D02*
X7Y122D01*
X3929Y122D02*
X3936Y122D01*
X0Y121D02*
X7Y121D01*
X3929Y121D02*
X3936Y121D01*
X0Y120D02*
X7Y120D01*
X3929Y120D02*
X3936Y120D01*
X0Y119D02*
X7Y119D01*
X3929Y119D02*
X3936Y119D01*
X0Y118D02*
X7Y118D01*
X3929Y118D02*
X3936Y118D01*
X0Y117D02*
X7Y117D01*
X3929Y117D02*
X3936Y117D01*
X0Y116D02*
X7Y116D01*
X3929Y116D02*
X3936Y116D01*
X0Y115D02*
X7Y115D01*
X3929Y115D02*
X3936Y115D01*
X0Y114D02*
X7Y114D01*
X3929Y114D02*
X3936Y114D01*
X0Y113D02*
X7Y113D01*
X3929Y113D02*
X3936Y113D01*
X0Y112D02*
X7Y112D01*
X3929Y112D02*
X3936Y112D01*
X0Y111D02*
X7Y111D01*
X3929Y111D02*
X3936Y111D01*
X0Y110D02*
X7Y110D01*
X3929Y110D02*
X3936Y110D01*
X0Y109D02*
X7Y109D01*
X3929Y109D02*
X3936Y109D01*
X0Y108D02*
X7Y108D01*
X3929Y108D02*
X3936Y108D01*
X0Y107D02*
X7Y107D01*
X3929Y107D02*
X3936Y107D01*
X0Y106D02*
X7Y106D01*
X3929Y106D02*
X3936Y106D01*
X0Y105D02*
X7Y105D01*
X3929Y105D02*
X3936Y105D01*
X0Y104D02*
X7Y104D01*
X3929Y104D02*
X3936Y104D01*
X0Y103D02*
X7Y103D01*
X3929Y103D02*
X3936Y103D01*
X0Y102D02*
X7Y102D01*
X3929Y102D02*
X3936Y102D01*
X0Y101D02*
X7Y101D01*
X3929Y101D02*
X3936Y101D01*
X0Y100D02*
X7Y100D01*
X3929Y100D02*
X3936Y100D01*
X0Y99D02*
X7Y99D01*
X3929Y99D02*
X3936Y99D01*
X0Y98D02*
X7Y98D01*
X3929Y98D02*
X3936Y98D01*
X0Y97D02*
X7Y97D01*
X3929Y97D02*
X3936Y97D01*
X0Y96D02*
X7Y96D01*
X3929Y96D02*
X3936Y96D01*
X0Y95D02*
X7Y95D01*
X3929Y95D02*
X3936Y95D01*
X0Y94D02*
X7Y94D01*
X3929Y94D02*
X3936Y94D01*
X0Y93D02*
X7Y93D01*
X3929Y93D02*
X3936Y93D01*
X0Y92D02*
X7Y92D01*
X3929Y92D02*
X3936Y92D01*
X0Y91D02*
X7Y91D01*
X3929Y91D02*
X3936Y91D01*
X0Y90D02*
X7Y90D01*
X3929Y90D02*
X3936Y90D01*
X0Y89D02*
X7Y89D01*
X3929Y89D02*
X3936Y89D01*
X0Y88D02*
X7Y88D01*
X3929Y88D02*
X3936Y88D01*
X0Y87D02*
X7Y87D01*
X3929Y87D02*
X3936Y87D01*
X0Y86D02*
X7Y86D01*
X3929Y86D02*
X3936Y86D01*
X0Y85D02*
X7Y85D01*
X3929Y85D02*
X3936Y85D01*
X0Y84D02*
X7Y84D01*
X3929Y84D02*
X3936Y84D01*
X0Y83D02*
X7Y83D01*
X3929Y83D02*
X3936Y83D01*
X0Y82D02*
X7Y82D01*
X3929Y82D02*
X3936Y82D01*
X0Y81D02*
X7Y81D01*
X3929Y81D02*
X3936Y81D01*
X0Y80D02*
X7Y80D01*
X3929Y80D02*
X3936Y80D01*
X0Y79D02*
X7Y79D01*
X3929Y79D02*
X3936Y79D01*
X0Y78D02*
X7Y78D01*
X3929Y78D02*
X3936Y78D01*
X0Y77D02*
X7Y77D01*
X3929Y77D02*
X3936Y77D01*
X0Y76D02*
X7Y76D01*
X3929Y76D02*
X3936Y76D01*
X0Y75D02*
X7Y75D01*
X3929Y75D02*
X3936Y75D01*
X0Y74D02*
X7Y74D01*
X3929Y74D02*
X3936Y74D01*
X0Y73D02*
X7Y73D01*
X3929Y73D02*
X3936Y73D01*
X0Y72D02*
X7Y72D01*
X3929Y72D02*
X3936Y72D01*
X0Y71D02*
X7Y71D01*
X3929Y71D02*
X3936Y71D01*
X0Y70D02*
X7Y70D01*
X3929Y70D02*
X3936Y70D01*
X0Y69D02*
X7Y69D01*
X3929Y69D02*
X3936Y69D01*
X0Y68D02*
X7Y68D01*
X3929Y68D02*
X3936Y68D01*
X0Y67D02*
X7Y67D01*
X3929Y67D02*
X3936Y67D01*
X0Y66D02*
X7Y66D01*
X3929Y66D02*
X3936Y66D01*
X0Y65D02*
X7Y65D01*
X3929Y65D02*
X3936Y65D01*
X0Y64D02*
X7Y64D01*
X3929Y64D02*
X3936Y64D01*
X0Y63D02*
X7Y63D01*
X3929Y63D02*
X3936Y63D01*
X0Y62D02*
X7Y62D01*
X3929Y62D02*
X3936Y62D01*
X0Y61D02*
X7Y61D01*
X3929Y61D02*
X3936Y61D01*
X0Y60D02*
X7Y60D01*
X3929Y60D02*
X3936Y60D01*
X0Y59D02*
X7Y59D01*
X3929Y59D02*
X3936Y59D01*
X0Y58D02*
X7Y58D01*
X3929Y58D02*
X3936Y58D01*
X0Y57D02*
X7Y57D01*
X3929Y57D02*
X3936Y57D01*
X0Y56D02*
X7Y56D01*
X3929Y56D02*
X3936Y56D01*
X0Y55D02*
X7Y55D01*
X3929Y55D02*
X3936Y55D01*
X0Y54D02*
X7Y54D01*
X3929Y54D02*
X3936Y54D01*
X0Y53D02*
X7Y53D01*
X3929Y53D02*
X3936Y53D01*
X0Y52D02*
X7Y52D01*
X3929Y52D02*
X3936Y52D01*
X0Y51D02*
X7Y51D01*
X3929Y51D02*
X3936Y51D01*
X0Y50D02*
X7Y50D01*
X3929Y50D02*
X3936Y50D01*
X0Y49D02*
X7Y49D01*
X3929Y49D02*
X3936Y49D01*
X0Y48D02*
X7Y48D01*
X3929Y48D02*
X3936Y48D01*
X0Y47D02*
X7Y47D01*
X3929Y47D02*
X3936Y47D01*
X0Y46D02*
X7Y46D01*
X3929Y46D02*
X3936Y46D01*
X0Y45D02*
X7Y45D01*
X3929Y45D02*
X3936Y45D01*
X0Y44D02*
X7Y44D01*
X3929Y44D02*
X3936Y44D01*
X0Y43D02*
X7Y43D01*
X3929Y43D02*
X3936Y43D01*
X0Y42D02*
X7Y42D01*
X3929Y42D02*
X3936Y42D01*
X0Y41D02*
X7Y41D01*
X3929Y41D02*
X3936Y41D01*
X0Y40D02*
X7Y40D01*
X3929Y40D02*
X3936Y40D01*
X0Y39D02*
X7Y39D01*
X3929Y39D02*
X3936Y39D01*
X0Y38D02*
X7Y38D01*
X3929Y38D02*
X3936Y38D01*
X0Y37D02*
X7Y37D01*
X3929Y37D02*
X3936Y37D01*
X0Y36D02*
X7Y36D01*
X3929Y36D02*
X3936Y36D01*
X0Y35D02*
X7Y35D01*
X3929Y35D02*
X3936Y35D01*
X0Y34D02*
X7Y34D01*
X3929Y34D02*
X3936Y34D01*
X0Y33D02*
X7Y33D01*
X3929Y33D02*
X3936Y33D01*
X0Y32D02*
X7Y32D01*
X3929Y32D02*
X3936Y32D01*
X0Y31D02*
X7Y31D01*
X3929Y31D02*
X3936Y31D01*
X0Y30D02*
X7Y30D01*
X3929Y30D02*
X3936Y30D01*
X0Y29D02*
X7Y29D01*
X3929Y29D02*
X3936Y29D01*
X0Y28D02*
X7Y28D01*
X3929Y28D02*
X3936Y28D01*
X0Y27D02*
X7Y27D01*
X3929Y27D02*
X3936Y27D01*
X0Y26D02*
X7Y26D01*
X3929Y26D02*
X3936Y26D01*
X0Y25D02*
X7Y25D01*
X3929Y25D02*
X3936Y25D01*
X0Y24D02*
X7Y24D01*
X3929Y24D02*
X3936Y24D01*
X0Y23D02*
X7Y23D01*
X3929Y23D02*
X3936Y23D01*
X0Y22D02*
X7Y22D01*
X3929Y22D02*
X3936Y22D01*
X0Y21D02*
X7Y21D01*
X3929Y21D02*
X3936Y21D01*
X0Y20D02*
X7Y20D01*
X3929Y20D02*
X3936Y20D01*
X0Y19D02*
X7Y19D01*
X3929Y19D02*
X3936Y19D01*
X0Y18D02*
X7Y18D01*
X3929Y18D02*
X3936Y18D01*
X0Y17D02*
X7Y17D01*
X3929Y17D02*
X3936Y17D01*
X0Y16D02*
X7Y16D01*
X3929Y16D02*
X3936Y16D01*
X0Y15D02*
X7Y15D01*
X3929Y15D02*
X3936Y15D01*
X0Y14D02*
X7Y14D01*
X3929Y14D02*
X3936Y14D01*
X0Y13D02*
X7Y13D01*
X3929Y13D02*
X3936Y13D01*
X0Y12D02*
X7Y12D01*
X3929Y12D02*
X3936Y12D01*
X0Y11D02*
X7Y11D01*
X3929Y11D02*
X3936Y11D01*
X0Y10D02*
X7Y10D01*
X3929Y10D02*
X3936Y10D01*
X0Y9D02*
X7Y9D01*
X3929Y9D02*
X3936Y9D01*
X0Y8D02*
X3936Y8D01*
X0Y7D02*
X3936Y7D01*
X0Y6D02*
X3936Y6D01*
X0Y5D02*
X3936Y5D01*
X0Y4D02*
X3936Y4D01*
X0Y3D02*
X3936Y3D01*
X0Y2D02*
X3936Y2D01*
X0Y1D02*
X3936Y1D01*
D02*
G04 End of Silk0*
M02*